STARTFONT 2.1
COMMENT
COMMENT Converted from OpenType font "Helvetica-Regular.ttf" by "otf2bdf 3.0".
COMMENT
FONT -FreeType-Unknown-Medium-R-Normal--9-90-72-72-P-49-Apple-Unicode
SIZE 9 72 72
FONTBOUNDINGBOX 22 15 -9 -4
STARTPROPERTIES 19
FOUNDRY "FreeType"
FAMILY_NAME "Unknown"
WEIGHT_NAME "Medium"
SLANT "R"
SETWIDTH_NAME "Normal"
ADD_STYLE_NAME ""
PIXEL_SIZE 9
POINT_SIZE 90
RESOLUTION_X 72
RESOLUTION_Y 72
SPACING "P"
AVERAGE_WIDTH 49
CHARSET_REGISTRY "Apple"
CHARSET_ENCODING "Unicode"
FONT_ASCENT 6
FONT_DESCENT 2
COPYRIGHT "-FreeType-Unknown-Medium-R-Normal--9-90-72-72-P-49-Apple-Unicode"
_OTF_FONTFILE "Helvetica-Regular.ttf"
_OTF_PSNAME "-FreeType-Unknown-Medium-R-Normal--9-90-72-72-P-49-Apple-Unicode"
ENDPROPERTIES
CHARS 2067
STARTCHAR 0000
ENCODING 0
SWIDTH 0 0
DWIDTH 0 0
BBX 0 0 0 0
BITMAP
ENDCHAR
STARTCHAR 0008
ENCODING 8
SWIDTH 0 0
DWIDTH 0 0
BBX 0 0 0 0
BITMAP
ENDCHAR
STARTCHAR 0009
ENCODING 9
SWIDTH 333 0
DWIDTH 3 0
BBX 0 0 0 0
BITMAP
ENDCHAR
STARTCHAR 000A
ENCODING 10
SWIDTH 333 0
DWIDTH 3 0
BBX 0 0 0 0
BITMAP
ENDCHAR
STARTCHAR 000D
ENCODING 13
SWIDTH 333 0
DWIDTH 3 0
BBX 0 0 0 0
BITMAP
ENDCHAR
STARTCHAR 001D
ENCODING 29
SWIDTH 0 0
DWIDTH 0 0
BBX 0 0 0 0
BITMAP
ENDCHAR
STARTCHAR 0020
ENCODING 32
SWIDTH 333 0
DWIDTH 3 0
BBX 0 0 0 0
BITMAP
ENDCHAR
STARTCHAR 0021
ENCODING 33
SWIDTH 333 0
DWIDTH 3 0
BBX 1 7 1 0
BITMAP
80
80
80
80
80
00
80
ENDCHAR
STARTCHAR 0022
ENCODING 34
SWIDTH 333 0
DWIDTH 3 0
BBX 3 3 0 4
BITMAP
A0
A0
A0
ENDCHAR
STARTCHAR 0023
ENCODING 35
SWIDTH 555 0
DWIDTH 5 0
BBX 5 7 0 0
BITMAP
30
30
78
50
F0
60
A0
ENDCHAR
STARTCHAR 0024
ENCODING 36
SWIDTH 555 0
DWIDTH 5 0
BBX 5 9 0 -1
BITMAP
20
70
B0
A0
70
28
A8
70
20
ENDCHAR
STARTCHAR 0025
ENCODING 37
SWIDTH 888 0
DWIDTH 8 0
BBX 8 6 0 0
BITMAP
64
A8
68
16
29
26
ENDCHAR
STARTCHAR 0026
ENCODING 38
SWIDTH 666 0
DWIDTH 6 0
BBX 5 7 0 0
BITMAP
30
50
50
60
98
88
78
ENDCHAR
STARTCHAR 0027
ENCODING 39
SWIDTH 222 0
DWIDTH 2 0
BBX 1 3 1 4
BITMAP
80
80
80
ENDCHAR
STARTCHAR 0028
ENCODING 40
SWIDTH 333 0
DWIDTH 3 0
BBX 1 10 1 -2
BITMAP
80
80
80
80
80
80
80
80
80
80
ENDCHAR
STARTCHAR 0029
ENCODING 41
SWIDTH 333 0
DWIDTH 3 0
BBX 2 10 0 -2
BITMAP
80
40
40
40
40
40
40
40
40
80
ENDCHAR
STARTCHAR 002A
ENCODING 42
SWIDTH 444 0
DWIDTH 4 0
BBX 3 3 0 5
BITMAP
40
40
A0
ENDCHAR
STARTCHAR 002B
ENCODING 43
SWIDTH 555 0
DWIDTH 5 0
BBX 5 5 0 0
BITMAP
20
20
F8
20
20
ENDCHAR
STARTCHAR 002C
ENCODING 44
SWIDTH 333 0
DWIDTH 3 0
BBX 1 2 1 -1
BITMAP
80
80
ENDCHAR
STARTCHAR 002D
ENCODING 45
SWIDTH 333 0
DWIDTH 3 0
BBX 3 1 0 2
BITMAP
E0
ENDCHAR
STARTCHAR 002E
ENCODING 46
SWIDTH 333 0
DWIDTH 3 0
BBX 1 1 1 0
BITMAP
80
ENDCHAR
STARTCHAR 002F
ENCODING 47
SWIDTH 333 0
DWIDTH 3 0
BBX 3 7 0 0
BITMAP
20
40
40
40
80
80
80
ENDCHAR
STARTCHAR 0030
ENCODING 48
SWIDTH 555 0
DWIDTH 5 0
BBX 5 7 0 0
BITMAP
70
50
88
88
88
50
70
ENDCHAR
STARTCHAR 0031
ENCODING 49
SWIDTH 555 0
DWIDTH 5 0
BBX 2 7 1 0
BITMAP
40
C0
40
40
40
40
40
ENDCHAR
STARTCHAR 0032
ENCODING 50
SWIDTH 555 0
DWIDTH 5 0
BBX 5 7 0 0
BITMAP
70
88
08
30
40
80
F8
ENDCHAR
STARTCHAR 0033
ENCODING 51
SWIDTH 555 0
DWIDTH 5 0
BBX 5 7 0 0
BITMAP
70
90
10
30
08
88
70
ENDCHAR
STARTCHAR 0034
ENCODING 52
SWIDTH 555 0
DWIDTH 5 0
BBX 5 7 0 0
BITMAP
10
30
50
90
F8
10
10
ENDCHAR
STARTCHAR 0035
ENCODING 53
SWIDTH 555 0
DWIDTH 5 0
BBX 5 7 0 0
BITMAP
70
40
70
58
08
90
70
ENDCHAR
STARTCHAR 0036
ENCODING 54
SWIDTH 555 0
DWIDTH 5 0
BBX 5 7 0 0
BITMAP
70
50
B0
C8
88
50
70
ENDCHAR
STARTCHAR 0037
ENCODING 55
SWIDTH 555 0
DWIDTH 5 0
BBX 5 7 0 0
BITMAP
F8
10
10
20
20
40
40
ENDCHAR
STARTCHAR 0038
ENCODING 56
SWIDTH 555 0
DWIDTH 5 0
BBX 5 7 0 0
BITMAP
70
90
90
70
88
88
70
ENDCHAR
STARTCHAR 0039
ENCODING 57
SWIDTH 555 0
DWIDTH 5 0
BBX 5 7 0 0
BITMAP
70
90
88
98
70
90
70
ENDCHAR
STARTCHAR 003A
ENCODING 58
SWIDTH 333 0
DWIDTH 3 0
BBX 1 6 1 0
BITMAP
80
00
00
00
00
80
ENDCHAR
STARTCHAR 003B
ENCODING 59
SWIDTH 333 0
DWIDTH 3 0
BBX 1 7 1 -1
BITMAP
80
00
00
00
00
80
80
ENDCHAR
STARTCHAR 003C
ENCODING 60
SWIDTH 555 0
DWIDTH 5 0
BBX 5 6 0 0
BITMAP
08
30
C0
C0
30
08
ENDCHAR
STARTCHAR 003D
ENCODING 61
SWIDTH 555 0
DWIDTH 5 0
BBX 5 3 0 1
BITMAP
F8
00
F8
ENDCHAR
STARTCHAR 003E
ENCODING 62
SWIDTH 555 0
DWIDTH 5 0
BBX 5 6 0 0
BITMAP
80
60
18
18
60
80
ENDCHAR
STARTCHAR 003F
ENCODING 63
SWIDTH 555 0
DWIDTH 5 0
BBX 4 7 1 0
BITMAP
E0
90
20
20
40
00
40
ENDCHAR
STARTCHAR 0040
ENCODING 64
SWIDTH 1000 0
DWIDTH 9 0
BBX 7 7 1 0
BITMAP
3C
42
BA
AA
BC
44
38
ENDCHAR
STARTCHAR 0041
ENCODING 65
SWIDTH 666 0
DWIDTH 6 0
BBX 6 6 0 0
BITMAP
30
30
48
78
48
84
ENDCHAR
STARTCHAR 0042
ENCODING 66
SWIDTH 666 0
DWIDTH 6 0
BBX 5 7 1 0
BITMAP
F0
90
90
F0
88
88
F0
ENDCHAR
STARTCHAR 0043
ENCODING 67
SWIDTH 777 0
DWIDTH 7 0
BBX 6 7 0 0
BITMAP
38
44
80
80
84
44
38
ENDCHAR
STARTCHAR 0044
ENCODING 68
SWIDTH 777 0
DWIDTH 7 0
BBX 5 7 1 0
BITMAP
F0
88
88
88
88
88
F0
ENDCHAR
STARTCHAR 0045
ENCODING 69
SWIDTH 666 0
DWIDTH 6 0
BBX 5 7 1 0
BITMAP
F0
80
80
F0
80
80
F8
ENDCHAR
STARTCHAR 0046
ENCODING 70
SWIDTH 666 0
DWIDTH 6 0
BBX 4 7 1 0
BITMAP
F0
80
80
F0
80
80
80
ENDCHAR
STARTCHAR 0047
ENCODING 71
SWIDTH 777 0
DWIDTH 7 0
BBX 6 7 0 0
BITMAP
38
44
80
9C
84
44
3C
ENDCHAR
STARTCHAR 0048
ENCODING 72
SWIDTH 777 0
DWIDTH 7 0
BBX 5 7 1 0
BITMAP
88
88
88
F8
88
88
88
ENDCHAR
STARTCHAR 0049
ENCODING 73
SWIDTH 333 0
DWIDTH 3 0
BBX 1 6 1 0
BITMAP
80
80
80
80
80
80
ENDCHAR
STARTCHAR 004A
ENCODING 74
SWIDTH 555 0
DWIDTH 5 0
BBX 4 7 0 0
BITMAP
10
10
10
10
10
90
E0
ENDCHAR
STARTCHAR 004B
ENCODING 75
SWIDTH 666 0
DWIDTH 6 0
BBX 5 7 1 0
BITMAP
90
A0
E0
E0
A0
90
88
ENDCHAR
STARTCHAR 004C
ENCODING 76
SWIDTH 555 0
DWIDTH 5 0
BBX 4 7 1 0
BITMAP
80
80
80
80
80
80
F0
ENDCHAR
STARTCHAR 004D
ENCODING 77
SWIDTH 888 0
DWIDTH 8 0
BBX 6 7 1 0
BITMAP
8C
8C
CC
D4
D4
B4
A4
ENDCHAR
STARTCHAR 004E
ENCODING 78
SWIDTH 777 0
DWIDTH 7 0
BBX 5 7 1 0
BITMAP
88
C8
C8
A8
A8
98
88
ENDCHAR
STARTCHAR 004F
ENCODING 79
SWIDTH 777 0
DWIDTH 7 0
BBX 7 7 0 0
BITMAP
38
44
82
82
82
44
38
ENDCHAR
STARTCHAR 0050
ENCODING 80
SWIDTH 666 0
DWIDTH 6 0
BBX 5 7 1 0
BITMAP
F0
88
88
F0
80
80
80
ENDCHAR
STARTCHAR 0051
ENCODING 81
SWIDTH 777 0
DWIDTH 7 0
BBX 7 7 0 0
BITMAP
38
44
82
82
82
4C
3C
ENDCHAR
STARTCHAR 0052
ENCODING 82
SWIDTH 777 0
DWIDTH 7 0
BBX 5 7 1 0
BITMAP
F0
88
88
F0
88
88
88
ENDCHAR
STARTCHAR 0053
ENCODING 83
SWIDTH 666 0
DWIDTH 6 0
BBX 6 7 0 0
BITMAP
78
48
40
78
04
8C
78
ENDCHAR
STARTCHAR 0054
ENCODING 84
SWIDTH 666 0
DWIDTH 6 0
BBX 5 7 0 0
BITMAP
F8
20
20
20
20
20
20
ENDCHAR
STARTCHAR 0055
ENCODING 85
SWIDTH 777 0
DWIDTH 7 0
BBX 5 7 1 0
BITMAP
88
88
88
88
88
88
70
ENDCHAR
STARTCHAR 0056
ENCODING 86
SWIDTH 666 0
DWIDTH 6 0
BBX 6 7 0 0
BITMAP
84
48
48
48
30
30
30
ENDCHAR
STARTCHAR 0057
ENCODING 87
SWIDTH 1000 0
DWIDTH 9 0
BBX 8 7 0 0
BITMAP
89
99
59
55
66
66
22
ENDCHAR
STARTCHAR 0058
ENCODING 88
SWIDTH 666 0
DWIDTH 6 0
BBX 5 7 1 0
BITMAP
90
90
60
60
60
90
98
ENDCHAR
STARTCHAR 0059
ENCODING 89
SWIDTH 666 0
DWIDTH 6 0
BBX 6 7 0 0
BITMAP
84
48
28
30
10
10
10
ENDCHAR
STARTCHAR 005A
ENCODING 90
SWIDTH 666 0
DWIDTH 6 0
BBX 5 7 0 0
BITMAP
F8
08
10
20
60
40
F8
ENDCHAR
STARTCHAR 005B
ENCODING 91
SWIDTH 333 0
DWIDTH 3 0
BBX 1 10 1 -2
BITMAP
80
80
80
80
80
80
80
80
80
80
ENDCHAR
STARTCHAR 005C
ENCODING 92
SWIDTH 333 0
DWIDTH 3 0
BBX 3 7 0 0
BITMAP
80
80
80
40
40
40
20
ENDCHAR
STARTCHAR 005D
ENCODING 93
SWIDTH 333 0
DWIDTH 3 0
BBX 2 10 0 -2
BITMAP
C0
40
40
40
40
40
40
40
40
C0
ENDCHAR
STARTCHAR 005E
ENCODING 94
SWIDTH 444 0
DWIDTH 4 0
BBX 3 3 1 3
BITMAP
C0
A0
A0
ENDCHAR
STARTCHAR 005F
ENCODING 95
SWIDTH 555 0
DWIDTH 5 0
BBX 5 1 0 -1
BITMAP
F8
ENDCHAR
STARTCHAR 0060
ENCODING 96
SWIDTH 333 0
DWIDTH 3 0
BBX 2 2 0 5
BITMAP
80
40
ENDCHAR
STARTCHAR 0061
ENCODING 97
SWIDTH 555 0
DWIDTH 5 0
BBX 5 6 0 0
BITMAP
70
90
10
70
90
68
ENDCHAR
STARTCHAR 0062
ENCODING 98
SWIDTH 555 0
DWIDTH 5 0
BBX 4 7 1 0
BITMAP
80
E0
A0
90
90
A0
E0
ENDCHAR
STARTCHAR 0063
ENCODING 99
SWIDTH 555 0
DWIDTH 5 0
BBX 4 6 0 0
BITMAP
70
90
80
80
90
70
ENDCHAR
STARTCHAR 0064
ENCODING 100
SWIDTH 555 0
DWIDTH 5 0
BBX 4 7 0 0
BITMAP
10
70
90
90
90
90
70
ENDCHAR
STARTCHAR 0065
ENCODING 101
SWIDTH 555 0
DWIDTH 5 0
BBX 5 6 0 0
BITMAP
70
88
F8
80
50
70
ENDCHAR
STARTCHAR 0066
ENCODING 102
SWIDTH 333 0
DWIDTH 3 0
BBX 2 7 0 0
BITMAP
40
C0
40
40
40
40
40
ENDCHAR
STARTCHAR 0067
ENCODING 103
SWIDTH 555 0
DWIDTH 5 0
BBX 4 8 0 -2
BITMAP
70
90
90
90
90
70
10
70
ENDCHAR
STARTCHAR 0068
ENCODING 104
SWIDTH 555 0
DWIDTH 5 0
BBX 3 7 1 0
BITMAP
80
E0
A0
A0
A0
A0
A0
ENDCHAR
STARTCHAR 0069
ENCODING 105
SWIDTH 222 0
DWIDTH 2 0
BBX 1 7 0 0
BITMAP
80
80
80
80
80
80
80
ENDCHAR
STARTCHAR 006A
ENCODING 106
SWIDTH 222 0
DWIDTH 2 0
BBX 1 9 0 -2
BITMAP
80
00
00
80
80
80
80
80
80
ENDCHAR
STARTCHAR 006B
ENCODING 107
SWIDTH 555 0
DWIDTH 5 0
BBX 3 7 1 0
BITMAP
80
A0
C0
C0
C0
A0
A0
ENDCHAR
STARTCHAR 006C
ENCODING 108
SWIDTH 222 0
DWIDTH 2 0
BBX 1 7 1 0
BITMAP
80
80
80
80
80
80
80
ENDCHAR
STARTCHAR 006D
ENCODING 109
SWIDTH 888 0
DWIDTH 8 0
BBX 6 6 1 0
BITMAP
FC
A4
A4
A4
A4
A4
ENDCHAR
STARTCHAR 006E
ENCODING 110
SWIDTH 555 0
DWIDTH 5 0
BBX 3 6 1 0
BITMAP
E0
A0
A0
A0
A0
A0
ENDCHAR
STARTCHAR 006F
ENCODING 111
SWIDTH 555 0
DWIDTH 5 0
BBX 5 6 0 0
BITMAP
70
90
88
88
90
70
ENDCHAR
STARTCHAR 0070
ENCODING 112
SWIDTH 555 0
DWIDTH 5 0
BBX 4 8 1 -2
BITMAP
E0
A0
90
90
A0
E0
80
80
ENDCHAR
STARTCHAR 0071
ENCODING 113
SWIDTH 555 0
DWIDTH 5 0
BBX 4 8 0 -2
BITMAP
70
90
90
90
90
70
10
10
ENDCHAR
STARTCHAR 0072
ENCODING 114
SWIDTH 333 0
DWIDTH 3 0
BBX 2 6 1 0
BITMAP
C0
80
80
80
80
80
ENDCHAR
STARTCHAR 0073
ENCODING 115
SWIDTH 555 0
DWIDTH 5 0
BBX 4 6 0 0
BITMAP
70
80
40
30
90
70
ENDCHAR
STARTCHAR 0074
ENCODING 116
SWIDTH 333 0
DWIDTH 3 0
BBX 2 7 0 0
BITMAP
40
C0
40
40
40
40
40
ENDCHAR
STARTCHAR 0075
ENCODING 117
SWIDTH 555 0
DWIDTH 5 0
BBX 3 6 1 0
BITMAP
A0
A0
A0
A0
A0
E0
ENDCHAR
STARTCHAR 0076
ENCODING 118
SWIDTH 555 0
DWIDTH 5 0
BBX 4 6 0 0
BITMAP
90
90
50
60
60
20
ENDCHAR
STARTCHAR 0077
ENCODING 119
SWIDTH 777 0
DWIDTH 7 0
BBX 6 6 0 0
BITMAP
94
B4
B4
74
68
48
ENDCHAR
STARTCHAR 0078
ENCODING 120
SWIDTH 555 0
DWIDTH 5 0
BBX 4 6 0 0
BITMAP
90
60
60
60
50
90
ENDCHAR
STARTCHAR 0079
ENCODING 121
SWIDTH 555 0
DWIDTH 5 0
BBX 4 8 0 -2
BITMAP
90
90
50
60
60
20
20
40
ENDCHAR
STARTCHAR 007A
ENCODING 122
SWIDTH 555 0
DWIDTH 5 0
BBX 4 6 0 0
BITMAP
F0
10
20
40
40
F0
ENDCHAR
STARTCHAR 007B
ENCODING 123
SWIDTH 333 0
DWIDTH 3 0
BBX 3 9 0 -2
BITMAP
60
40
40
40
80
40
40
40
60
ENDCHAR
STARTCHAR 007C
ENCODING 124
SWIDTH 222 0
DWIDTH 2 0
BBX 1 7 1 0
BITMAP
80
80
80
80
80
80
80
ENDCHAR
STARTCHAR 007D
ENCODING 125
SWIDTH 333 0
DWIDTH 3 0
BBX 3 9 0 -2
BITMAP
80
40
40
40
20
40
40
40
80
ENDCHAR
STARTCHAR 007E
ENCODING 126
SWIDTH 555 0
DWIDTH 5 0
BBX 5 2 0 1
BITMAP
68
98
ENDCHAR
STARTCHAR 00A0
ENCODING 160
SWIDTH 333 0
DWIDTH 3 0
BBX 0 0 0 0
BITMAP
ENDCHAR
STARTCHAR 00A1
ENCODING 161
SWIDTH 333 0
DWIDTH 3 0
BBX 1 7 1 -1
BITMAP
80
00
80
80
80
80
80
ENDCHAR
STARTCHAR 00A2
ENCODING 162
SWIDTH 555 0
DWIDTH 5 0
BBX 4 7 0 -1
BITMAP
10
70
70
A0
A0
50
70
ENDCHAR
STARTCHAR 00A3
ENCODING 163
SWIDTH 555 0
DWIDTH 5 0
BBX 5 7 0 0
BITMAP
70
88
40
E0
40
40
78
ENDCHAR
STARTCHAR 00A4
ENCODING 164
SWIDTH 555 0
DWIDTH 5 0
BBX 4 4 0 1
BITMAP
F0
90
90
F0
ENDCHAR
STARTCHAR 00A5
ENCODING 165
SWIDTH 555 0
DWIDTH 5 0
BBX 5 7 0 0
BITMAP
88
50
D8
20
F8
20
20
ENDCHAR
STARTCHAR 00A6
ENCODING 166
SWIDTH 222 0
DWIDTH 2 0
BBX 1 7 1 0
BITMAP
80
80
80
00
80
80
80
ENDCHAR
STARTCHAR 00A7
ENCODING 167
SWIDTH 555 0
DWIDTH 5 0
BBX 5 9 0 -2
BITMAP
70
50
40
B0
88
70
10
50
70
ENDCHAR
STARTCHAR 00A8
ENCODING 168
SWIDTH 333 0
DWIDTH 3 0
BBX 3 1 0 5
BITMAP
A0
ENDCHAR
STARTCHAR 00A9
ENCODING 169
SWIDTH 777 0
DWIDTH 7 0
BBX 7 7 0 0
BITMAP
38
74
AC
C2
A4
7C
38
ENDCHAR
STARTCHAR 00AA
ENCODING 170
SWIDTH 333 0
DWIDTH 3 0
BBX 3 3 0 4
BITMAP
60
60
E0
ENDCHAR
STARTCHAR 00AB
ENCODING 171
SWIDTH 555 0
DWIDTH 5 0
BBX 3 2 1 1
BITMAP
A0
A0
ENDCHAR
STARTCHAR 00AC
ENCODING 172
SWIDTH 555 0
DWIDTH 5 0
BBX 5 3 0 1
BITMAP
F8
08
08
ENDCHAR
STARTCHAR 00AD
ENCODING 173
SWIDTH 333 0
DWIDTH 3 0
BBX 3 1 0 2
BITMAP
E0
ENDCHAR
STARTCHAR 00AE
ENCODING 174
SWIDTH 777 0
DWIDTH 7 0
BBX 7 7 0 0
BITMAP
38
7C
AC
B2
AC
6C
38
ENDCHAR
STARTCHAR 00AF
ENCODING 175
SWIDTH 333 0
DWIDTH 3 0
BBX 3 1 0 5
BITMAP
E0
ENDCHAR
STARTCHAR 00B0
ENCODING 176
SWIDTH 444 0
DWIDTH 4 0
BBX 3 3 0 4
BITMAP
60
A0
60
ENDCHAR
STARTCHAR 00B1
ENCODING 177
SWIDTH 555 0
DWIDTH 5 0
BBX 5 4 0 0
BITMAP
20
F8
20
F8
ENDCHAR
STARTCHAR 00B2
ENCODING 178
SWIDTH 333 0
DWIDTH 3 0
BBX 3 4 0 3
BITMAP
E0
20
C0
E0
ENDCHAR
STARTCHAR 00B3
ENCODING 179
SWIDTH 333 0
DWIDTH 3 0
BBX 3 4 0 3
BITMAP
C0
20
60
E0
ENDCHAR
STARTCHAR 00B4
ENCODING 180
SWIDTH 333 0
DWIDTH 3 0
BBX 1 2 1 5
BITMAP
80
80
ENDCHAR
STARTCHAR 00B5
ENCODING 181
SWIDTH 555 0
DWIDTH 5 0
BBX 5 8 0 -2
BITMAP
48
48
50
90
90
F0
80
80
ENDCHAR
STARTCHAR 00B6
ENCODING 182
SWIDTH 555 0
DWIDTH 5 0
BBX 5 9 0 -2
BITMAP
78
D0
D0
50
50
50
50
50
50
ENDCHAR
STARTCHAR 00B7
ENCODING 183
SWIDTH 333 0
DWIDTH 3 0
BBX 1 1 1 3
BITMAP
80
ENDCHAR
STARTCHAR 00B8
ENCODING 184
SWIDTH 333 0
DWIDTH 3 0
BBX 1 1 1 -2
BITMAP
80
ENDCHAR
STARTCHAR 00B9
ENCODING 185
SWIDTH 333 0
DWIDTH 3 0
BBX 2 4 0 3
BITMAP
40
C0
40
40
ENDCHAR
STARTCHAR 00BA
ENCODING 186
SWIDTH 333 0
DWIDTH 3 0
BBX 3 3 0 4
BITMAP
60
A0
60
ENDCHAR
STARTCHAR 00BB
ENCODING 187
SWIDTH 555 0
DWIDTH 5 0
BBX 3 2 1 1
BITMAP
A0
A0
ENDCHAR
STARTCHAR 00BC
ENCODING 188
SWIDTH 888 0
DWIDTH 8 0
BBX 6 7 1 0
BITMAP
88
90
90
A4
3C
5C
44
ENDCHAR
STARTCHAR 00BD
ENCODING 189
SWIDTH 888 0
DWIDTH 8 0
BBX 7 7 0 0
BITMAP
48
C8
50
5E
22
24
4E
ENDCHAR
STARTCHAR 00BE
ENCODING 190
SWIDTH 888 0
DWIDTH 8 0
BBX 7 7 0 0
BITMAP
64
24
68
F2
1E
2E
22
ENDCHAR
STARTCHAR 00BF
ENCODING 191
SWIDTH 666 0
DWIDTH 6 0
BBX 4 7 1 -1
BITMAP
40
00
40
40
80
90
E0
ENDCHAR
STARTCHAR 00C0
ENCODING 192
SWIDTH 666 0
DWIDTH 6 0
BBX 6 9 0 0
BITMAP
20
20
00
30
30
48
78
48
84
ENDCHAR
STARTCHAR 00C1
ENCODING 193
SWIDTH 666 0
DWIDTH 6 0
BBX 6 9 0 0
BITMAP
10
20
00
30
30
48
78
48
84
ENDCHAR
STARTCHAR 00C2
ENCODING 194
SWIDTH 666 0
DWIDTH 6 0
BBX 6 9 0 0
BITMAP
10
30
00
30
30
48
78
48
84
ENDCHAR
STARTCHAR 00C3
ENCODING 195
SWIDTH 666 0
DWIDTH 6 0
BBX 6 9 0 0
BITMAP
20
58
00
30
30
48
78
48
84
ENDCHAR
STARTCHAR 00C4
ENCODING 196
SWIDTH 666 0
DWIDTH 6 0
BBX 6 8 0 0
BITMAP
30
00
30
30
48
78
48
84
ENDCHAR
STARTCHAR 00C5
ENCODING 197
SWIDTH 666 0
DWIDTH 6 0
BBX 6 8 0 0
BITMAP
30
00
30
30
48
78
48
84
ENDCHAR
STARTCHAR 00C6
ENCODING 198
SWIDTH 1000 0
DWIDTH 9 0
BBX 9 7 0 0
BITMAP
1F00
2800
2800
4F00
7800
4800
8F80
ENDCHAR
STARTCHAR 00C7
ENCODING 199
SWIDTH 777 0
DWIDTH 7 0
BBX 6 9 0 -2
BITMAP
38
44
80
80
84
44
38
10
30
ENDCHAR
STARTCHAR 00C8
ENCODING 200
SWIDTH 666 0
DWIDTH 6 0
BBX 5 9 1 0
BITMAP
40
40
F0
80
80
F0
80
80
F8
ENDCHAR
STARTCHAR 00C9
ENCODING 201
SWIDTH 666 0
DWIDTH 6 0
BBX 5 9 1 0
BITMAP
20
40
F0
80
80
F0
80
80
F8
ENDCHAR
STARTCHAR 00CA
ENCODING 202
SWIDTH 666 0
DWIDTH 6 0
BBX 5 9 1 0
BITMAP
20
60
F0
80
80
F0
80
80
F8
ENDCHAR
STARTCHAR 00CB
ENCODING 203
SWIDTH 666 0
DWIDTH 6 0
BBX 5 8 1 0
BITMAP
40
F0
80
80
F0
80
80
F8
ENDCHAR
STARTCHAR 00CC
ENCODING 204
SWIDTH 333 0
DWIDTH 3 0
BBX 2 8 0 0
BITMAP
80
00
40
40
40
40
40
40
ENDCHAR
STARTCHAR 00CD
ENCODING 205
SWIDTH 333 0
DWIDTH 3 0
BBX 1 8 1 0
BITMAP
80
00
80
80
80
80
80
80
ENDCHAR
STARTCHAR 00CE
ENCODING 206
SWIDTH 333 0
DWIDTH 3 0
BBX 2 8 0 0
BITMAP
C0
00
40
40
40
40
40
40
ENDCHAR
STARTCHAR 00CF
ENCODING 207
SWIDTH 333 0
DWIDTH 3 0
BBX 2 8 0 0
BITMAP
C0
00
40
40
40
40
40
40
ENDCHAR
STARTCHAR 00D0
ENCODING 208
SWIDTH 777 0
DWIDTH 7 0
BBX 6 7 0 0
BITMAP
78
44
44
E4
44
44
78
ENDCHAR
STARTCHAR 00D1
ENCODING 209
SWIDTH 777 0
DWIDTH 7 0
BBX 5 9 1 0
BITMAP
40
B0
88
C8
C8
A8
A8
98
88
ENDCHAR
STARTCHAR 00D2
ENCODING 210
SWIDTH 777 0
DWIDTH 7 0
BBX 7 9 0 0
BITMAP
20
10
38
44
82
82
82
44
38
ENDCHAR
STARTCHAR 00D3
ENCODING 211
SWIDTH 777 0
DWIDTH 7 0
BBX 7 9 0 0
BITMAP
10
10
38
44
82
82
82
44
38
ENDCHAR
STARTCHAR 00D4
ENCODING 212
SWIDTH 777 0
DWIDTH 7 0
BBX 7 9 0 0
BITMAP
10
28
38
44
82
82
82
44
38
ENDCHAR
STARTCHAR 00D5
ENCODING 213
SWIDTH 777 0
DWIDTH 7 0
BBX 7 9 0 0
BITMAP
30
38
38
44
82
82
82
44
38
ENDCHAR
STARTCHAR 00D6
ENCODING 214
SWIDTH 777 0
DWIDTH 7 0
BBX 7 8 0 0
BITMAP
28
38
44
82
82
82
44
38
ENDCHAR
STARTCHAR 00D7
ENCODING 215
SWIDTH 555 0
DWIDTH 5 0
BBX 3 3 1 1
BITMAP
A0
40
A0
ENDCHAR
STARTCHAR 00D8
ENCODING 216
SWIDTH 777 0
DWIDTH 7 0
BBX 7 7 0 0
BITMAP
3C
44
8A
92
A2
44
B8
ENDCHAR
STARTCHAR 00D9
ENCODING 217
SWIDTH 777 0
DWIDTH 7 0
BBX 5 9 1 0
BITMAP
40
20
88
88
88
88
88
88
70
ENDCHAR
STARTCHAR 00DA
ENCODING 218
SWIDTH 777 0
DWIDTH 7 0
BBX 5 9 1 0
BITMAP
20
20
88
88
88
88
88
88
70
ENDCHAR
STARTCHAR 00DB
ENCODING 219
SWIDTH 777 0
DWIDTH 7 0
BBX 5 9 1 0
BITMAP
20
60
88
88
88
88
88
88
70
ENDCHAR
STARTCHAR 00DC
ENCODING 220
SWIDTH 777 0
DWIDTH 7 0
BBX 5 8 1 0
BITMAP
50
88
88
88
88
88
88
70
ENDCHAR
STARTCHAR 00DD
ENCODING 221
SWIDTH 666 0
DWIDTH 6 0
BBX 6 9 0 0
BITMAP
10
20
84
48
28
30
10
10
10
ENDCHAR
STARTCHAR 00DE
ENCODING 222
SWIDTH 666 0
DWIDTH 6 0
BBX 4 7 1 0
BITMAP
80
F0
90
90
F0
80
80
ENDCHAR
STARTCHAR 00DF
ENCODING 223
SWIDTH 666 0
DWIDTH 6 0
BBX 4 7 1 0
BITMAP
E0
90
A0
E0
90
90
E0
ENDCHAR
STARTCHAR 00E0
ENCODING 224
SWIDTH 555 0
DWIDTH 5 0
BBX 5 7 0 0
BITMAP
40
70
90
10
70
90
68
ENDCHAR
STARTCHAR 00E1
ENCODING 225
SWIDTH 555 0
DWIDTH 5 0
BBX 5 7 0 0
BITMAP
20
70
90
10
70
90
68
ENDCHAR
STARTCHAR 00E2
ENCODING 226
SWIDTH 555 0
DWIDTH 5 0
BBX 5 7 0 0
BITMAP
20
70
90
10
70
90
68
ENDCHAR
STARTCHAR 00E3
ENCODING 227
SWIDTH 555 0
DWIDTH 5 0
BBX 5 7 0 0
BITMAP
60
70
90
10
70
90
68
ENDCHAR
STARTCHAR 00E4
ENCODING 228
SWIDTH 555 0
DWIDTH 5 0
BBX 5 6 0 0
BITMAP
70
90
10
70
90
68
ENDCHAR
STARTCHAR 00E5
ENCODING 229
SWIDTH 555 0
DWIDTH 5 0
BBX 5 7 0 0
BITMAP
20
70
90
10
70
90
68
ENDCHAR
STARTCHAR 00E6
ENCODING 230
SWIDTH 888 0
DWIDTH 8 0
BBX 8 6 0 0
BITMAP
7E
99
7F
90
92
6E
ENDCHAR
STARTCHAR 00E7
ENCODING 231
SWIDTH 555 0
DWIDTH 5 0
BBX 4 8 0 -2
BITMAP
70
90
80
80
90
70
20
60
ENDCHAR
STARTCHAR 00E8
ENCODING 232
SWIDTH 555 0
DWIDTH 5 0
BBX 5 7 0 0
BITMAP
40
70
88
F8
80
50
70
ENDCHAR
STARTCHAR 00E9
ENCODING 233
SWIDTH 555 0
DWIDTH 5 0
BBX 5 7 0 0
BITMAP
20
70
88
F8
80
50
70
ENDCHAR
STARTCHAR 00EA
ENCODING 234
SWIDTH 555 0
DWIDTH 5 0
BBX 5 7 0 0
BITMAP
20
70
88
F8
80
50
70
ENDCHAR
STARTCHAR 00EB
ENCODING 235
SWIDTH 555 0
DWIDTH 5 0
BBX 5 6 0 0
BITMAP
70
88
F8
80
50
70
ENDCHAR
STARTCHAR 00EC
ENCODING 236
SWIDTH 333 0
DWIDTH 3 0
BBX 2 7 0 0
BITMAP
80
40
40
40
40
40
40
ENDCHAR
STARTCHAR 00ED
ENCODING 237
SWIDTH 333 0
DWIDTH 3 0
BBX 1 7 1 0
BITMAP
80
80
80
80
80
80
80
ENDCHAR
STARTCHAR 00EE
ENCODING 238
SWIDTH 333 0
DWIDTH 3 0
BBX 2 7 0 0
BITMAP
40
C0
40
40
40
40
40
ENDCHAR
STARTCHAR 00EF
ENCODING 239
SWIDTH 333 0
DWIDTH 3 0
BBX 2 6 0 0
BITMAP
C0
40
40
40
40
40
ENDCHAR
STARTCHAR 00F0
ENCODING 240
SWIDTH 555 0
DWIDTH 5 0
BBX 5 7 0 0
BITMAP
20
70
D0
88
88
90
70
ENDCHAR
STARTCHAR 00F1
ENCODING 241
SWIDTH 555 0
DWIDTH 5 0
BBX 3 7 1 0
BITMAP
C0
E0
A0
A0
A0
A0
A0
ENDCHAR
STARTCHAR 00F2
ENCODING 242
SWIDTH 555 0
DWIDTH 5 0
BBX 5 7 0 0
BITMAP
40
70
90
88
88
90
70
ENDCHAR
STARTCHAR 00F3
ENCODING 243
SWIDTH 555 0
DWIDTH 5 0
BBX 5 7 0 0
BITMAP
20
70
90
88
88
90
70
ENDCHAR
STARTCHAR 00F4
ENCODING 244
SWIDTH 555 0
DWIDTH 5 0
BBX 5 7 0 0
BITMAP
20
70
90
88
88
90
70
ENDCHAR
STARTCHAR 00F5
ENCODING 245
SWIDTH 555 0
DWIDTH 5 0
BBX 5 7 0 0
BITMAP
60
70
90
88
88
90
70
ENDCHAR
STARTCHAR 00F6
ENCODING 246
SWIDTH 555 0
DWIDTH 5 0
BBX 5 6 0 0
BITMAP
70
90
88
88
90
70
ENDCHAR
STARTCHAR 00F7
ENCODING 247
SWIDTH 555 0
DWIDTH 5 0
BBX 5 5 0 0
BITMAP
20
00
F8
00
20
ENDCHAR
STARTCHAR 00F8
ENCODING 248
SWIDTH 666 0
DWIDTH 6 0
BBX 5 6 0 0
BITMAP
78
48
B8
A8
48
F0
ENDCHAR
STARTCHAR 00F9
ENCODING 249
SWIDTH 555 0
DWIDTH 5 0
BBX 3 7 1 0
BITMAP
80
E0
A0
A0
A0
A0
E0
ENDCHAR
STARTCHAR 00FA
ENCODING 250
SWIDTH 555 0
DWIDTH 5 0
BBX 3 7 1 0
BITMAP
40
E0
A0
A0
A0
A0
E0
ENDCHAR
STARTCHAR 00FB
ENCODING 251
SWIDTH 555 0
DWIDTH 5 0
BBX 3 7 1 0
BITMAP
40
A0
A0
A0
A0
A0
E0
ENDCHAR
STARTCHAR 00FC
ENCODING 252
SWIDTH 555 0
DWIDTH 5 0
BBX 3 6 1 0
BITMAP
A0
A0
A0
A0
A0
E0
ENDCHAR
STARTCHAR 00FD
ENCODING 253
SWIDTH 555 0
DWIDTH 5 0
BBX 4 9 0 -2
BITMAP
20
D0
90
50
60
60
20
20
40
ENDCHAR
STARTCHAR 00FE
ENCODING 254
SWIDTH 555 0
DWIDTH 5 0
BBX 4 9 1 -2
BITMAP
80
E0
A0
90
90
A0
E0
80
80
ENDCHAR
STARTCHAR 00FF
ENCODING 255
SWIDTH 555 0
DWIDTH 5 0
BBX 4 8 0 -2
BITMAP
D0
90
50
60
60
20
20
40
ENDCHAR
STARTCHAR 0100
ENCODING 256
SWIDTH 666 0
DWIDTH 6 0
BBX 6 7 0 0
BITMAP
30
30
30
48
78
48
84
ENDCHAR
STARTCHAR 0101
ENCODING 257
SWIDTH 555 0
DWIDTH 5 0
BBX 5 6 0 0
BITMAP
70
90
10
70
90
68
ENDCHAR
STARTCHAR 0102
ENCODING 258
SWIDTH 666 0
DWIDTH 6 0
BBX 6 8 0 0
BITMAP
30
00
30
30
48
78
48
84
ENDCHAR
STARTCHAR 0103
ENCODING 259
SWIDTH 555 0
DWIDTH 5 0
BBX 5 6 0 0
BITMAP
70
70
10
70
90
68
ENDCHAR
STARTCHAR 0104
ENCODING 260
SWIDTH 666 0
DWIDTH 6 0
BBX 6 8 0 -2
BITMAP
30
30
48
78
48
84
08
0C
ENDCHAR
STARTCHAR 0105
ENCODING 261
SWIDTH 555 0
DWIDTH 5 0
BBX 5 8 0 -2
BITMAP
70
90
10
70
90
68
10
18
ENDCHAR
STARTCHAR 0106
ENCODING 262
SWIDTH 777 0
DWIDTH 7 0
BBX 6 9 0 0
BITMAP
10
10
38
44
80
80
84
44
38
ENDCHAR
STARTCHAR 0107
ENCODING 263
SWIDTH 555 0
DWIDTH 5 0
BBX 4 7 0 0
BITMAP
20
70
90
80
80
90
70
ENDCHAR
STARTCHAR 0108
ENCODING 264
SWIDTH 777 0
DWIDTH 7 0
BBX 6 9 0 0
BITMAP
10
28
38
44
80
80
84
44
38
ENDCHAR
STARTCHAR 0109
ENCODING 265
SWIDTH 555 0
DWIDTH 5 0
BBX 4 7 0 0
BITMAP
20
70
90
80
80
90
70
ENDCHAR
STARTCHAR 010A
ENCODING 266
SWIDTH 777 0
DWIDTH 7 0
BBX 6 8 0 0
BITMAP
10
38
44
80
80
84
44
38
ENDCHAR
STARTCHAR 010B
ENCODING 267
SWIDTH 555 0
DWIDTH 5 0
BBX 4 6 0 0
BITMAP
70
90
80
80
90
70
ENDCHAR
STARTCHAR 010C
ENCODING 268
SWIDTH 777 0
DWIDTH 7 0
BBX 6 9 0 0
BITMAP
28
10
38
44
80
80
84
44
38
ENDCHAR
STARTCHAR 010D
ENCODING 269
SWIDTH 555 0
DWIDTH 5 0
BBX 4 7 0 0
BITMAP
60
70
90
80
80
90
70
ENDCHAR
STARTCHAR 010E
ENCODING 270
SWIDTH 777 0
DWIDTH 7 0
BBX 5 9 1 0
BITMAP
60
20
F0
88
88
88
88
88
F0
ENDCHAR
STARTCHAR 010F
ENCODING 271
SWIDTH 666 0
DWIDTH 6 0
BBX 6 8 0 0
BITMAP
04
04
10
70
90
90
90
60
ENDCHAR
STARTCHAR 0110
ENCODING 272
SWIDTH 777 0
DWIDTH 7 0
BBX 6 7 0 0
BITMAP
78
44
44
E4
44
44
78
ENDCHAR
STARTCHAR 0111
ENCODING 273
SWIDTH 555 0
DWIDTH 5 0
BBX 5 7 0 0
BITMAP
38
70
90
90
90
90
70
ENDCHAR
STARTCHAR 0112
ENCODING 274
SWIDTH 666 0
DWIDTH 6 0
BBX 5 7 1 0
BITMAP
F0
80
80
F0
80
80
F8
ENDCHAR
STARTCHAR 0113
ENCODING 275
SWIDTH 555 0
DWIDTH 5 0
BBX 5 6 0 0
BITMAP
70
88
F8
80
50
70
ENDCHAR
STARTCHAR 0114
ENCODING 276
SWIDTH 666 0
DWIDTH 6 0
BBX 5 8 1 0
BITMAP
60
F0
80
80
F0
80
80
F8
ENDCHAR
STARTCHAR 0115
ENCODING 277
SWIDTH 555 0
DWIDTH 5 0
BBX 5 6 0 0
BITMAP
70
70
90
F8
80
70
ENDCHAR
STARTCHAR 0116
ENCODING 278
SWIDTH 666 0
DWIDTH 6 0
BBX 5 8 1 0
BITMAP
20
F0
80
80
F0
80
80
F8
ENDCHAR
STARTCHAR 0117
ENCODING 279
SWIDTH 555 0
DWIDTH 5 0
BBX 5 6 0 0
BITMAP
70
88
F8
80
50
70
ENDCHAR
STARTCHAR 0118
ENCODING 280
SWIDTH 666 0
DWIDTH 6 0
BBX 5 9 1 -2
BITMAP
F0
80
80
F0
80
80
F8
20
20
ENDCHAR
STARTCHAR 0119
ENCODING 281
SWIDTH 555 0
DWIDTH 5 0
BBX 5 8 0 -2
BITMAP
70
88
F8
80
50
70
40
20
ENDCHAR
STARTCHAR 011A
ENCODING 282
SWIDTH 666 0
DWIDTH 6 0
BBX 5 9 1 0
BITMAP
60
60
F0
80
80
F0
80
80
F8
ENDCHAR
STARTCHAR 011B
ENCODING 283
SWIDTH 555 0
DWIDTH 5 0
BBX 5 7 0 0
BITMAP
50
70
88
F8
80
50
70
ENDCHAR
STARTCHAR 011C
ENCODING 284
SWIDTH 777 0
DWIDTH 7 0
BBX 6 9 0 0
BITMAP
10
28
38
44
80
9C
84
44
3C
ENDCHAR
STARTCHAR 011D
ENCODING 285
SWIDTH 555 0
DWIDTH 5 0
BBX 4 9 0 -2
BITMAP
20
70
90
90
90
90
70
10
70
ENDCHAR
STARTCHAR 011E
ENCODING 286
SWIDTH 777 0
DWIDTH 7 0
BBX 6 8 0 0
BITMAP
38
38
44
80
9C
84
44
38
ENDCHAR
STARTCHAR 011F
ENCODING 287
SWIDTH 555 0
DWIDTH 5 0
BBX 4 8 0 -2
BITMAP
70
60
90
90
90
70
10
70
ENDCHAR
STARTCHAR 0120
ENCODING 288
SWIDTH 777 0
DWIDTH 7 0
BBX 6 8 0 0
BITMAP
10
38
44
80
9C
84
44
3C
ENDCHAR
STARTCHAR 0121
ENCODING 289
SWIDTH 555 0
DWIDTH 5 0
BBX 4 8 0 -2
BITMAP
70
90
90
90
90
70
10
70
ENDCHAR
STARTCHAR 0122
ENCODING 290
SWIDTH 777 0
DWIDTH 7 0
BBX 6 10 0 -3
BITMAP
38
44
80
9C
84
44
3C
00
10
10
ENDCHAR
STARTCHAR 0123
ENCODING 291
SWIDTH 555 0
DWIDTH 5 0
BBX 4 9 0 -2
BITMAP
20
70
90
90
90
90
70
10
70
ENDCHAR
STARTCHAR 0124
ENCODING 292
SWIDTH 777 0
DWIDTH 7 0
BBX 5 8 1 0
BITMAP
20
E8
88
88
F8
88
88
88
ENDCHAR
STARTCHAR 0125
ENCODING 293
SWIDTH 555 0
DWIDTH 5 0
BBX 3 9 1 0
BITMAP
60
60
80
E0
A0
A0
A0
A0
A0
ENDCHAR
STARTCHAR 0126
ENCODING 294
SWIDTH 777 0
DWIDTH 7 0
BBX 6 6 0 0
BITMAP
FC
44
7C
44
44
44
ENDCHAR
STARTCHAR 0127
ENCODING 295
SWIDTH 555 0
DWIDTH 5 0
BBX 4 7 0 0
BITMAP
80
F0
50
90
90
90
90
ENDCHAR
STARTCHAR 0128
ENCODING 296
SWIDTH 444 0
DWIDTH 4 0
BBX 2 8 1 0
BITMAP
C0
00
80
80
80
80
80
80
ENDCHAR
STARTCHAR 0129
ENCODING 297
SWIDTH 444 0
DWIDTH 4 0
BBX 3 7 0 0
BITMAP
40
E0
40
40
40
40
40
ENDCHAR
STARTCHAR 012A
ENCODING 298
SWIDTH 444 0
DWIDTH 4 0
BBX 3 8 0 0
BITMAP
E0
00
40
40
40
40
40
40
ENDCHAR
STARTCHAR 012B
ENCODING 299
SWIDTH 444 0
DWIDTH 4 0
BBX 3 6 0 0
BITMAP
E0
40
40
40
40
40
ENDCHAR
STARTCHAR 012C
ENCODING 300
SWIDTH 333 0
DWIDTH 3 0
BBX 3 8 0 0
BITMAP
E0
00
40
40
40
40
40
40
ENDCHAR
STARTCHAR 012D
ENCODING 301
SWIDTH 333 0
DWIDTH 3 0
BBX 3 6 0 0
BITMAP
E0
40
40
40
40
40
ENDCHAR
STARTCHAR 012E
ENCODING 302
SWIDTH 333 0
DWIDTH 3 0
BBX 2 8 0 -2
BITMAP
40
40
40
40
40
40
80
C0
ENDCHAR
STARTCHAR 012F
ENCODING 303
SWIDTH 222 0
DWIDTH 2 0
BBX 1 9 0 -2
BITMAP
80
80
80
80
80
80
80
80
80
ENDCHAR
STARTCHAR 0130
ENCODING 304
SWIDTH 333 0
DWIDTH 3 0
BBX 1 8 1 0
BITMAP
80
00
80
80
80
80
80
80
ENDCHAR
STARTCHAR 0131
ENCODING 305
SWIDTH 333 0
DWIDTH 3 0
BBX 1 6 1 0
BITMAP
80
80
80
80
80
80
ENDCHAR
STARTCHAR 0132
ENCODING 306
SWIDTH 777 0
DWIDTH 7 0
BBX 5 6 1 0
BITMAP
88
88
88
88
A8
B8
ENDCHAR
STARTCHAR 0133
ENCODING 307
SWIDTH 444 0
DWIDTH 4 0
BBX 2 9 1 -2
BITMAP
C0
80
80
C0
C0
C0
C0
40
40
ENDCHAR
STARTCHAR 0134
ENCODING 308
SWIDTH 555 0
DWIDTH 5 0
BBX 5 8 0 0
BITMAP
10
38
10
10
10
10
90
E0
ENDCHAR
STARTCHAR 0135
ENCODING 309
SWIDTH 222 0
DWIDTH 2 0
BBX 2 9 0 -2
BITMAP
C0
C0
80
80
80
80
80
80
80
ENDCHAR
STARTCHAR 0136
ENCODING 310
SWIDTH 666 0
DWIDTH 6 0
BBX 5 9 1 -2
BITMAP
90
A0
E0
E0
A0
90
88
40
40
ENDCHAR
STARTCHAR 0137
ENCODING 311
SWIDTH 555 0
DWIDTH 5 0
BBX 3 9 1 -2
BITMAP
80
A0
C0
C0
C0
A0
A0
40
40
ENDCHAR
STARTCHAR 0138
ENCODING 312
SWIDTH 555 0
DWIDTH 5 0
BBX 3 5 1 0
BITMAP
A0
C0
C0
A0
A0
ENDCHAR
STARTCHAR 0139
ENCODING 313
SWIDTH 555 0
DWIDTH 5 0
BBX 4 8 1 0
BITMAP
80
80
80
80
80
80
80
F0
ENDCHAR
STARTCHAR 013A
ENCODING 314
SWIDTH 222 0
DWIDTH 2 0
BBX 1 8 1 0
BITMAP
80
80
80
80
80
80
80
80
ENDCHAR
STARTCHAR 013B
ENCODING 315
SWIDTH 555 0
DWIDTH 5 0
BBX 4 9 1 -2
BITMAP
80
80
80
80
80
80
F0
40
40
ENDCHAR
STARTCHAR 013C
ENCODING 316
SWIDTH 222 0
DWIDTH 2 0
BBX 1 9 1 -2
BITMAP
80
80
80
80
80
80
80
80
80
ENDCHAR
STARTCHAR 013D
ENCODING 317
SWIDTH 555 0
DWIDTH 5 0
BBX 4 6 1 0
BITMAP
90
80
80
80
80
F0
ENDCHAR
STARTCHAR 013E
ENCODING 318
SWIDTH 222 0
DWIDTH 2 0
BBX 3 6 0 0
BITMAP
A0
A0
80
80
80
80
ENDCHAR
STARTCHAR 013F
ENCODING 319
SWIDTH 555 0
DWIDTH 5 0
BBX 4 7 1 0
BITMAP
80
80
80
C0
80
80
F0
ENDCHAR
STARTCHAR 0140
ENCODING 320
SWIDTH 333 0
DWIDTH 3 0
BBX 2 7 1 0
BITMAP
80
80
80
C0
80
80
80
ENDCHAR
STARTCHAR 0141
ENCODING 321
SWIDTH 555 0
DWIDTH 5 0
BBX 5 7 0 0
BITMAP
40
40
60
C0
40
40
78
ENDCHAR
STARTCHAR 0142
ENCODING 322
SWIDTH 222 0
DWIDTH 2 0
BBX 2 7 0 0
BITMAP
80
80
80
40
80
80
80
ENDCHAR
STARTCHAR 0143
ENCODING 323
SWIDTH 777 0
DWIDTH 7 0
BBX 5 8 1 0
BITMAP
20
A8
C8
C8
A8
A8
98
88
ENDCHAR
STARTCHAR 0144
ENCODING 324
SWIDTH 555 0
DWIDTH 5 0
BBX 3 7 1 0
BITMAP
20
E0
A0
A0
A0
A0
A0
ENDCHAR
STARTCHAR 0145
ENCODING 325
SWIDTH 777 0
DWIDTH 7 0
BBX 5 9 1 -2
BITMAP
88
C8
C8
A8
A8
98
88
20
40
ENDCHAR
STARTCHAR 0146
ENCODING 326
SWIDTH 555 0
DWIDTH 5 0
BBX 3 8 1 -2
BITMAP
E0
A0
A0
A0
A0
A0
40
40
ENDCHAR
STARTCHAR 0147
ENCODING 327
SWIDTH 777 0
DWIDTH 7 0
BBX 5 8 1 0
BITMAP
60
A8
C8
C8
A8
A8
98
88
ENDCHAR
STARTCHAR 0148
ENCODING 328
SWIDTH 555 0
DWIDTH 5 0
BBX 3 7 1 0
BITMAP
A0
E0
A0
A0
A0
A0
A0
ENDCHAR
STARTCHAR 0149
ENCODING 329
SWIDTH 555 0
DWIDTH 5 0
BBX 5 8 0 0
BITMAP
80
80
70
48
48
48
48
48
ENDCHAR
STARTCHAR 014A
ENCODING 330
SWIDTH 777 0
DWIDTH 7 0
BBX 5 8 1 -2
BITMAP
88
C8
C8
A8
98
98
08
18
ENDCHAR
STARTCHAR 014B
ENCODING 331
SWIDTH 555 0
DWIDTH 5 0
BBX 3 7 1 -2
BITMAP
60
A0
A0
A0
A0
20
20
ENDCHAR
STARTCHAR 014C
ENCODING 332
SWIDTH 777 0
DWIDTH 7 0
BBX 7 7 0 0
BITMAP
38
44
82
82
82
44
38
ENDCHAR
STARTCHAR 014D
ENCODING 333
SWIDTH 555 0
DWIDTH 5 0
BBX 5 6 0 0
BITMAP
70
90
88
88
90
70
ENDCHAR
STARTCHAR 014E
ENCODING 334
SWIDTH 777 0
DWIDTH 7 0
BBX 7 8 0 0
BITMAP
38
38
44
82
82
82
44
38
ENDCHAR
STARTCHAR 014F
ENCODING 335
SWIDTH 555 0
DWIDTH 5 0
BBX 5 6 0 0
BITMAP
70
70
88
88
90
70
ENDCHAR
STARTCHAR 0150
ENCODING 336
SWIDTH 777 0
DWIDTH 7 0
BBX 7 8 0 0
BITMAP
28
38
44
82
82
82
44
38
ENDCHAR
STARTCHAR 0151
ENCODING 337
SWIDTH 555 0
DWIDTH 5 0
BBX 5 6 0 0
BITMAP
70
90
88
88
90
70
ENDCHAR
STARTCHAR 0152
ENCODING 338
SWIDTH 1000 0
DWIDTH 9 0
BBX 9 7 0 0
BITMAP
3780
4C00
8400
8780
8400
4C00
3780
ENDCHAR
STARTCHAR 0153
ENCODING 339
SWIDTH 1000 0
DWIDTH 9 0
BBX 8 6 0 0
BITMAP
76
49
8F
88
59
76
ENDCHAR
STARTCHAR 0154
ENCODING 340
SWIDTH 777 0
DWIDTH 7 0
BBX 5 9 1 0
BITMAP
20
40
F0
88
88
F0
88
88
88
ENDCHAR
STARTCHAR 0155
ENCODING 341
SWIDTH 333 0
DWIDTH 3 0
BBX 2 7 1 0
BITMAP
80
C0
80
80
80
80
80
ENDCHAR
STARTCHAR 0156
ENCODING 342
SWIDTH 777 0
DWIDTH 7 0
BBX 5 9 1 -2
BITMAP
F0
88
88
F0
88
88
88
20
20
ENDCHAR
STARTCHAR 0157
ENCODING 343
SWIDTH 333 0
DWIDTH 3 0
BBX 2 8 1 -2
BITMAP
C0
80
80
80
80
80
80
80
ENDCHAR
STARTCHAR 0158
ENCODING 344
SWIDTH 777 0
DWIDTH 7 0
BBX 5 9 1 0
BITMAP
60
60
F0
88
88
F0
88
88
88
ENDCHAR
STARTCHAR 0159
ENCODING 345
SWIDTH 333 0
DWIDTH 3 0
BBX 3 7 0 0
BITMAP
A0
60
40
80
80
80
80
ENDCHAR
STARTCHAR 015A
ENCODING 346
SWIDTH 666 0
DWIDTH 6 0
BBX 6 9 0 0
BITMAP
10
20
78
48
40
78
04
8C
78
ENDCHAR
STARTCHAR 015B
ENCODING 347
SWIDTH 555 0
DWIDTH 5 0
BBX 4 7 0 0
BITMAP
20
70
80
40
30
90
70
ENDCHAR
STARTCHAR 015C
ENCODING 348
SWIDTH 666 0
DWIDTH 6 0
BBX 6 9 0 0
BITMAP
30
30
78
48
40
78
04
8C
78
ENDCHAR
STARTCHAR 015D
ENCODING 349
SWIDTH 555 0
DWIDTH 5 0
BBX 4 7 0 0
BITMAP
20
70
80
40
30
90
70
ENDCHAR
STARTCHAR 015E
ENCODING 350
SWIDTH 666 0
DWIDTH 6 0
BBX 6 9 0 -2
BITMAP
78
48
40
78
0C
84
78
30
30
ENDCHAR
STARTCHAR 015F
ENCODING 351
SWIDTH 555 0
DWIDTH 5 0
BBX 4 8 0 -2
BITMAP
70
80
40
30
90
70
20
60
ENDCHAR
STARTCHAR 0160
ENCODING 352
SWIDTH 666 0
DWIDTH 6 0
BBX 6 9 0 0
BITMAP
30
30
78
48
40
78
04
8C
78
ENDCHAR
STARTCHAR 0161
ENCODING 353
SWIDTH 555 0
DWIDTH 5 0
BBX 4 7 0 0
BITMAP
60
70
80
40
30
90
70
ENDCHAR
STARTCHAR 0162
ENCODING 354
SWIDTH 666 0
DWIDTH 6 0
BBX 5 9 0 -2
BITMAP
F8
20
20
20
20
20
20
30
10
ENDCHAR
STARTCHAR 0163
ENCODING 355
SWIDTH 333 0
DWIDTH 3 0
BBX 3 9 0 -2
BITMAP
40
C0
40
40
40
40
40
60
20
ENDCHAR
STARTCHAR 0164
ENCODING 356
SWIDTH 666 0
DWIDTH 6 0
BBX 5 9 0 0
BITMAP
50
20
F8
20
20
20
20
20
20
ENDCHAR
STARTCHAR 0165
ENCODING 357
SWIDTH 333 0
DWIDTH 3 0
BBX 3 7 0 0
BITMAP
20
40
C0
40
40
40
40
ENDCHAR
STARTCHAR 0166
ENCODING 358
SWIDTH 666 0
DWIDTH 6 0
BBX 5 7 0 0
BITMAP
F8
20
20
20
70
20
20
ENDCHAR
STARTCHAR 0167
ENCODING 359
SWIDTH 333 0
DWIDTH 3 0
BBX 3 7 0 0
BITMAP
40
C0
40
40
E0
40
40
ENDCHAR
STARTCHAR 0168
ENCODING 360
SWIDTH 777 0
DWIDTH 7 0
BBX 5 9 1 0
BITMAP
40
30
88
88
88
88
88
88
70
ENDCHAR
STARTCHAR 0169
ENCODING 361
SWIDTH 555 0
DWIDTH 5 0
BBX 3 7 1 0
BITMAP
80
E0
A0
A0
A0
A0
E0
ENDCHAR
STARTCHAR 016A
ENCODING 362
SWIDTH 777 0
DWIDTH 7 0
BBX 5 7 1 0
BITMAP
F8
88
88
88
88
88
70
ENDCHAR
STARTCHAR 016B
ENCODING 363
SWIDTH 555 0
DWIDTH 5 0
BBX 3 6 1 0
BITMAP
E0
A0
A0
A0
A0
E0
ENDCHAR
STARTCHAR 016C
ENCODING 364
SWIDTH 777 0
DWIDTH 7 0
BBX 5 8 1 0
BITMAP
70
88
88
88
88
88
88
70
ENDCHAR
STARTCHAR 016D
ENCODING 365
SWIDTH 555 0
DWIDTH 5 0
BBX 3 6 1 0
BITMAP
E0
A0
A0
A0
A0
C0
ENDCHAR
STARTCHAR 016E
ENCODING 366
SWIDTH 777 0
DWIDTH 7 0
BBX 5 8 1 0
BITMAP
20
A8
88
88
88
88
88
70
ENDCHAR
STARTCHAR 016F
ENCODING 367
SWIDTH 555 0
DWIDTH 5 0
BBX 3 7 1 0
BITMAP
40
E0
A0
A0
A0
A0
E0
ENDCHAR
STARTCHAR 0170
ENCODING 368
SWIDTH 777 0
DWIDTH 7 0
BBX 5 8 1 0
BITMAP
50
88
88
88
88
88
88
70
ENDCHAR
STARTCHAR 0171
ENCODING 369
SWIDTH 555 0
DWIDTH 5 0
BBX 3 6 1 0
BITMAP
A0
A0
A0
A0
A0
E0
ENDCHAR
STARTCHAR 0172
ENCODING 370
SWIDTH 777 0
DWIDTH 7 0
BBX 5 9 1 -2
BITMAP
88
88
88
88
88
88
70
40
60
ENDCHAR
STARTCHAR 0173
ENCODING 371
SWIDTH 555 0
DWIDTH 5 0
BBX 3 8 1 -2
BITMAP
A0
A0
A0
A0
A0
E0
20
20
ENDCHAR
STARTCHAR 0174
ENCODING 372
SWIDTH 1000 0
DWIDTH 9 0
BBX 8 9 0 0
BITMAP
08
18
89
99
59
55
66
66
22
ENDCHAR
STARTCHAR 0175
ENCODING 373
SWIDTH 777 0
DWIDTH 7 0
BBX 6 7 0 0
BITMAP
10
B4
B4
B4
74
68
48
ENDCHAR
STARTCHAR 0176
ENCODING 374
SWIDTH 666 0
DWIDTH 6 0
BBX 6 9 0 0
BITMAP
30
30
84
48
28
30
10
10
10
ENDCHAR
STARTCHAR 0177
ENCODING 375
SWIDTH 555 0
DWIDTH 5 0
BBX 4 9 0 -2
BITMAP
20
D0
90
50
60
60
20
20
40
ENDCHAR
STARTCHAR 0178
ENCODING 376
SWIDTH 666 0
DWIDTH 6 0
BBX 6 8 0 0
BITMAP
30
84
48
28
30
10
10
10
ENDCHAR
STARTCHAR 0179
ENCODING 377
SWIDTH 666 0
DWIDTH 6 0
BBX 5 9 0 0
BITMAP
10
20
F8
08
10
20
60
40
F8
ENDCHAR
STARTCHAR 017A
ENCODING 378
SWIDTH 555 0
DWIDTH 5 0
BBX 4 7 0 0
BITMAP
20
F0
10
20
40
40
F0
ENDCHAR
STARTCHAR 017B
ENCODING 379
SWIDTH 666 0
DWIDTH 6 0
BBX 5 8 0 0
BITMAP
20
F8
08
10
20
60
40
F8
ENDCHAR
STARTCHAR 017C
ENCODING 380
SWIDTH 555 0
DWIDTH 5 0
BBX 4 6 0 0
BITMAP
F0
10
20
40
40
F0
ENDCHAR
STARTCHAR 017D
ENCODING 381
SWIDTH 666 0
DWIDTH 6 0
BBX 5 9 0 0
BITMAP
10
30
F8
08
10
20
60
40
F8
ENDCHAR
STARTCHAR 017E
ENCODING 382
SWIDTH 555 0
DWIDTH 5 0
BBX 4 7 0 0
BITMAP
60
F0
10
20
40
40
F0
ENDCHAR
STARTCHAR 017F
ENCODING 383
SWIDTH 333 0
DWIDTH 3 0
BBX 2 7 0 0
BITMAP
40
40
C0
40
40
40
40
ENDCHAR
STARTCHAR 0180
ENCODING 384
SWIDTH 555 0
DWIDTH 5 0
BBX 5 6 0 0
BITMAP
E0
70
48
48
48
70
ENDCHAR
STARTCHAR 0182
ENCODING 386
SWIDTH 666 0
DWIDTH 6 0
BBX 5 7 1 0
BITMAP
F0
80
80
F0
88
88
F0
ENDCHAR
STARTCHAR 0183
ENCODING 387
SWIDTH 555 0
DWIDTH 5 0
BBX 4 7 1 0
BITMAP
60
80
E0
90
90
A0
E0
ENDCHAR
STARTCHAR 0186
ENCODING 390
SWIDTH 777 0
DWIDTH 7 0
BBX 6 7 0 0
BITMAP
38
44
84
04
04
4C
78
ENDCHAR
STARTCHAR 0189
ENCODING 393
SWIDTH 777 0
DWIDTH 7 0
BBX 6 7 0 0
BITMAP
78
44
44
E4
44
44
78
ENDCHAR
STARTCHAR 018B
ENCODING 395
SWIDTH 666 0
DWIDTH 6 0
BBX 5 7 1 0
BITMAP
F8
08
08
F8
88
88
F8
ENDCHAR
STARTCHAR 018C
ENCODING 396
SWIDTH 555 0
DWIDTH 5 0
BBX 4 7 1 0
BITMAP
30
50
F0
90
90
90
F0
ENDCHAR
STARTCHAR 018D
ENCODING 397
SWIDTH 555 0
DWIDTH 5 0
BBX 5 7 0 0
BITMAP
70
88
88
88
70
20
70
ENDCHAR
STARTCHAR 018E
ENCODING 398
SWIDTH 666 0
DWIDTH 6 0
BBX 5 7 1 0
BITMAP
F8
08
08
F8
08
08
F8
ENDCHAR
STARTCHAR 018F
ENCODING 399
SWIDTH 777 0
DWIDTH 7 0
BBX 6 7 0 0
BITMAP
38
44
04
FC
84
4C
38
ENDCHAR
STARTCHAR 0190
ENCODING 400
SWIDTH 555 0
DWIDTH 5 0
BBX 4 7 0 0
BITMAP
70
90
80
60
80
90
70
ENDCHAR
STARTCHAR 0191
ENCODING 401
SWIDTH 666 0
DWIDTH 6 0
BBX 5 9 0 -2
BITMAP
78
40
40
78
40
40
40
40
80
ENDCHAR
STARTCHAR 0192
ENCODING 402
SWIDTH 555 0
DWIDTH 5 0
BBX 5 9 0 -2
BITMAP
18
20
70
20
20
20
20
40
C0
ENDCHAR
STARTCHAR 0196
ENCODING 406
SWIDTH 222 0
DWIDTH 2 0
BBX 2 6 0 0
BITMAP
80
80
80
80
80
C0
ENDCHAR
STARTCHAR 0197
ENCODING 407
SWIDTH 333 0
DWIDTH 3 0
BBX 3 6 0 0
BITMAP
40
40
E0
40
40
40
ENDCHAR
STARTCHAR 019A
ENCODING 410
SWIDTH 333 0
DWIDTH 3 0
BBX 3 6 0 0
BITMAP
40
40
E0
40
40
40
ENDCHAR
STARTCHAR 019B
ENCODING 411
SWIDTH 555 0
DWIDTH 5 0
BBX 5 7 0 0
BITMAP
40
20
60
20
50
50
88
ENDCHAR
STARTCHAR 019D
ENCODING 413
SWIDTH 777 0
DWIDTH 7 0
BBX 6 8 0 -2
BITMAP
44
64
64
54
4C
4C
80
80
ENDCHAR
STARTCHAR 019E
ENCODING 414
SWIDTH 555 0
DWIDTH 5 0
BBX 3 7 1 -2
BITMAP
60
A0
A0
A0
A0
20
20
ENDCHAR
STARTCHAR 019F
ENCODING 415
SWIDTH 777 0
DWIDTH 7 0
BBX 7 7 0 0
BITMAP
38
44
82
FE
82
44
38
ENDCHAR
STARTCHAR 01A0
ENCODING 416
SWIDTH 888 0
DWIDTH 8 0
BBX 8 7 0 0
BITMAP
39
46
82
82
82
44
38
ENDCHAR
STARTCHAR 01A1
ENCODING 417
SWIDTH 666 0
DWIDTH 6 0
BBX 6 5 0 0
BITMAP
74
98
88
90
70
ENDCHAR
STARTCHAR 01A6
ENCODING 422
SWIDTH 666 0
DWIDTH 6 0
BBX 5 7 0 -1
BITMAP
F8
88
88
F8
88
88
08
ENDCHAR
STARTCHAR 01A7
ENCODING 423
SWIDTH 666 0
DWIDTH 6 0
BBX 6 7 0 0
BITMAP
78
48
08
70
84
88
78
ENDCHAR
STARTCHAR 01A8
ENCODING 424
SWIDTH 555 0
DWIDTH 5 0
BBX 4 5 0 0
BITMAP
70
90
60
90
70
ENDCHAR
STARTCHAR 01A9
ENCODING 425
SWIDTH 555 0
DWIDTH 5 0
BBX 5 7 0 0
BITMAP
F8
40
20
10
20
40
F8
ENDCHAR
STARTCHAR 01AE
ENCODING 430
SWIDTH 666 0
DWIDTH 6 0
BBX 5 9 0 -2
BITMAP
F8
20
20
20
20
20
20
20
20
ENDCHAR
STARTCHAR 01AF
ENCODING 431
SWIDTH 888 0
DWIDTH 8 0
BBX 6 7 1 0
BITMAP
8C
88
88
88
88
88
70
ENDCHAR
STARTCHAR 01B0
ENCODING 432
SWIDTH 666 0
DWIDTH 6 0
BBX 5 5 1 0
BITMAP
88
B0
A0
A0
C0
ENDCHAR
STARTCHAR 01B1
ENCODING 433
SWIDTH 777 0
DWIDTH 7 0
BBX 6 7 0 0
BITMAP
EC
48
84
84
84
44
38
ENDCHAR
STARTCHAR 01B5
ENCODING 437
SWIDTH 666 0
DWIDTH 6 0
BBX 5 7 0 0
BITMAP
F8
08
10
78
20
40
F8
ENDCHAR
STARTCHAR 01B6
ENCODING 438
SWIDTH 555 0
DWIDTH 5 0
BBX 4 5 0 0
BITMAP
F0
20
70
40
F0
ENDCHAR
STARTCHAR 01B7
ENCODING 439
SWIDTH 555 0
DWIDTH 5 0
BBX 5 7 0 0
BITMAP
F8
10
20
10
08
88
70
ENDCHAR
STARTCHAR 01B8
ENCODING 440
SWIDTH 555 0
DWIDTH 5 0
BBX 5 7 0 0
BITMAP
F8
40
20
C0
80
88
70
ENDCHAR
STARTCHAR 01B9
ENCODING 441
SWIDTH 555 0
DWIDTH 5 0
BBX 4 7 0 -2
BITMAP
F0
40
20
C0
80
90
70
ENDCHAR
STARTCHAR 01BB
ENCODING 443
SWIDTH 555 0
DWIDTH 5 0
BBX 5 6 0 0
BITMAP
70
48
F8
20
C0
F8
ENDCHAR
STARTCHAR 01C0
ENCODING 448
SWIDTH 222 0
DWIDTH 2 0
BBX 1 7 1 0
BITMAP
80
80
80
80
80
80
80
ENDCHAR
STARTCHAR 01C1
ENCODING 449
SWIDTH 444 0
DWIDTH 4 0
BBX 2 7 1 0
BITMAP
C0
C0
C0
C0
C0
C0
C0
ENDCHAR
STARTCHAR 01C2
ENCODING 450
SWIDTH 555 0
DWIDTH 5 0
BBX 5 7 0 0
BITMAP
20
20
F8
20
F8
20
20
ENDCHAR
STARTCHAR 01C3
ENCODING 451
SWIDTH 333 0
DWIDTH 3 0
BBX 1 6 1 0
BITMAP
80
80
80
80
80
80
ENDCHAR
STARTCHAR 01C4
ENCODING 452
SWIDTH 1222 0
DWIDTH 11 0
BBX 11 9 0 0
BITMAP
0180
0080
FBE0
8840
8440
8480
8500
8A00
FBE0
ENDCHAR
STARTCHAR 01C5
ENCODING 453
SWIDTH 1111 0
DWIDTH 10 0
BBX 10 7 0 0
BITMAP
FA80
8BC0
8480
8480
8500
8A00
FBC0
ENDCHAR
STARTCHAR 01C6
ENCODING 454
SWIDTH 1000 0
DWIDTH 9 0
BBX 9 7 0 0
BITMAP
1300
7780
9100
9100
9200
9400
7780
ENDCHAR
STARTCHAR 01C7
ENCODING 455
SWIDTH 1000 0
DWIDTH 9 0
BBX 9 7 0 0
BITMAP
8080
8080
8080
8080
8080
8480
FF00
ENDCHAR
STARTCHAR 01C8
ENCODING 456
SWIDTH 666 0
DWIDTH 6 0
BBX 6 9 0 -2
BITMAP
84
80
84
84
84
84
FC
04
04
ENDCHAR
STARTCHAR 01C9
ENCODING 457
SWIDTH 333 0
DWIDTH 3 0
BBX 3 9 0 -2
BITMAP
A0
80
A0
A0
A0
A0
A0
20
20
ENDCHAR
STARTCHAR 01CA
ENCODING 458
SWIDTH 1111 0
DWIDTH 10 0
BBX 10 7 0 0
BITMAP
C440
C440
A440
9440
9440
8E40
8F80
ENDCHAR
STARTCHAR 01CB
ENCODING 459
SWIDTH 888 0
DWIDTH 8 0
BBX 8 9 0 -2
BITMAP
C5
C4
A5
95
95
8D
8D
01
02
ENDCHAR
STARTCHAR 01CC
ENCODING 460
SWIDTH 666 0
DWIDTH 6 0
BBX 6 9 0 -2
BITMAP
04
B0
D4
94
94
94
94
04
04
ENDCHAR
STARTCHAR 01CD
ENCODING 461
SWIDTH 666 0
DWIDTH 6 0
BBX 6 9 0 0
BITMAP
30
10
00
30
30
48
78
48
84
ENDCHAR
STARTCHAR 01CE
ENCODING 462
SWIDTH 555 0
DWIDTH 5 0
BBX 5 7 0 0
BITMAP
50
70
90
10
70
90
68
ENDCHAR
STARTCHAR 01CF
ENCODING 463
SWIDTH 333 0
DWIDTH 3 0
BBX 3 9 0 0
BITMAP
A0
40
00
40
40
40
40
40
40
ENDCHAR
STARTCHAR 01D0
ENCODING 464
SWIDTH 333 0
DWIDTH 3 0
BBX 2 7 0 0
BITMAP
C0
40
40
40
40
40
40
ENDCHAR
STARTCHAR 01D1
ENCODING 465
SWIDTH 777 0
DWIDTH 7 0
BBX 7 9 0 0
BITMAP
28
10
38
44
82
82
82
44
38
ENDCHAR
STARTCHAR 01D2
ENCODING 466
SWIDTH 555 0
DWIDTH 5 0
BBX 5 7 0 0
BITMAP
50
70
90
88
88
90
70
ENDCHAR
STARTCHAR 01D3
ENCODING 467
SWIDTH 777 0
DWIDTH 7 0
BBX 5 8 1 0
BITMAP
50
A8
88
88
88
88
88
70
ENDCHAR
STARTCHAR 01D4
ENCODING 468
SWIDTH 555 0
DWIDTH 5 0
BBX 3 7 1 0
BITMAP
A0
E0
A0
A0
A0
A0
E0
ENDCHAR
STARTCHAR 01D5
ENCODING 469
SWIDTH 777 0
DWIDTH 7 0
BBX 5 9 1 0
BITMAP
70
00
D8
88
88
88
88
88
70
ENDCHAR
STARTCHAR 01D6
ENCODING 470
SWIDTH 555 0
DWIDTH 5 0
BBX 3 7 1 0
BITMAP
E0
A0
A0
A0
A0
A0
E0
ENDCHAR
STARTCHAR 01D7
ENCODING 471
SWIDTH 777 0
DWIDTH 7 0
BBX 5 10 1 0
BITMAP
20
20
00
D8
88
88
88
88
88
70
ENDCHAR
STARTCHAR 01D8
ENCODING 472
SWIDTH 555 0
DWIDTH 5 0
BBX 3 8 1 0
BITMAP
40
40
A0
A0
A0
A0
A0
E0
ENDCHAR
STARTCHAR 01D9
ENCODING 473
SWIDTH 777 0
DWIDTH 7 0
BBX 5 10 1 0
BITMAP
60
20
00
E8
88
88
88
88
88
70
ENDCHAR
STARTCHAR 01DA
ENCODING 474
SWIDTH 555 0
DWIDTH 5 0
BBX 3 8 1 0
BITMAP
A0
40
A0
A0
A0
A0
A0
E0
ENDCHAR
STARTCHAR 01DB
ENCODING 475
SWIDTH 777 0
DWIDTH 7 0
BBX 5 9 1 0
BITMAP
40
40
E8
88
88
88
88
88
70
ENDCHAR
STARTCHAR 01DC
ENCODING 476
SWIDTH 555 0
DWIDTH 5 0
BBX 3 8 1 0
BITMAP
80
40
A0
A0
A0
A0
A0
E0
ENDCHAR
STARTCHAR 01DD
ENCODING 477
SWIDTH 555 0
DWIDTH 5 0
BBX 5 5 0 0
BITMAP
70
10
F8
90
70
ENDCHAR
STARTCHAR 01DE
ENCODING 478
SWIDTH 666 0
DWIDTH 6 0
BBX 6 8 0 0
BITMAP
30
30
30
30
48
78
48
84
ENDCHAR
STARTCHAR 01DF
ENCODING 479
SWIDTH 555 0
DWIDTH 5 0
BBX 5 7 0 0
BITMAP
70
70
90
10
70
90
68
ENDCHAR
STARTCHAR 01E0
ENCODING 480
SWIDTH 666 0
DWIDTH 6 0
BBX 6 8 0 0
BITMAP
30
20
30
30
48
78
48
84
ENDCHAR
STARTCHAR 01E1
ENCODING 481
SWIDTH 555 0
DWIDTH 5 0
BBX 5 7 0 0
BITMAP
70
70
90
10
70
90
68
ENDCHAR
STARTCHAR 01E2
ENCODING 482
SWIDTH 1000 0
DWIDTH 9 0
BBX 9 7 0 0
BITMAP
1F00
2800
2800
4F00
7800
4800
8F80
ENDCHAR
STARTCHAR 01E3
ENCODING 483
SWIDTH 888 0
DWIDTH 8 0
BBX 8 6 0 0
BITMAP
7E
99
7F
90
92
6E
ENDCHAR
STARTCHAR 01E4
ENCODING 484
SWIDTH 777 0
DWIDTH 7 0
BBX 7 7 0 0
BITMAP
38
44
80
9C
84
4E
7C
ENDCHAR
STARTCHAR 01E5
ENCODING 485
SWIDTH 555 0
DWIDTH 5 0
BBX 5 7 0 -2
BITMAP
60
90
98
90
70
10
70
ENDCHAR
STARTCHAR 01E6
ENCODING 486
SWIDTH 777 0
DWIDTH 7 0
BBX 6 9 0 0
BITMAP
28
10
38
44
80
9C
84
44
3C
ENDCHAR
STARTCHAR 01E7
ENCODING 487
SWIDTH 555 0
DWIDTH 5 0
BBX 4 9 0 -2
BITMAP
60
70
90
90
90
90
70
10
70
ENDCHAR
STARTCHAR 01E8
ENCODING 488
SWIDTH 666 0
DWIDTH 6 0
BBX 5 9 1 0
BITMAP
60
60
90
A0
E0
E0
A0
90
88
ENDCHAR
STARTCHAR 01E9
ENCODING 489
SWIDTH 555 0
DWIDTH 5 0
BBX 3 8 1 0
BITMAP
A0
C0
A0
C0
C0
C0
A0
A0
ENDCHAR
STARTCHAR 01EA
ENCODING 490
SWIDTH 777 0
DWIDTH 7 0
BBX 7 9 0 -2
BITMAP
38
44
82
82
82
44
38
20
30
ENDCHAR
STARTCHAR 01EB
ENCODING 491
SWIDTH 555 0
DWIDTH 5 0
BBX 5 8 0 -2
BITMAP
70
90
88
88
90
70
40
60
ENDCHAR
STARTCHAR 01EC
ENCODING 492
SWIDTH 777 0
DWIDTH 7 0
BBX 7 10 0 -2
BITMAP
38
38
44
82
82
82
44
38
20
30
ENDCHAR
STARTCHAR 01ED
ENCODING 493
SWIDTH 555 0
DWIDTH 5 0
BBX 5 8 0 -2
BITMAP
70
90
88
88
90
70
40
60
ENDCHAR
STARTCHAR 01EE
ENCODING 494
SWIDTH 555 0
DWIDTH 5 0
BBX 5 8 0 0
BITMAP
60
F8
10
20
10
08
88
70
ENDCHAR
STARTCHAR 01EF
ENCODING 495
SWIDTH 444 0
DWIDTH 4 0
BBX 4 9 0 -2
BITMAP
60
00
F0
30
60
10
10
90
70
ENDCHAR
STARTCHAR 01F0
ENCODING 496
SWIDTH 222 0
DWIDTH 2 0
BBX 2 9 0 -2
BITMAP
C0
C0
80
80
80
80
80
80
80
ENDCHAR
STARTCHAR 01F1
ENCODING 497
SWIDTH 1222 0
DWIDTH 11 0
BBX 11 7 0 0
BITMAP
FBE0
8840
84C0
8480
8500
8A00
FBE0
ENDCHAR
STARTCHAR 01F2
ENCODING 498
SWIDTH 1111 0
DWIDTH 10 0
BBX 10 7 0 0
BITMAP
F800
8BC0
8480
8480
8500
8A00
FBC0
ENDCHAR
STARTCHAR 01F3
ENCODING 499
SWIDTH 1000 0
DWIDTH 9 0
BBX 9 7 0 0
BITMAP
1000
7780
9100
9100
9200
9400
7780
ENDCHAR
STARTCHAR 01F4
ENCODING 500
SWIDTH 777 0
DWIDTH 7 0
BBX 6 9 0 0
BITMAP
10
10
38
44
80
9C
84
44
3C
ENDCHAR
STARTCHAR 01F5
ENCODING 501
SWIDTH 555 0
DWIDTH 5 0
BBX 4 9 0 -2
BITMAP
20
70
90
90
90
90
70
10
70
ENDCHAR
STARTCHAR 01F7
ENCODING 503
SWIDTH 666 0
DWIDTH 6 0
BBX 5 7 1 0
BITMAP
F0
88
88
90
E0
80
80
ENDCHAR
STARTCHAR 01F8
ENCODING 504
SWIDTH 777 0
DWIDTH 7 0
BBX 5 8 1 0
BITMAP
40
A8
C8
C8
A8
A8
98
88
ENDCHAR
STARTCHAR 01F9
ENCODING 505
SWIDTH 555 0
DWIDTH 5 0
BBX 3 7 1 0
BITMAP
40
E0
A0
A0
A0
A0
A0
ENDCHAR
STARTCHAR 01FA
ENCODING 506
SWIDTH 666 0
DWIDTH 6 0
BBX 6 11 0 0
BITMAP
10
10
30
30
00
30
30
48
78
48
84
ENDCHAR
STARTCHAR 01FB
ENCODING 507
SWIDTH 555 0
DWIDTH 5 0
BBX 5 9 0 0
BITMAP
20
20
20
70
90
10
70
90
68
ENDCHAR
STARTCHAR 01FC
ENCODING 508
SWIDTH 1000 0
DWIDTH 9 0
BBX 9 8 0 0
BITMAP
0400
1F00
2800
2800
4F00
7800
4800
8F80
ENDCHAR
STARTCHAR 01FD
ENCODING 509
SWIDTH 888 0
DWIDTH 8 0
BBX 8 7 0 0
BITMAP
08
7E
99
7F
90
92
6E
ENDCHAR
STARTCHAR 01FE
ENCODING 510
SWIDTH 777 0
DWIDTH 7 0
BBX 7 9 0 0
BITMAP
10
10
3C
44
8A
92
A2
44
B8
ENDCHAR
STARTCHAR 01FF
ENCODING 511
SWIDTH 666 0
DWIDTH 6 0
BBX 5 7 0 0
BITMAP
20
78
48
B8
A8
48
F0
ENDCHAR
STARTCHAR 0200
ENCODING 512
SWIDTH 666 0
DWIDTH 6 0
BBX 6 8 0 0
BITMAP
50
00
30
30
48
78
48
84
ENDCHAR
STARTCHAR 0201
ENCODING 513
SWIDTH 555 0
DWIDTH 5 0
BBX 5 6 0 0
BITMAP
70
90
10
70
90
68
ENDCHAR
STARTCHAR 0202
ENCODING 514
SWIDTH 666 0
DWIDTH 6 0
BBX 6 7 0 0
BITMAP
30
30
30
48
78
48
84
ENDCHAR
STARTCHAR 0203
ENCODING 515
SWIDTH 555 0
DWIDTH 5 0
BBX 5 6 0 0
BITMAP
70
90
10
70
90
68
ENDCHAR
STARTCHAR 0204
ENCODING 516
SWIDTH 666 0
DWIDTH 6 0
BBX 5 8 1 0
BITMAP
60
F0
80
80
F0
80
80
F8
ENDCHAR
STARTCHAR 0205
ENCODING 517
SWIDTH 555 0
DWIDTH 5 0
BBX 5 6 0 0
BITMAP
70
88
F8
80
50
70
ENDCHAR
STARTCHAR 0206
ENCODING 518
SWIDTH 666 0
DWIDTH 6 0
BBX 5 8 1 0
BITMAP
60
F0
80
80
F0
80
80
F8
ENDCHAR
STARTCHAR 0207
ENCODING 519
SWIDTH 555 0
DWIDTH 5 0
BBX 5 6 0 0
BITMAP
70
88
F8
80
50
70
ENDCHAR
STARTCHAR 0208
ENCODING 520
SWIDTH 333 0
DWIDTH 3 0
BBX 2 8 0 0
BITMAP
C0
00
40
40
40
40
40
40
ENDCHAR
STARTCHAR 0209
ENCODING 521
SWIDTH 222 0
DWIDTH 2 0
BBX 3 6 -1 0
BITMAP
A0
40
40
40
40
40
ENDCHAR
STARTCHAR 020A
ENCODING 522
SWIDTH 333 0
DWIDTH 3 0
BBX 3 8 0 0
BITMAP
E0
00
40
40
40
40
40
40
ENDCHAR
STARTCHAR 020B
ENCODING 523
SWIDTH 222 0
DWIDTH 2 0
BBX 2 6 0 0
BITMAP
C0
80
80
80
80
80
ENDCHAR
STARTCHAR 020C
ENCODING 524
SWIDTH 777 0
DWIDTH 7 0
BBX 7 8 0 0
BITMAP
30
38
44
82
82
82
44
38
ENDCHAR
STARTCHAR 020D
ENCODING 525
SWIDTH 555 0
DWIDTH 5 0
BBX 5 6 0 0
BITMAP
70
90
88
88
90
70
ENDCHAR
STARTCHAR 020E
ENCODING 526
SWIDTH 777 0
DWIDTH 7 0
BBX 7 8 0 0
BITMAP
38
38
44
82
82
82
44
38
ENDCHAR
STARTCHAR 020F
ENCODING 527
SWIDTH 555 0
DWIDTH 5 0
BBX 5 6 0 0
BITMAP
70
90
88
88
90
70
ENDCHAR
STARTCHAR 0210
ENCODING 528
SWIDTH 777 0
DWIDTH 7 0
BBX 5 8 1 0
BITMAP
60
F0
88
88
F0
88
88
88
ENDCHAR
STARTCHAR 0211
ENCODING 529
SWIDTH 333 0
DWIDTH 3 0
BBX 3 6 0 0
BITMAP
A0
40
80
80
80
80
ENDCHAR
STARTCHAR 0212
ENCODING 530
SWIDTH 777 0
DWIDTH 7 0
BBX 5 7 1 0
BITMAP
F0
88
88
F0
88
88
88
ENDCHAR
STARTCHAR 0213
ENCODING 531
SWIDTH 333 0
DWIDTH 3 0
BBX 3 6 0 0
BITMAP
60
40
80
80
80
80
ENDCHAR
STARTCHAR 0214
ENCODING 532
SWIDTH 777 0
DWIDTH 7 0
BBX 5 8 1 0
BITMAP
60
88
88
88
88
88
88
70
ENDCHAR
STARTCHAR 0215
ENCODING 533
SWIDTH 555 0
DWIDTH 5 0
BBX 3 6 1 0
BITMAP
E0
A0
A0
A0
A0
E0
ENDCHAR
STARTCHAR 0216
ENCODING 534
SWIDTH 777 0
DWIDTH 7 0
BBX 5 8 1 0
BITMAP
70
88
88
88
88
88
88
70
ENDCHAR
STARTCHAR 0217
ENCODING 535
SWIDTH 555 0
DWIDTH 5 0
BBX 3 6 1 0
BITMAP
E0
A0
A0
A0
A0
E0
ENDCHAR
STARTCHAR 0218
ENCODING 536
SWIDTH 666 0
DWIDTH 6 0
BBX 6 9 0 -3
BITMAP
78
48
40
38
84
44
78
00
20
ENDCHAR
STARTCHAR 0219
ENCODING 537
SWIDTH 555 0
DWIDTH 5 0
BBX 4 7 0 -3
BITMAP
60
90
60
90
70
00
20
ENDCHAR
STARTCHAR 021A
ENCODING 538
SWIDTH 666 0
DWIDTH 6 0
BBX 5 7 0 -2
BITMAP
F8
20
20
20
20
20
20
ENDCHAR
STARTCHAR 021B
ENCODING 539
SWIDTH 333 0
DWIDTH 3 0
BBX 2 8 0 -3
BITMAP
40
C0
40
40
40
40
00
40
ENDCHAR
STARTCHAR 021C
ENCODING 540
SWIDTH 666 0
DWIDTH 6 0
BBX 4 7 1 0
BITMAP
70
90
10
30
10
10
F0
ENDCHAR
STARTCHAR 021D
ENCODING 541
SWIDTH 666 0
DWIDTH 6 0
BBX 4 7 1 -2
BITMAP
70
90
10
30
10
10
F0
ENDCHAR
STARTCHAR 021E
ENCODING 542
SWIDTH 777 0
DWIDTH 7 0
BBX 5 8 1 0
BITMAP
60
A8
88
88
F8
88
88
88
ENDCHAR
STARTCHAR 021F
ENCODING 543
SWIDTH 555 0
DWIDTH 5 0
BBX 3 8 1 0
BITMAP
A0
C0
E0
A0
A0
A0
A0
A0
ENDCHAR
STARTCHAR 0220
ENCODING 544
SWIDTH 777 0
DWIDTH 7 0
BBX 5 9 1 -2
BITMAP
F0
88
88
88
88
88
88
08
08
ENDCHAR
STARTCHAR 0226
ENCODING 550
SWIDTH 666 0
DWIDTH 6 0
BBX 6 7 0 0
BITMAP
20
30
30
48
78
48
84
ENDCHAR
STARTCHAR 0227
ENCODING 551
SWIDTH 555 0
DWIDTH 5 0
BBX 5 6 0 0
BITMAP
70
90
10
70
90
68
ENDCHAR
STARTCHAR 0228
ENCODING 552
SWIDTH 666 0
DWIDTH 6 0
BBX 5 9 1 -2
BITMAP
F0
80
80
F0
80
80
F8
20
20
ENDCHAR
STARTCHAR 0229
ENCODING 553
SWIDTH 555 0
DWIDTH 5 0
BBX 5 7 0 -2
BITMAP
70
88
F8
80
50
70
30
ENDCHAR
STARTCHAR 022A
ENCODING 554
SWIDTH 777 0
DWIDTH 7 0
BBX 7 9 0 0
BITMAP
38
28
38
44
82
82
82
44
38
ENDCHAR
STARTCHAR 022B
ENCODING 555
SWIDTH 555 0
DWIDTH 5 0
BBX 5 7 0 0
BITMAP
70
70
90
88
88
90
70
ENDCHAR
STARTCHAR 022C
ENCODING 556
SWIDTH 777 0
DWIDTH 7 0
BBX 7 9 0 0
BITMAP
38
18
38
44
82
82
82
44
38
ENDCHAR
STARTCHAR 022D
ENCODING 557
SWIDTH 555 0
DWIDTH 5 0
BBX 5 7 0 0
BITMAP
70
70
90
88
88
90
70
ENDCHAR
STARTCHAR 022E
ENCODING 558
SWIDTH 777 0
DWIDTH 7 0
BBX 7 8 0 0
BITMAP
10
38
44
82
82
82
44
38
ENDCHAR
STARTCHAR 022F
ENCODING 559
SWIDTH 555 0
DWIDTH 5 0
BBX 5 6 0 0
BITMAP
70
90
88
88
90
70
ENDCHAR
STARTCHAR 0230
ENCODING 560
SWIDTH 777 0
DWIDTH 7 0
BBX 7 9 0 0
BITMAP
38
10
38
44
82
82
82
44
38
ENDCHAR
STARTCHAR 0231
ENCODING 561
SWIDTH 555 0
DWIDTH 5 0
BBX 5 7 0 0
BITMAP
70
70
90
88
88
90
70
ENDCHAR
STARTCHAR 0232
ENCODING 562
SWIDTH 666 0
DWIDTH 6 0
BBX 6 7 0 0
BITMAP
BC
48
28
30
10
10
10
ENDCHAR
STARTCHAR 0233
ENCODING 563
SWIDTH 555 0
DWIDTH 5 0
BBX 4 8 0 -2
BITMAP
F0
90
50
60
60
20
20
40
ENDCHAR
STARTCHAR 0237
ENCODING 567
SWIDTH 222 0
DWIDTH 2 0
BBX 1 7 0 -2
BITMAP
80
80
80
80
80
80
80
ENDCHAR
STARTCHAR 0238
ENCODING 568
SWIDTH 888 0
DWIDTH 8 0
BBX 8 6 0 0
BITMAP
08
7E
49
89
49
7E
ENDCHAR
STARTCHAR 0239
ENCODING 569
SWIDTH 888 0
DWIDTH 8 0
BBX 8 7 0 -2
BITMAP
66
99
91
99
76
10
10
ENDCHAR
STARTCHAR 023A
ENCODING 570
SWIDTH 666 0
DWIDTH 6 0
BBX 6 8 0 -1
BITMAP
10
30
30
58
78
68
A4
40
ENDCHAR
STARTCHAR 023B
ENCODING 571
SWIDTH 777 0
DWIDTH 7 0
BBX 6 8 0 -1
BITMAP
30
5C
94
A0
A4
64
78
20
ENDCHAR
STARTCHAR 023C
ENCODING 572
SWIDTH 555 0
DWIDTH 5 0
BBX 4 7 0 -1
BITMAP
10
70
90
A0
D0
70
40
ENDCHAR
STARTCHAR 023D
ENCODING 573
SWIDTH 555 0
DWIDTH 5 0
BBX 5 6 0 0
BITMAP
40
40
E0
40
40
78
ENDCHAR
STARTCHAR 023E
ENCODING 574
SWIDTH 666 0
DWIDTH 6 0
BBX 5 9 0 -1
BITMAP
08
F8
30
30
20
20
20
20
40
ENDCHAR
STARTCHAR 0241
ENCODING 577
SWIDTH 555 0
DWIDTH 5 0
BBX 4 7 1 0
BITMAP
E0
90
20
20
40
40
40
ENDCHAR
STARTCHAR 0242
ENCODING 578
SWIDTH 555 0
DWIDTH 5 0
BBX 4 5 1 0
BITMAP
E0
90
20
20
40
ENDCHAR
STARTCHAR 0243
ENCODING 579
SWIDTH 777 0
DWIDTH 7 0
BBX 6 7 0 0
BITMAP
78
44
44
78
44
E4
7C
ENDCHAR
STARTCHAR 0244
ENCODING 580
SWIDTH 888 0
DWIDTH 8 0
BBX 7 6 0 0
BITMAP
44
44
FE
44
44
3C
ENDCHAR
STARTCHAR 0245
ENCODING 581
SWIDTH 666 0
DWIDTH 6 0
BBX 6 6 0 0
BITMAP
30
30
50
48
48
84
ENDCHAR
STARTCHAR 0246
ENCODING 582
SWIDTH 666 0
DWIDTH 6 0
BBX 5 9 1 -1
BITMAP
20
F0
A0
A0
F0
C0
C0
F8
40
ENDCHAR
STARTCHAR 0247
ENCODING 583
SWIDTH 555 0
DWIDTH 5 0
BBX 5 7 0 -1
BITMAP
10
70
B0
F8
C0
70
40
ENDCHAR
STARTCHAR 0248
ENCODING 584
SWIDTH 555 0
DWIDTH 5 0
BBX 5 6 0 0
BITMAP
10
38
10
90
90
60
ENDCHAR
STARTCHAR 0249
ENCODING 585
SWIDTH 222 0
DWIDTH 2 0
BBX 2 9 0 -2
BITMAP
80
00
80
80
C0
80
80
80
80
ENDCHAR
STARTCHAR 024A
ENCODING 586
SWIDTH 888 0
DWIDTH 8 0
BBX 7 9 0 -2
BITMAP
78
44
84
84
84
44
3C
02
02
ENDCHAR
STARTCHAR 024B
ENCODING 587
SWIDTH 666 0
DWIDTH 6 0
BBX 5 7 0 -2
BITMAP
78
98
88
98
78
08
08
ENDCHAR
STARTCHAR 024C
ENCODING 588
SWIDTH 777 0
DWIDTH 7 0
BBX 6 7 0 0
BITMAP
7C
44
44
FC
44
44
44
ENDCHAR
STARTCHAR 024D
ENCODING 589
SWIDTH 444 0
DWIDTH 4 0
BBX 3 5 0 0
BITMAP
60
40
40
E0
40
ENDCHAR
STARTCHAR 024E
ENCODING 590
SWIDTH 777 0
DWIDTH 7 0
BBX 7 7 0 0
BITMAP
44
FE
28
10
10
10
10
ENDCHAR
STARTCHAR 024F
ENCODING 591
SWIDTH 666 0
DWIDTH 6 0
BBX 5 7 0 -2
BITMAP
48
F8
50
30
20
20
60
ENDCHAR
STARTCHAR 0250
ENCODING 592
SWIDTH 555 0
DWIDTH 5 0
BBX 5 5 0 0
BITMAP
F8
48
50
68
70
ENDCHAR
STARTCHAR 0251
ENCODING 593
SWIDTH 555 0
DWIDTH 5 0
BBX 5 5 0 0
BITMAP
78
88
88
88
78
ENDCHAR
STARTCHAR 0252
ENCODING 594
SWIDTH 555 0
DWIDTH 5 0
BBX 5 5 0 0
BITMAP
B0
48
48
48
30
ENDCHAR
STARTCHAR 0253
ENCODING 595
SWIDTH 555 0
DWIDTH 5 0
BBX 5 7 0 0
BITMAP
40
80
B0
48
88
50
70
ENDCHAR
STARTCHAR 0254
ENCODING 596
SWIDTH 555 0
DWIDTH 5 0
BBX 4 5 0 0
BITMAP
70
90
10
90
60
ENDCHAR
STARTCHAR 0256
ENCODING 598
SWIDTH 555 0
DWIDTH 5 0
BBX 5 8 0 -2
BITMAP
10
70
90
90
90
70
10
08
ENDCHAR
STARTCHAR 0257
ENCODING 599
SWIDTH 555 0
DWIDTH 5 0
BBX 5 7 0 0
BITMAP
08
10
70
90
90
90
60
ENDCHAR
STARTCHAR 0258
ENCODING 600
SWIDTH 555 0
DWIDTH 5 0
BBX 5 5 0 0
BITMAP
70
90
F8
10
70
ENDCHAR
STARTCHAR 0259
ENCODING 601
SWIDTH 555 0
DWIDTH 5 0
BBX 5 5 0 0
BITMAP
70
10
F8
90
70
ENDCHAR
STARTCHAR 025A
ENCODING 602
SWIDTH 777 0
DWIDTH 7 0
BBX 7 5 0 0
BITMAP
70
90
3C
CA
70
ENDCHAR
STARTCHAR 025B
ENCODING 603
SWIDTH 555 0
DWIDTH 5 0
BBX 4 5 0 0
BITMAP
70
90
60
90
70
ENDCHAR
STARTCHAR 025C
ENCODING 604
SWIDTH 555 0
DWIDTH 5 0
BBX 4 5 0 0
BITMAP
70
10
20
90
70
ENDCHAR
STARTCHAR 025D
ENCODING 605
SWIDTH 777 0
DWIDTH 7 0
BBX 7 5 0 0
BITMAP
7C
96
20
90
70
ENDCHAR
STARTCHAR 025E
ENCODING 606
SWIDTH 444 0
DWIDTH 4 0
BBX 4 5 0 0
BITMAP
70
90
B0
90
70
ENDCHAR
STARTCHAR 025F
ENCODING 607
SWIDTH 333 0
DWIDTH 3 0
BBX 2 7 0 -2
BITMAP
40
40
40
40
C0
40
C0
ENDCHAR
STARTCHAR 0260
ENCODING 608
SWIDTH 555 0
DWIDTH 5 0
BBX 5 8 0 -2
BITMAP
08
70
90
90
90
70
10
70
ENDCHAR
STARTCHAR 0261
ENCODING 609
SWIDTH 555 0
DWIDTH 5 0
BBX 4 7 0 -2
BITMAP
60
90
90
90
70
10
70
ENDCHAR
STARTCHAR 0265
ENCODING 613
SWIDTH 555 0
DWIDTH 5 0
BBX 3 7 1 -2
BITMAP
A0
A0
A0
A0
E0
20
20
ENDCHAR
STARTCHAR 0266
ENCODING 614
SWIDTH 555 0
DWIDTH 5 0
BBX 3 7 1 0
BITMAP
80
80
E0
A0
A0
A0
A0
ENDCHAR
STARTCHAR 0267
ENCODING 615
SWIDTH 555 0
DWIDTH 5 0
BBX 4 9 1 -2
BITMAP
80
80
E0
A0
A0
A0
A0
20
10
ENDCHAR
STARTCHAR 0268
ENCODING 616
SWIDTH 333 0
DWIDTH 3 0
BBX 3 7 0 0
BITMAP
40
00
40
E0
40
40
40
ENDCHAR
STARTCHAR 0269
ENCODING 617
SWIDTH 222 0
DWIDTH 2 0
BBX 1 5 1 0
BITMAP
80
80
80
80
80
ENDCHAR
STARTCHAR 026A
ENCODING 618
SWIDTH 333 0
DWIDTH 3 0
BBX 2 5 0 0
BITMAP
C0
40
40
40
C0
ENDCHAR
STARTCHAR 026B
ENCODING 619
SWIDTH 333 0
DWIDTH 3 0
BBX 3 6 0 0
BITMAP
40
40
E0
40
40
40
ENDCHAR
STARTCHAR 026D
ENCODING 621
SWIDTH 222 0
DWIDTH 2 0
BBX 1 8 1 -2
BITMAP
80
80
80
80
80
80
80
80
ENDCHAR
STARTCHAR 026F
ENCODING 623
SWIDTH 888 0
DWIDTH 8 0
BBX 6 5 1 0
BITMAP
A4
A4
A4
A4
DC
ENDCHAR
STARTCHAR 0270
ENCODING 624
SWIDTH 888 0
DWIDTH 8 0
BBX 6 7 1 -2
BITMAP
A4
A4
A4
A4
DC
04
04
ENDCHAR
STARTCHAR 0271
ENCODING 625
SWIDTH 888 0
DWIDTH 8 0
BBX 6 7 1 -2
BITMAP
7C
A4
A4
A4
A4
04
0C
ENDCHAR
STARTCHAR 0272
ENCODING 626
SWIDTH 555 0
DWIDTH 5 0
BBX 4 7 0 -2
BITMAP
30
50
90
90
90
80
80
ENDCHAR
STARTCHAR 0273
ENCODING 627
SWIDTH 555 0
DWIDTH 5 0
BBX 4 7 1 -2
BITMAP
60
A0
A0
A0
A0
20
10
ENDCHAR
STARTCHAR 0274
ENCODING 628
SWIDTH 555 0
DWIDTH 5 0
BBX 5 5 0 0
BITMAP
C8
C8
A8
98
98
ENDCHAR
STARTCHAR 0275
ENCODING 629
SWIDTH 555 0
DWIDTH 5 0
BBX 5 5 0 0
BITMAP
70
88
F8
90
70
ENDCHAR
STARTCHAR 0276
ENCODING 630
SWIDTH 1000 0
DWIDTH 9 0
BBX 8 5 0 0
BITMAP
76
89
8F
89
76
ENDCHAR
STARTCHAR 0278
ENCODING 632
SWIDTH 777 0
DWIDTH 7 0
BBX 6 8 0 -2
BITMAP
10
38
D4
94
D4
78
10
10
ENDCHAR
STARTCHAR 0279
ENCODING 633
SWIDTH 333 0
DWIDTH 3 0
BBX 2 5 1 0
BITMAP
40
40
40
40
C0
ENDCHAR
STARTCHAR 027A
ENCODING 634
SWIDTH 333 0
DWIDTH 3 0
BBX 2 6 1 0
BITMAP
40
40
40
40
40
C0
ENDCHAR
STARTCHAR 027B
ENCODING 635
SWIDTH 444 0
DWIDTH 4 0
BBX 3 7 1 -2
BITMAP
40
40
40
40
C0
40
60
ENDCHAR
STARTCHAR 027C
ENCODING 636
SWIDTH 333 0
DWIDTH 3 0
BBX 2 6 1 -1
BITMAP
40
80
80
80
80
80
ENDCHAR
STARTCHAR 027D
ENCODING 637
SWIDTH 333 0
DWIDTH 3 0
BBX 2 7 1 -2
BITMAP
40
80
80
80
80
80
80
ENDCHAR
STARTCHAR 027E
ENCODING 638
SWIDTH 222 0
DWIDTH 2 0
BBX 2 5 0 0
BITMAP
40
80
80
80
80
ENDCHAR
STARTCHAR 027F
ENCODING 639
SWIDTH 222 0
DWIDTH 2 0
BBX 2 5 0 0
BITMAP
80
40
40
40
40
ENDCHAR
STARTCHAR 0280
ENCODING 640
SWIDTH 555 0
DWIDTH 5 0
BBX 3 5 1 0
BITMAP
E0
A0
E0
A0
A0
ENDCHAR
STARTCHAR 0281
ENCODING 641
SWIDTH 555 0
DWIDTH 5 0
BBX 3 5 1 0
BITMAP
A0
A0
E0
A0
E0
ENDCHAR
STARTCHAR 0283
ENCODING 643
SWIDTH 444 0
DWIDTH 4 0
BBX 4 9 0 -2
BITMAP
30
20
40
40
40
40
40
40
C0
ENDCHAR
STARTCHAR 0284
ENCODING 644
SWIDTH 444 0
DWIDTH 4 0
BBX 4 9 0 -2
BITMAP
30
40
40
40
40
40
E0
40
C0
ENDCHAR
STARTCHAR 0285
ENCODING 645
SWIDTH 444 0
DWIDTH 4 0
BBX 4 5 0 0
BITMAP
C0
40
40
40
30
ENDCHAR
STARTCHAR 0287
ENCODING 647
SWIDTH 333 0
DWIDTH 3 0
BBX 2 6 0 0
BITMAP
C0
40
40
40
C0
40
ENDCHAR
STARTCHAR 0288
ENCODING 648
SWIDTH 333 0
DWIDTH 3 0
BBX 2 8 0 -2
BITMAP
40
C0
40
40
40
40
40
40
ENDCHAR
STARTCHAR 0289
ENCODING 649
SWIDTH 666 0
DWIDTH 6 0
BBX 6 5 0 0
BITMAP
48
FC
48
48
78
ENDCHAR
STARTCHAR 028A
ENCODING 650
SWIDTH 555 0
DWIDTH 5 0
BBX 5 5 0 0
BITMAP
D8
90
88
88
70
ENDCHAR
STARTCHAR 028C
ENCODING 652
SWIDTH 555 0
DWIDTH 5 0
BBX 4 5 0 0
BITMAP
20
60
50
90
90
ENDCHAR
STARTCHAR 028D
ENCODING 653
SWIDTH 777 0
DWIDTH 7 0
BBX 6 5 0 0
BITMAP
48
78
B4
B4
94
ENDCHAR
STARTCHAR 028E
ENCODING 654
SWIDTH 555 0
DWIDTH 5 0
BBX 4 7 0 0
BITMAP
30
20
20
60
50
90
90
ENDCHAR
STARTCHAR 028F
ENCODING 655
SWIDTH 444 0
DWIDTH 4 0
BBX 4 5 0 0
BITMAP
90
60
20
20
20
ENDCHAR
STARTCHAR 0292
ENCODING 658
SWIDTH 555 0
DWIDTH 5 0
BBX 4 7 0 -2
BITMAP
F0
10
60
10
10
90
70
ENDCHAR
STARTCHAR 0294
ENCODING 660
SWIDTH 555 0
DWIDTH 5 0
BBX 4 7 1 0
BITMAP
E0
90
20
20
40
40
40
ENDCHAR
STARTCHAR 0295
ENCODING 661
SWIDTH 555 0
DWIDTH 5 0
BBX 3 7 1 0
BITMAP
E0
A0
80
80
40
40
40
ENDCHAR
STARTCHAR 0296
ENCODING 662
SWIDTH 555 0
DWIDTH 5 0
BBX 4 7 1 0
BITMAP
40
40
40
20
20
90
E0
ENDCHAR
STARTCHAR 0297
ENCODING 663
SWIDTH 555 0
DWIDTH 5 0
BBX 4 7 0 -2
BITMAP
70
50
80
80
80
50
70
ENDCHAR
STARTCHAR 0298
ENCODING 664
SWIDTH 777 0
DWIDTH 7 0
BBX 7 7 0 0
BITMAP
38
44
82
92
82
44
38
ENDCHAR
STARTCHAR 029A
ENCODING 666
SWIDTH 444 0
DWIDTH 4 0
BBX 4 5 0 0
BITMAP
70
90
50
90
70
ENDCHAR
STARTCHAR 029C
ENCODING 668
SWIDTH 555 0
DWIDTH 5 0
BBX 4 5 1 0
BITMAP
90
90
F0
90
90
ENDCHAR
STARTCHAR 029E
ENCODING 670
SWIDTH 555 0
DWIDTH 5 0
BBX 3 7 1 -2
BITMAP
A0
E0
60
60
A0
20
20
ENDCHAR
STARTCHAR 029F
ENCODING 671
SWIDTH 444 0
DWIDTH 4 0
BBX 3 5 1 0
BITMAP
80
80
80
80
E0
ENDCHAR
STARTCHAR 02A0
ENCODING 672
SWIDTH 555 0
DWIDTH 5 0
BBX 5 8 0 -2
BITMAP
08
70
90
90
90
70
10
10
ENDCHAR
STARTCHAR 02A1
ENCODING 673
SWIDTH 555 0
DWIDTH 5 0
BBX 4 7 1 0
BITMAP
E0
90
20
20
40
E0
40
ENDCHAR
STARTCHAR 02A2
ENCODING 674
SWIDTH 555 0
DWIDTH 5 0
BBX 4 7 1 0
BITMAP
E0
90
80
C0
40
E0
40
ENDCHAR
STARTCHAR 02A3
ENCODING 675
SWIDTH 888 0
DWIDTH 8 0
BBX 8 6 0 0
BITMAP
10
6F
92
94
94
6F
ENDCHAR
STARTCHAR 02A4
ENCODING 676
SWIDTH 888 0
DWIDTH 8 0
BBX 8 8 0 -2
BITMAP
10
6F
93
96
91
71
09
07
ENDCHAR
STARTCHAR 02A6
ENCODING 678
SWIDTH 666 0
DWIDTH 6 0
BBX 6 6 0 0
BITMAP
40
D8
60
58
64
58
ENDCHAR
STARTCHAR 02A7
ENCODING 679
SWIDTH 555 0
DWIDTH 5 0
BBX 5 9 0 -2
BITMAP
18
60
E0
60
60
60
60
20
60
ENDCHAR
STARTCHAR 02A9
ENCODING 681
SWIDTH 777 0
DWIDTH 7 0
BBX 6 9 0 -2
BITMAP
40
40
FC
64
64
64
64
04
04
ENDCHAR
STARTCHAR 02AA
ENCODING 682
SWIDTH 555 0
DWIDTH 5 0
BBX 4 6 1 0
BITMAP
80
F0
80
E0
90
70
ENDCHAR
STARTCHAR 02AB
ENCODING 683
SWIDTH 555 0
DWIDTH 5 0
BBX 4 6 1 0
BITMAP
80
F0
A0
C0
C0
F0
ENDCHAR
STARTCHAR 02AC
ENCODING 684
SWIDTH 444 0
DWIDTH 4 0
BBX 4 6 0 0
BITMAP
D0
E0
20
90
E0
A0
ENDCHAR
STARTCHAR 02AD
ENCODING 685
SWIDTH 666 0
DWIDTH 6 0
BBX 5 6 0 0
BITMAP
F8
88
80
F8
88
80
ENDCHAR
STARTCHAR 02AE
ENCODING 686
SWIDTH 555 0
DWIDTH 5 0
BBX 5 8 0 -2
BITMAP
C0
48
48
48
48
78
08
08
ENDCHAR
STARTCHAR 02AF
ENCODING 687
SWIDTH 666 0
DWIDTH 6 0
BBX 6 8 0 -2
BITMAP
C0
48
48
48
48
78
08
0C
ENDCHAR
STARTCHAR 02B0
ENCODING 688
SWIDTH 333 0
DWIDTH 3 0
BBX 2 3 0 3
BITMAP
C0
C0
80
ENDCHAR
STARTCHAR 02B1
ENCODING 689
SWIDTH 333 0
DWIDTH 3 0
BBX 2 3 0 3
BITMAP
C0
C0
80
ENDCHAR
STARTCHAR 02B2
ENCODING 690
SWIDTH 111 0
DWIDTH 1 0
BBX 1 3 0 3
BITMAP
80
80
80
ENDCHAR
STARTCHAR 02B3
ENCODING 691
SWIDTH 222 0
DWIDTH 2 0
BBX 1 3 0 3
BITMAP
80
80
80
ENDCHAR
STARTCHAR 02B4
ENCODING 692
SWIDTH 222 0
DWIDTH 2 0
BBX 1 2 0 4
BITMAP
80
80
ENDCHAR
STARTCHAR 02B5
ENCODING 693
SWIDTH 222 0
DWIDTH 2 0
BBX 1 2 0 3
BITMAP
80
80
ENDCHAR
STARTCHAR 02B6
ENCODING 694
SWIDTH 333 0
DWIDTH 3 0
BBX 3 3 0 3
BITMAP
A0
E0
E0
ENDCHAR
STARTCHAR 02B7
ENCODING 695
SWIDTH 333 0
DWIDTH 3 0
BBX 3 3 0 3
BITMAP
C0
A0
A0
ENDCHAR
STARTCHAR 02B8
ENCODING 696
SWIDTH 222 0
DWIDTH 2 0
BBX 2 3 0 2
BITMAP
80
C0
80
ENDCHAR
STARTCHAR 02B9
ENCODING 697
SWIDTH 222 0
DWIDTH 2 0
BBX 0 0 0 4
BITMAP
ENDCHAR
STARTCHAR 02BA
ENCODING 698
SWIDTH 333 0
DWIDTH 3 0
BBX 0 0 0 4
BITMAP
ENDCHAR
STARTCHAR 02BB
ENCODING 699
SWIDTH 222 0
DWIDTH 2 0
BBX 1 3 1 4
BITMAP
80
80
80
ENDCHAR
STARTCHAR 02BC
ENCODING 700
SWIDTH 222 0
DWIDTH 2 0
BBX 1 2 1 4
BITMAP
80
80
ENDCHAR
STARTCHAR 02BD
ENCODING 701
SWIDTH 222 0
DWIDTH 2 0
BBX 1 1 1 4
BITMAP
80
ENDCHAR
STARTCHAR 02BE
ENCODING 702
SWIDTH 222 0
DWIDTH 2 0
BBX 0 0 1 5
BITMAP
ENDCHAR
STARTCHAR 02BF
ENCODING 703
SWIDTH 222 0
DWIDTH 2 0
BBX 0 0 1 5
BITMAP
ENDCHAR
STARTCHAR 02C0
ENCODING 704
SWIDTH 333 0
DWIDTH 3 0
BBX 2 3 0 3
BITMAP
40
C0
40
ENDCHAR
STARTCHAR 02C1
ENCODING 705
SWIDTH 333 0
DWIDTH 3 0
BBX 2 4 0 3
BITMAP
C0
80
80
40
ENDCHAR
STARTCHAR 02C2
ENCODING 706
SWIDTH 333 0
DWIDTH 3 0
BBX 3 3 0 3
BITMAP
20
C0
60
ENDCHAR
STARTCHAR 02C3
ENCODING 707
SWIDTH 333 0
DWIDTH 3 0
BBX 3 3 0 3
BITMAP
80
60
C0
ENDCHAR
STARTCHAR 02C4
ENCODING 708
SWIDTH 333 0
DWIDTH 3 0
BBX 2 3 0 3
BITMAP
40
C0
80
ENDCHAR
STARTCHAR 02C5
ENCODING 709
SWIDTH 333 0
DWIDTH 3 0
BBX 2 3 0 3
BITMAP
80
C0
40
ENDCHAR
STARTCHAR 02C6
ENCODING 710
SWIDTH 333 0
DWIDTH 3 0
BBX 3 2 0 5
BITMAP
40
A0
ENDCHAR
STARTCHAR 02C7
ENCODING 711
SWIDTH 333 0
DWIDTH 3 0
BBX 3 2 0 5
BITMAP
A0
40
ENDCHAR
STARTCHAR 02C8
ENCODING 712
SWIDTH 222 0
DWIDTH 2 0
BBX 0 0 0 5
BITMAP
ENDCHAR
STARTCHAR 02C9
ENCODING 713
SWIDTH 333 0
DWIDTH 3 0
BBX 3 1 0 5
BITMAP
E0
ENDCHAR
STARTCHAR 02CA
ENCODING 714
SWIDTH 333 0
DWIDTH 3 0
BBX 1 2 1 5
BITMAP
80
80
ENDCHAR
STARTCHAR 02CB
ENCODING 715
SWIDTH 333 0
DWIDTH 3 0
BBX 2 2 0 5
BITMAP
80
40
ENDCHAR
STARTCHAR 02CC
ENCODING 716
SWIDTH 222 0
DWIDTH 2 0
BBX 0 0 0 -2
BITMAP
ENDCHAR
STARTCHAR 02CD
ENCODING 717
SWIDTH 333 0
DWIDTH 3 0
BBX 3 1 0 -2
BITMAP
E0
ENDCHAR
STARTCHAR 02CE
ENCODING 718
SWIDTH 333 0
DWIDTH 3 0
BBX 2 2 0 -2
BITMAP
80
40
ENDCHAR
STARTCHAR 02CF
ENCODING 719
SWIDTH 333 0
DWIDTH 3 0
BBX 1 2 1 -2
BITMAP
80
80
ENDCHAR
STARTCHAR 02D0
ENCODING 720
SWIDTH 222 0
DWIDTH 2 0
BBX 2 4 0 0
BITMAP
C0
00
00
C0
ENDCHAR
STARTCHAR 02D1
ENCODING 721
SWIDTH 222 0
DWIDTH 2 0
BBX 2 2 0 1
BITMAP
C0
80
ENDCHAR
STARTCHAR 02D2
ENCODING 722
SWIDTH 222 0
DWIDTH 2 0
BBX 0 0 1 2
BITMAP
ENDCHAR
STARTCHAR 02D3
ENCODING 723
SWIDTH 222 0
DWIDTH 2 0
BBX 0 0 1 2
BITMAP
ENDCHAR
STARTCHAR 02D4
ENCODING 724
SWIDTH 333 0
DWIDTH 3 0
BBX 2 2 0 0
BITMAP
40
C0
ENDCHAR
STARTCHAR 02D5
ENCODING 725
SWIDTH 333 0
DWIDTH 3 0
BBX 2 2 0 0
BITMAP
C0
40
ENDCHAR
STARTCHAR 02D6
ENCODING 726
SWIDTH 333 0
DWIDTH 3 0
BBX 2 2 0 0
BITMAP
C0
40
ENDCHAR
STARTCHAR 02D7
ENCODING 727
SWIDTH 333 0
DWIDTH 3 0
BBX 3 1 0 2
BITMAP
E0
ENDCHAR
STARTCHAR 02D8
ENCODING 728
SWIDTH 333 0
DWIDTH 3 0
BBX 3 1 0 5
BITMAP
E0
ENDCHAR
STARTCHAR 02D9
ENCODING 729
SWIDTH 333 0
DWIDTH 3 0
BBX 1 1 1 5
BITMAP
80
ENDCHAR
STARTCHAR 02DA
ENCODING 730
SWIDTH 333 0
DWIDTH 3 0
BBX 1 2 1 5
BITMAP
80
80
ENDCHAR
STARTCHAR 02DB
ENCODING 731
SWIDTH 333 0
DWIDTH 3 0
BBX 1 2 1 -2
BITMAP
80
80
ENDCHAR
STARTCHAR 02DC
ENCODING 732
SWIDTH 333 0
DWIDTH 3 0
BBX 3 2 0 5
BITMAP
C0
60
ENDCHAR
STARTCHAR 02DD
ENCODING 733
SWIDTH 333 0
DWIDTH 3 0
BBX 3 1 0 5
BITMAP
A0
ENDCHAR
STARTCHAR 02DE
ENCODING 734
SWIDTH 444 0
DWIDTH 4 0
BBX 3 2 0 2
BITMAP
C0
20
ENDCHAR
STARTCHAR 02DF
ENCODING 735
SWIDTH 333 0
DWIDTH 3 0
BBX 1 1 1 4
BITMAP
80
ENDCHAR
STARTCHAR 02E0
ENCODING 736
SWIDTH 333 0
DWIDTH 3 0
BBX 2 4 0 2
BITMAP
80
C0
40
40
ENDCHAR
STARTCHAR 02E1
ENCODING 737
SWIDTH 111 0
DWIDTH 1 0
BBX 1 3 0 3
BITMAP
80
80
80
ENDCHAR
STARTCHAR 02E2
ENCODING 738
SWIDTH 222 0
DWIDTH 2 0
BBX 2 3 0 3
BITMAP
C0
C0
C0
ENDCHAR
STARTCHAR 02E3
ENCODING 739
SWIDTH 222 0
DWIDTH 2 0
BBX 2 3 0 3
BITMAP
C0
80
C0
ENDCHAR
STARTCHAR 02E4
ENCODING 740
SWIDTH 333 0
DWIDTH 3 0
BBX 2 4 0 3
BITMAP
C0
80
80
40
ENDCHAR
STARTCHAR 02E5
ENCODING 741
SWIDTH 444 0
DWIDTH 4 0
BBX 3 7 0 0
BITMAP
E0
20
20
20
20
20
20
ENDCHAR
STARTCHAR 02E6
ENCODING 742
SWIDTH 444 0
DWIDTH 4 0
BBX 3 6 0 0
BITMAP
20
E0
20
20
20
20
ENDCHAR
STARTCHAR 02E7
ENCODING 743
SWIDTH 444 0
DWIDTH 4 0
BBX 3 6 0 0
BITMAP
20
20
E0
20
20
20
ENDCHAR
STARTCHAR 02E8
ENCODING 744
SWIDTH 444 0
DWIDTH 4 0
BBX 3 6 0 0
BITMAP
20
20
20
20
E0
20
ENDCHAR
STARTCHAR 02E9
ENCODING 745
SWIDTH 444 0
DWIDTH 4 0
BBX 3 6 0 0
BITMAP
20
20
20
20
20
E0
ENDCHAR
STARTCHAR 02EA
ENCODING 746
SWIDTH 333 0
DWIDTH 3 0
BBX 3 5 0 0
BITMAP
80
80
80
80
E0
ENDCHAR
STARTCHAR 02EB
ENCODING 747
SWIDTH 333 0
DWIDTH 3 0
BBX 3 5 0 0
BITMAP
80
80
E0
80
80
ENDCHAR
STARTCHAR 02EC
ENCODING 748
SWIDTH 333 0
DWIDTH 3 0
BBX 3 2 0 -2
BITMAP
A0
40
ENDCHAR
STARTCHAR 02ED
ENCODING 749
SWIDTH 333 0
DWIDTH 3 0
BBX 3 2 0 4
BITMAP
E0
E0
ENDCHAR
STARTCHAR 02EE
ENCODING 750
SWIDTH 333 0
DWIDTH 3 0
BBX 3 2 0 5
BITMAP
A0
A0
ENDCHAR
STARTCHAR 02EF
ENCODING 751
SWIDTH 333 0
DWIDTH 3 0
BBX 2 2 0 -2
BITMAP
80
40
ENDCHAR
STARTCHAR 02F0
ENCODING 752
SWIDTH 333 0
DWIDTH 3 0
BBX 2 2 0 -2
BITMAP
40
80
ENDCHAR
STARTCHAR 02F1
ENCODING 753
SWIDTH 333 0
DWIDTH 3 0
BBX 1 2 1 -2
BITMAP
80
80
ENDCHAR
STARTCHAR 02F2
ENCODING 754
SWIDTH 333 0
DWIDTH 3 0
BBX 1 2 1 -2
BITMAP
80
80
ENDCHAR
STARTCHAR 02F3
ENCODING 755
SWIDTH 333 0
DWIDTH 3 0
BBX 1 2 1 -2
BITMAP
80
80
ENDCHAR
STARTCHAR 02F4
ENCODING 756
SWIDTH 333 0
DWIDTH 3 0
BBX 1 1 1 3
BITMAP
80
ENDCHAR
STARTCHAR 02F5
ENCODING 757
SWIDTH 333 0
DWIDTH 3 0
BBX 3 1 0 3
BITMAP
A0
ENDCHAR
STARTCHAR 02F6
ENCODING 758
SWIDTH 333 0
DWIDTH 3 0
BBX 3 1 0 3
BITMAP
A0
ENDCHAR
STARTCHAR 02F7
ENCODING 759
SWIDTH 333 0
DWIDTH 3 0
BBX 3 1 0 0
BITMAP
E0
ENDCHAR
STARTCHAR 02F8
ENCODING 760
SWIDTH 333 0
DWIDTH 3 0
BBX 1 4 1 2
BITMAP
80
00
00
80
ENDCHAR
STARTCHAR 02F9
ENCODING 761
SWIDTH 333 0
DWIDTH 3 0
BBX 1 2 1 4
BITMAP
80
80
ENDCHAR
STARTCHAR 02FA
ENCODING 762
SWIDTH 333 0
DWIDTH 3 0
BBX 1 2 1 4
BITMAP
80
80
ENDCHAR
STARTCHAR 02FB
ENCODING 763
SWIDTH 333 0
DWIDTH 3 0
BBX 1 1 1 1
BITMAP
80
ENDCHAR
STARTCHAR 02FC
ENCODING 764
SWIDTH 333 0
DWIDTH 3 0
BBX 1 1 1 1
BITMAP
80
ENDCHAR
STARTCHAR 02FD
ENCODING 765
SWIDTH 333 0
DWIDTH 3 0
BBX 3 1 0 0
BITMAP
E0
ENDCHAR
STARTCHAR 02FE
ENCODING 766
SWIDTH 333 0
DWIDTH 3 0
BBX 3 1 0 0
BITMAP
E0
ENDCHAR
STARTCHAR 02FF
ENCODING 767
SWIDTH 555 0
DWIDTH 5 0
BBX 4 2 1 0
BITMAP
F0
C0
ENDCHAR
STARTCHAR 0300
ENCODING 768
SWIDTH 0 0
DWIDTH 0 0
BBX 1 2 -3 5
BITMAP
80
80
ENDCHAR
STARTCHAR 0301
ENCODING 769
SWIDTH 0 0
DWIDTH 0 0
BBX 1 2 -3 5
BITMAP
80
80
ENDCHAR
STARTCHAR 0302
ENCODING 770
SWIDTH 0 0
DWIDTH 0 0
BBX 3 2 -4 5
BITMAP
40
A0
ENDCHAR
STARTCHAR 0303
ENCODING 771
SWIDTH 0 0
DWIDTH 0 0
BBX 3 2 -4 5
BITMAP
C0
60
ENDCHAR
STARTCHAR 0304
ENCODING 772
SWIDTH 0 0
DWIDTH 0 0
BBX 3 1 -4 5
BITMAP
E0
ENDCHAR
STARTCHAR 0305
ENCODING 773
SWIDTH 0 0
DWIDTH 0 0
BBX 3 1 -4 5
BITMAP
E0
ENDCHAR
STARTCHAR 0306
ENCODING 774
SWIDTH 0 0
DWIDTH 0 0
BBX 3 1 -4 5
BITMAP
E0
ENDCHAR
STARTCHAR 0307
ENCODING 775
SWIDTH 0 0
DWIDTH 0 0
BBX 1 1 -3 5
BITMAP
80
ENDCHAR
STARTCHAR 0308
ENCODING 776
SWIDTH 0 0
DWIDTH 0 0
BBX 3 1 -4 5
BITMAP
A0
ENDCHAR
STARTCHAR 0309
ENCODING 777
SWIDTH 0 0
DWIDTH 0 0
BBX 0 0 -3 6
BITMAP
ENDCHAR
STARTCHAR 030A
ENCODING 778
SWIDTH 0 0
DWIDTH 0 0
BBX 1 2 -3 5
BITMAP
80
80
ENDCHAR
STARTCHAR 030B
ENCODING 779
SWIDTH 0 0
DWIDTH 0 0
BBX 3 1 -4 5
BITMAP
A0
ENDCHAR
STARTCHAR 030C
ENCODING 780
SWIDTH 0 0
DWIDTH 0 0
BBX 3 2 -4 5
BITMAP
A0
40
ENDCHAR
STARTCHAR 030D
ENCODING 781
SWIDTH 0 0
DWIDTH 0 0
BBX 1 1 -3 5
BITMAP
80
ENDCHAR
STARTCHAR 030E
ENCODING 782
SWIDTH 0 0
DWIDTH 0 0
BBX 0 0 -3 5
BITMAP
ENDCHAR
STARTCHAR 030F
ENCODING 783
SWIDTH 0 0
DWIDTH 0 0
BBX 3 1 -4 5
BITMAP
A0
ENDCHAR
STARTCHAR 0310
ENCODING 784
SWIDTH 0 0
DWIDTH 0 0
BBX 3 2 -4 5
BITMAP
40
E0
ENDCHAR
STARTCHAR 0311
ENCODING 785
SWIDTH 0 0
DWIDTH 0 0
BBX 3 1 -4 5
BITMAP
E0
ENDCHAR
STARTCHAR 0312
ENCODING 786
SWIDTH 0 0
DWIDTH 0 0
BBX 1 3 -3 4
BITMAP
80
80
80
ENDCHAR
STARTCHAR 0313
ENCODING 787
SWIDTH 0 0
DWIDTH 0 0
BBX 1 2 -3 4
BITMAP
80
80
ENDCHAR
STARTCHAR 0314
ENCODING 788
SWIDTH 0 0
DWIDTH 0 0
BBX 1 2 -3 4
BITMAP
80
80
ENDCHAR
STARTCHAR 0315
ENCODING 789
SWIDTH 0 0
DWIDTH 0 0
BBX 1 2 -3 4
BITMAP
80
80
ENDCHAR
STARTCHAR 0316
ENCODING 790
SWIDTH 0 0
DWIDTH 0 0
BBX 1 2 -3 -2
BITMAP
80
80
ENDCHAR
STARTCHAR 0317
ENCODING 791
SWIDTH 0 0
DWIDTH 0 0
BBX 1 2 -3 -2
BITMAP
80
80
ENDCHAR
STARTCHAR 0318
ENCODING 792
SWIDTH 0 0
DWIDTH 0 0
BBX 3 3 -4 -3
BITMAP
20
E0
20
ENDCHAR
STARTCHAR 0319
ENCODING 793
SWIDTH 0 0
DWIDTH 0 0
BBX 3 3 -4 -3
BITMAP
80
E0
80
ENDCHAR
STARTCHAR 031A
ENCODING 794
SWIDTH 0 0
DWIDTH 0 0
BBX 3 1 -4 5
BITMAP
E0
ENDCHAR
STARTCHAR 031B
ENCODING 795
SWIDTH 0 0
DWIDTH 0 0
BBX 1 1 -3 5
BITMAP
80
ENDCHAR
STARTCHAR 031C
ENCODING 796
SWIDTH 0 0
DWIDTH 0 0
BBX 1 2 -3 -2
BITMAP
80
80
ENDCHAR
STARTCHAR 031D
ENCODING 797
SWIDTH 0 0
DWIDTH 0 0
BBX 3 3 -4 -3
BITMAP
40
40
E0
ENDCHAR
STARTCHAR 031E
ENCODING 798
SWIDTH 0 0
DWIDTH 0 0
BBX 3 3 -4 -3
BITMAP
E0
40
40
ENDCHAR
STARTCHAR 031F
ENCODING 799
SWIDTH 0 0
DWIDTH 0 0
BBX 3 3 -4 -3
BITMAP
40
E0
40
ENDCHAR
STARTCHAR 0320
ENCODING 800
SWIDTH 0 0
DWIDTH 0 0
BBX 3 1 -4 -2
BITMAP
E0
ENDCHAR
STARTCHAR 0321
ENCODING 801
SWIDTH 0 0
DWIDTH 0 0
BBX 1 2 -3 -2
BITMAP
80
80
ENDCHAR
STARTCHAR 0322
ENCODING 802
SWIDTH 0 0
DWIDTH 0 0
BBX 1 2 -3 -2
BITMAP
80
80
ENDCHAR
STARTCHAR 0323
ENCODING 803
SWIDTH 0 0
DWIDTH 0 0
BBX 1 1 -3 -2
BITMAP
80
ENDCHAR
STARTCHAR 0324
ENCODING 804
SWIDTH 0 0
DWIDTH 0 0
BBX 3 1 -4 -2
BITMAP
A0
ENDCHAR
STARTCHAR 0325
ENCODING 805
SWIDTH 0 0
DWIDTH 0 0
BBX 1 2 -3 -2
BITMAP
80
80
ENDCHAR
STARTCHAR 0326
ENCODING 806
SWIDTH 0 0
DWIDTH 0 0
BBX 1 2 -3 -3
BITMAP
80
80
ENDCHAR
STARTCHAR 0327
ENCODING 807
SWIDTH 0 0
DWIDTH 0 0
BBX 1 1 -3 -2
BITMAP
80
ENDCHAR
STARTCHAR 0328
ENCODING 808
SWIDTH 0 0
DWIDTH 0 0
BBX 1 2 -3 -2
BITMAP
80
80
ENDCHAR
STARTCHAR 0329
ENCODING 809
SWIDTH 0 0
DWIDTH 0 0
BBX 1 1 -3 -2
BITMAP
80
ENDCHAR
STARTCHAR 032A
ENCODING 810
SWIDTH 0 0
DWIDTH 0 0
BBX 3 1 -4 -1
BITMAP
E0
ENDCHAR
STARTCHAR 032B
ENCODING 811
SWIDTH 0 0
DWIDTH 0 0
BBX 5 1 -5 -2
BITMAP
F8
ENDCHAR
STARTCHAR 032C
ENCODING 812
SWIDTH 0 0
DWIDTH 0 0
BBX 3 2 -4 -2
BITMAP
A0
40
ENDCHAR
STARTCHAR 032D
ENCODING 813
SWIDTH 0 0
DWIDTH 0 0
BBX 3 2 -4 -2
BITMAP
40
A0
ENDCHAR
STARTCHAR 032E
ENCODING 814
SWIDTH 0 0
DWIDTH 0 0
BBX 3 1 -4 -2
BITMAP
E0
ENDCHAR
STARTCHAR 032F
ENCODING 815
SWIDTH 0 0
DWIDTH 0 0
BBX 3 1 -4 -2
BITMAP
E0
ENDCHAR
STARTCHAR 0330
ENCODING 816
SWIDTH 0 0
DWIDTH 0 0
BBX 3 2 -4 -2
BITMAP
C0
60
ENDCHAR
STARTCHAR 0331
ENCODING 817
SWIDTH 0 0
DWIDTH 0 0
BBX 3 1 -4 -2
BITMAP
E0
ENDCHAR
STARTCHAR 0332
ENCODING 818
SWIDTH 0 0
DWIDTH 0 0
BBX 3 1 -4 -2
BITMAP
E0
ENDCHAR
STARTCHAR 0333
ENCODING 819
SWIDTH 0 0
DWIDTH 0 0
BBX 3 2 -4 -3
BITMAP
E0
E0
ENDCHAR
STARTCHAR 0334
ENCODING 820
SWIDTH 0 0
DWIDTH 0 0
BBX 3 1 -4 2
BITMAP
E0
ENDCHAR
STARTCHAR 0335
ENCODING 821
SWIDTH 0 0
DWIDTH 0 0
BBX 3 1 -4 2
BITMAP
E0
ENDCHAR
STARTCHAR 0336
ENCODING 822
SWIDTH 0 0
DWIDTH 0 0
BBX 3 1 -4 2
BITMAP
E0
ENDCHAR
STARTCHAR 0337
ENCODING 823
SWIDTH 0 0
DWIDTH 0 0
BBX 3 3 -4 2
BITMAP
20
40
80
ENDCHAR
STARTCHAR 0338
ENCODING 824
SWIDTH 0 0
DWIDTH 0 0
BBX 3 6 -4 0
BITMAP
20
40
40
40
80
80
ENDCHAR
STARTCHAR 0339
ENCODING 825
SWIDTH 0 0
DWIDTH 0 0
BBX 1 2 -3 -2
BITMAP
80
80
ENDCHAR
STARTCHAR 033A
ENCODING 826
SWIDTH 0 0
DWIDTH 0 0
BBX 3 1 -4 -1
BITMAP
E0
ENDCHAR
STARTCHAR 033B
ENCODING 827
SWIDTH 0 0
DWIDTH 0 0
BBX 3 3 -4 -3
BITMAP
E0
A0
E0
ENDCHAR
STARTCHAR 033C
ENCODING 828
SWIDTH 0 0
DWIDTH 0 0
BBX 3 2 -4 -2
BITMAP
A0
40
ENDCHAR
STARTCHAR 033D
ENCODING 829
SWIDTH 0 0
DWIDTH 0 0
BBX 1 1 -3 6
BITMAP
80
ENDCHAR
STARTCHAR 033E
ENCODING 830
SWIDTH 0 0
DWIDTH 0 0
BBX 1 3 -3 4
BITMAP
80
80
80
ENDCHAR
STARTCHAR 033F
ENCODING 831
SWIDTH 0 0
DWIDTH 0 0
BBX 3 2 -4 4
BITMAP
E0
E0
ENDCHAR
STARTCHAR 0340
ENCODING 832
SWIDTH 0 0
DWIDTH 0 0
BBX 1 2 -3 5
BITMAP
80
80
ENDCHAR
STARTCHAR 0341
ENCODING 833
SWIDTH 0 0
DWIDTH 0 0
BBX 1 2 -3 5
BITMAP
80
80
ENDCHAR
STARTCHAR 0342
ENCODING 834
SWIDTH 0 0
DWIDTH 0 0
BBX 3 1 -4 5
BITMAP
E0
ENDCHAR
STARTCHAR 0343
ENCODING 835
SWIDTH 0 0
DWIDTH 0 0
BBX 1 2 -3 4
BITMAP
80
80
ENDCHAR
STARTCHAR 0344
ENCODING 836
SWIDTH 0 0
DWIDTH 0 0
BBX 3 1 -4 5
BITMAP
E0
ENDCHAR
STARTCHAR 0345
ENCODING 837
SWIDTH 0 0
DWIDTH 0 0
BBX 1 2 -3 -2
BITMAP
80
80
ENDCHAR
STARTCHAR 0346
ENCODING 838
SWIDTH 0 0
DWIDTH 0 0
BBX 3 1 -4 6
BITMAP
E0
ENDCHAR
STARTCHAR 0347
ENCODING 839
SWIDTH 0 0
DWIDTH 0 0
BBX 3 2 -4 -3
BITMAP
E0
E0
ENDCHAR
STARTCHAR 0348
ENCODING 840
SWIDTH 0 0
DWIDTH 0 0
BBX 0 0 -3 -2
BITMAP
ENDCHAR
STARTCHAR 0349
ENCODING 841
SWIDTH 0 0
DWIDTH 0 0
BBX 1 1 -3 -1
BITMAP
80
ENDCHAR
STARTCHAR 034A
ENCODING 842
SWIDTH 0 0
DWIDTH 0 0
BBX 3 2 -4 5
BITMAP
C0
60
ENDCHAR
STARTCHAR 034B
ENCODING 843
SWIDTH 0 0
DWIDTH 0 0
BBX 3 1 -4 6
BITMAP
E0
ENDCHAR
STARTCHAR 034C
ENCODING 844
SWIDTH 0 0
DWIDTH 0 0
BBX 3 2 -4 5
BITMAP
E0
E0
ENDCHAR
STARTCHAR 034D
ENCODING 845
SWIDTH 0 0
DWIDTH 0 0
BBX 7 2 -6 -2
BITMAP
44
FE
ENDCHAR
STARTCHAR 034E
ENCODING 846
SWIDTH 0 0
DWIDTH 0 0
BBX 1 3 -3 -3
BITMAP
80
80
80
ENDCHAR
STARTCHAR 034F
ENCODING 847
SWIDTH 0 0
DWIDTH 0 0
BBX 0 0 0 0
BITMAP
ENDCHAR
STARTCHAR 0350
ENCODING 848
SWIDTH 0 0
DWIDTH 0 0
BBX 3 3 -4 3
BITMAP
80
60
C0
ENDCHAR
STARTCHAR 0351
ENCODING 849
SWIDTH 0 0
DWIDTH 0 0
BBX 1 2 -3 5
BITMAP
80
80
ENDCHAR
STARTCHAR 0352
ENCODING 850
SWIDTH 0 0
DWIDTH 0 0
BBX 3 3 -4 5
BITMAP
E0
00
40
ENDCHAR
STARTCHAR 0353
ENCODING 851
SWIDTH 0 0
DWIDTH 0 0
BBX 1 1 -3 -1
BITMAP
80
ENDCHAR
STARTCHAR 0354
ENCODING 852
SWIDTH 0 0
DWIDTH 0 0
BBX 1 2 -3 -2
BITMAP
80
80
ENDCHAR
STARTCHAR 0355
ENCODING 853
SWIDTH 0 0
DWIDTH 0 0
BBX 1 2 -3 -2
BITMAP
80
80
ENDCHAR
STARTCHAR 0356
ENCODING 854
SWIDTH 0 0
DWIDTH 0 0
BBX 5 2 -5 -2
BITMAP
90
C8
ENDCHAR
STARTCHAR 0357
ENCODING 855
SWIDTH 0 0
DWIDTH 0 0
BBX 1 2 -3 5
BITMAP
80
80
ENDCHAR
STARTCHAR 0358
ENCODING 856
SWIDTH 0 0
DWIDTH 0 0
BBX 1 1 -2 5
BITMAP
80
ENDCHAR
STARTCHAR 0359
ENCODING 857
SWIDTH 0 0
DWIDTH 0 0
BBX 2 3 -4 -3
BITMAP
40
40
C0
ENDCHAR
STARTCHAR 035A
ENCODING 858
SWIDTH 0 0
DWIDTH 0 0
BBX 3 2 -4 -2
BITMAP
E0
E0
ENDCHAR
STARTCHAR 035B
ENCODING 859
SWIDTH 0 0
DWIDTH 0 0
BBX 3 1 -4 6
BITMAP
E0
ENDCHAR
STARTCHAR 035C
ENCODING 860
SWIDTH 0 0
DWIDTH 0 0
BBX 9 2 -7 -2
BITMAP
C180
3E00
ENDCHAR
STARTCHAR 035D
ENCODING 861
SWIDTH 0 0
DWIDTH 0 0
BBX 9 2 -7 5
BITMAP
C180
3E00
ENDCHAR
STARTCHAR 035E
ENCODING 862
SWIDTH 0 0
DWIDTH 0 0
BBX 9 1 -7 5
BITMAP
FF80
ENDCHAR
STARTCHAR 035F
ENCODING 863
SWIDTH 0 0
DWIDTH 0 0
BBX 9 1 -7 -2
BITMAP
FF80
ENDCHAR
STARTCHAR 0360
ENCODING 864
SWIDTH 0 0
DWIDTH 0 0
BBX 11 2 -8 6
BITMAP
7C60
C7C0
ENDCHAR
STARTCHAR 0361
ENCODING 865
SWIDTH 0 0
DWIDTH 0 0
BBX 9 2 -7 5
BITMAP
3E00
C180
ENDCHAR
STARTCHAR 0362
ENCODING 866
SWIDTH 0 0
DWIDTH 0 0
BBX 12 2 -9 0
BITMAP
FFE0
0030
ENDCHAR
STARTCHAR 0363
ENCODING 867
SWIDTH 0 0
DWIDTH 0 0
BBX 3 3 -4 4
BITMAP
40
40
E0
ENDCHAR
STARTCHAR 0364
ENCODING 868
SWIDTH 0 0
DWIDTH 0 0
BBX 3 3 -4 4
BITMAP
40
E0
40
ENDCHAR
STARTCHAR 0365
ENCODING 869
SWIDTH 0 0
DWIDTH 0 0
BBX 1 2 -3 6
BITMAP
80
80
ENDCHAR
STARTCHAR 0366
ENCODING 870
SWIDTH 0 0
DWIDTH 0 0
BBX 3 3 -4 4
BITMAP
40
A0
40
ENDCHAR
STARTCHAR 0367
ENCODING 871
SWIDTH 0 0
DWIDTH 0 0
BBX 1 2 -3 5
BITMAP
80
80
ENDCHAR
STARTCHAR 0368
ENCODING 872
SWIDTH 0 0
DWIDTH 0 0
BBX 2 3 -4 4
BITMAP
40
80
40
ENDCHAR
STARTCHAR 0369
ENCODING 873
SWIDTH 0 0
DWIDTH 0 0
BBX 3 4 -4 4
BITMAP
20
60
A0
60
ENDCHAR
STARTCHAR 036A
ENCODING 874
SWIDTH 0 0
DWIDTH 0 0
BBX 1 2 -3 5
BITMAP
80
80
ENDCHAR
STARTCHAR 036B
ENCODING 875
SWIDTH 0 0
DWIDTH 0 0
BBX 3 3 -4 4
BITMAP
E0
E0
40
ENDCHAR
STARTCHAR 036C
ENCODING 876
SWIDTH 0 0
DWIDTH 0 0
BBX 1 2 -3 4
BITMAP
80
80
ENDCHAR
STARTCHAR 036D
ENCODING 877
SWIDTH 0 0
DWIDTH 0 0
BBX 1 3 -3 4
BITMAP
80
80
80
ENDCHAR
STARTCHAR 036E
ENCODING 878
SWIDTH 0 0
DWIDTH 0 0
BBX 2 2 -4 5
BITMAP
C0
40
ENDCHAR
STARTCHAR 036F
ENCODING 879
SWIDTH 0 0
DWIDTH 0 0
BBX 1 1 -3 5
BITMAP
80
ENDCHAR
STARTCHAR 0374
ENCODING 884
SWIDTH 222 0
DWIDTH 2 0
BBX 0 0 0 4
BITMAP
ENDCHAR
STARTCHAR 0375
ENCODING 885
SWIDTH 222 0
DWIDTH 2 0
BBX 0 0 0 -2
BITMAP
ENDCHAR
STARTCHAR 037A
ENCODING 890
SWIDTH 111 0
DWIDTH 1 0
BBX 1 3 0 -3
BITMAP
80
80
80
ENDCHAR
STARTCHAR 037B
ENCODING 891
SWIDTH 555 0
DWIDTH 5 0
BBX 4 5 0 0
BITMAP
60
90
10
90
70
ENDCHAR
STARTCHAR 037C
ENCODING 892
SWIDTH 555 0
DWIDTH 5 0
BBX 4 5 0 0
BITMAP
70
90
A0
90
70
ENDCHAR
STARTCHAR 037D
ENCODING 893
SWIDTH 555 0
DWIDTH 5 0
BBX 4 5 0 0
BITMAP
70
90
10
B0
70
ENDCHAR
STARTCHAR 037E
ENCODING 894
SWIDTH 222 0
DWIDTH 2 0
BBX 1 6 1 -1
BITMAP
80
00
00
00
80
80
ENDCHAR
STARTCHAR 0384
ENCODING 900
SWIDTH 222 0
DWIDTH 2 0
BBX 1 2 0 4
BITMAP
80
80
ENDCHAR
STARTCHAR 0385
ENCODING 901
SWIDTH 333 0
DWIDTH 3 0
BBX 3 3 0 5
BITMAP
40
40
A0
ENDCHAR
STARTCHAR 0386
ENCODING 902
SWIDTH 777 0
DWIDTH 7 0
BBX 6 6 0 0
BITMAP
50
A8
28
38
44
44
ENDCHAR
STARTCHAR 0387
ENCODING 903
SWIDTH 333 0
DWIDTH 3 0
BBX 1 1 1 2
BITMAP
80
ENDCHAR
STARTCHAR 0388
ENCODING 904
SWIDTH 777 0
DWIDTH 7 0
BBX 7 6 0 0
BITMAP
BE
A0
3E
20
20
3E
ENDCHAR
STARTCHAR 0389
ENCODING 905
SWIDTH 888 0
DWIDTH 8 0
BBX 7 6 0 0
BITMAP
A2
A2
3E
22
22
22
ENDCHAR
STARTCHAR 038A
ENCODING 906
SWIDTH 444 0
DWIDTH 4 0
BBX 3 6 0 0
BITMAP
A0
A0
20
20
20
20
ENDCHAR
STARTCHAR 038C
ENCODING 908
SWIDTH 888 0
DWIDTH 8 0
BBX 8 7 0 0
BITMAP
1E
B3
A1
21
21
33
1E
ENDCHAR
STARTCHAR 038E
ENCODING 910
SWIDTH 888 0
DWIDTH 8 0
BBX 7 6 0 0
BITMAP
B2
92
0C
08
08
08
ENDCHAR
STARTCHAR 038F
ENCODING 911
SWIDTH 1000 0
DWIDTH 9 0
BBX 8 7 0 0
BITMAP
1E
B3
A1
21
21
12
3B
ENDCHAR
STARTCHAR 0390
ENCODING 912
SWIDTH 333 0
DWIDTH 3 0
BBX 2 8 0 0
BITMAP
40
40
C0
40
40
40
40
40
ENDCHAR
STARTCHAR 0391
ENCODING 913
SWIDTH 666 0
DWIDTH 6 0
BBX 6 6 0 0
BITMAP
30
30
50
78
48
84
ENDCHAR
STARTCHAR 0392
ENCODING 914
SWIDTH 777 0
DWIDTH 7 0
BBX 5 6 1 0
BITMAP
F0
88
F0
88
88
F0
ENDCHAR
STARTCHAR 0393
ENCODING 915
SWIDTH 666 0
DWIDTH 6 0
BBX 4 6 1 0
BITMAP
F0
80
80
80
80
80
ENDCHAR
STARTCHAR 0394
ENCODING 916
SWIDTH 777 0
DWIDTH 7 0
BBX 6 6 0 0
BITMAP
10
30
48
48
84
FC
ENDCHAR
STARTCHAR 0395
ENCODING 917
SWIDTH 666 0
DWIDTH 6 0
BBX 4 6 1 0
BITMAP
F0
80
F0
80
80
F0
ENDCHAR
STARTCHAR 0396
ENCODING 918
SWIDTH 666 0
DWIDTH 6 0
BBX 5 6 0 0
BITMAP
78
10
10
20
40
F8
ENDCHAR
STARTCHAR 0397
ENCODING 919
SWIDTH 777 0
DWIDTH 7 0
BBX 5 6 1 0
BITMAP
88
88
F8
88
88
88
ENDCHAR
STARTCHAR 0398
ENCODING 920
SWIDTH 777 0
DWIDTH 7 0
BBX 7 7 0 0
BITMAP
38
44
84
BA
84
44
38
ENDCHAR
STARTCHAR 0399
ENCODING 921
SWIDTH 333 0
DWIDTH 3 0
BBX 1 6 1 0
BITMAP
80
80
80
80
80
80
ENDCHAR
STARTCHAR 039A
ENCODING 922
SWIDTH 666 0
DWIDTH 6 0
BBX 5 6 1 0
BITMAP
90
A0
C0
A0
90
98
ENDCHAR
STARTCHAR 039B
ENCODING 923
SWIDTH 666 0
DWIDTH 6 0
BBX 6 6 0 0
BITMAP
30
30
50
48
48
84
ENDCHAR
STARTCHAR 039C
ENCODING 924
SWIDTH 888 0
DWIDTH 8 0
BBX 6 6 1 0
BITMAP
84
CC
CC
D4
B4
B4
ENDCHAR
STARTCHAR 039D
ENCODING 925
SWIDTH 777 0
DWIDTH 7 0
BBX 5 6 1 0
BITMAP
88
C8
C8
A8
98
88
ENDCHAR
STARTCHAR 039E
ENCODING 926
SWIDTH 666 0
DWIDTH 6 0
BBX 5 6 0 0
BITMAP
F8
00
78
00
00
F8
ENDCHAR
STARTCHAR 039F
ENCODING 927
SWIDTH 777 0
DWIDTH 7 0
BBX 7 7 0 0
BITMAP
38
44
84
82
84
44
38
ENDCHAR
STARTCHAR 03A0
ENCODING 928
SWIDTH 777 0
DWIDTH 7 0
BBX 5 6 1 0
BITMAP
F8
88
88
88
88
88
ENDCHAR
STARTCHAR 03A1
ENCODING 929
SWIDTH 666 0
DWIDTH 6 0
BBX 5 6 1 0
BITMAP
F0
88
F0
80
80
80
ENDCHAR
STARTCHAR 03A3
ENCODING 931
SWIDTH 666 0
DWIDTH 6 0
BBX 5 6 0 0
BITMAP
F8
40
20
20
40
F8
ENDCHAR
STARTCHAR 03A4
ENCODING 932
SWIDTH 555 0
DWIDTH 5 0
BBX 5 6 0 0
BITMAP
F8
20
20
20
20
20
ENDCHAR
STARTCHAR 03A5
ENCODING 933
SWIDTH 666 0
DWIDTH 6 0
BBX 4 6 1 0
BITMAP
90
90
60
20
20
20
ENDCHAR
STARTCHAR 03A6
ENCODING 934
SWIDTH 777 0
DWIDTH 7 0
BBX 6 6 0 0
BITMAP
78
54
94
54
78
10
ENDCHAR
STARTCHAR 03A7
ENCODING 935
SWIDTH 666 0
DWIDTH 6 0
BBX 4 6 1 0
BITMAP
90
90
60
60
90
90
ENDCHAR
STARTCHAR 03A8
ENCODING 936
SWIDTH 777 0
DWIDTH 7 0
BBX 6 6 1 0
BITMAP
A4
A4
A4
A4
F8
20
ENDCHAR
STARTCHAR 03A9
ENCODING 937
SWIDTH 777 0
DWIDTH 7 0
BBX 7 7 0 0
BITMAP
38
44
84
82
44
44
EE
ENDCHAR
STARTCHAR 03AA
ENCODING 938
SWIDTH 333 0
DWIDTH 3 0
BBX 2 8 0 0
BITMAP
C0
00
40
40
40
40
40
40
ENDCHAR
STARTCHAR 03AB
ENCODING 939
SWIDTH 666 0
DWIDTH 6 0
BBX 4 8 1 0
BITMAP
60
00
90
90
60
20
20
20
ENDCHAR
STARTCHAR 03AC
ENCODING 940
SWIDTH 666 0
DWIDTH 6 0
BBX 5 7 0 0
BITMAP
20
20
78
88
88
48
78
ENDCHAR
STARTCHAR 03AD
ENCODING 941
SWIDTH 555 0
DWIDTH 5 0
BBX 3 7 1 0
BITMAP
40
40
E0
A0
C0
80
E0
ENDCHAR
STARTCHAR 03AE
ENCODING 942
SWIDTH 666 0
DWIDTH 6 0
BBX 5 9 0 -2
BITMAP
20
40
B0
48
48
48
48
08
08
ENDCHAR
STARTCHAR 03AF
ENCODING 943
SWIDTH 333 0
DWIDTH 3 0
BBX 1 7 1 0
BITMAP
80
80
80
80
80
80
80
ENDCHAR
STARTCHAR 03B0
ENCODING 944
SWIDTH 666 0
DWIDTH 6 0
BBX 4 8 1 0
BITMAP
20
40
A0
90
90
90
90
E0
ENDCHAR
STARTCHAR 03B1
ENCODING 945
SWIDTH 666 0
DWIDTH 6 0
BBX 5 5 0 0
BITMAP
78
88
88
48
78
ENDCHAR
STARTCHAR 03B2
ENCODING 946
SWIDTH 666 0
DWIDTH 6 0
BBX 4 9 1 -2
BITMAP
E0
90
90
E0
90
90
E0
80
80
ENDCHAR
STARTCHAR 03B3
ENCODING 947
SWIDTH 555 0
DWIDTH 5 0
BBX 5 7 0 -2
BITMAP
88
50
50
60
20
20
20
ENDCHAR
STARTCHAR 03B4
ENCODING 948
SWIDTH 666 0
DWIDTH 6 0
BBX 5 7 0 0
BITMAP
70
20
70
48
88
48
70
ENDCHAR
STARTCHAR 03B5
ENCODING 949
SWIDTH 555 0
DWIDTH 5 0
BBX 3 5 1 0
BITMAP
E0
A0
C0
80
E0
ENDCHAR
STARTCHAR 03B6
ENCODING 950
SWIDTH 444 0
DWIDTH 4 0
BBX 4 9 0 -2
BITMAP
70
20
40
80
80
80
70
10
10
ENDCHAR
STARTCHAR 03B7
ENCODING 951
SWIDTH 666 0
DWIDTH 6 0
BBX 5 7 0 -2
BITMAP
B0
48
48
48
48
08
08
ENDCHAR
STARTCHAR 03B8
ENCODING 952
SWIDTH 666 0
DWIDTH 6 0
BBX 4 7 1 0
BITMAP
E0
90
90
F0
90
90
E0
ENDCHAR
STARTCHAR 03B9
ENCODING 953
SWIDTH 333 0
DWIDTH 3 0
BBX 1 5 1 0
BITMAP
80
80
80
80
80
ENDCHAR
STARTCHAR 03BA
ENCODING 954
SWIDTH 555 0
DWIDTH 5 0
BBX 4 5 1 0
BITMAP
A0
C0
C0
A0
90
ENDCHAR
STARTCHAR 03BB
ENCODING 955
SWIDTH 555 0
DWIDTH 5 0
BBX 5 7 0 0
BITMAP
40
60
20
60
50
50
88
ENDCHAR
STARTCHAR 03BC
ENCODING 956
SWIDTH 666 0
DWIDTH 6 0
BBX 4 7 1 -2
BITMAP
90
90
90
90
F0
80
80
ENDCHAR
STARTCHAR 03BD
ENCODING 957
SWIDTH 555 0
DWIDTH 5 0
BBX 5 5 0 0
BITMAP
88
50
50
60
20
ENDCHAR
STARTCHAR 03BE
ENCODING 958
SWIDTH 555 0
DWIDTH 5 0
BBX 4 9 0 -2
BITMAP
70
40
40
30
C0
80
70
10
10
ENDCHAR
STARTCHAR 03BF
ENCODING 959
SWIDTH 666 0
DWIDTH 6 0
BBX 5 5 0 0
BITMAP
70
48
88
48
70
ENDCHAR
STARTCHAR 03C0
ENCODING 960
SWIDTH 555 0
DWIDTH 5 0
BBX 5 5 0 0
BITMAP
F8
48
48
48
48
ENDCHAR
STARTCHAR 03C1
ENCODING 961
SWIDTH 666 0
DWIDTH 6 0
BBX 4 7 1 -2
BITMAP
E0
90
90
90
E0
80
80
ENDCHAR
STARTCHAR 03C2
ENCODING 962
SWIDTH 555 0
DWIDTH 5 0
BBX 5 7 0 -2
BITMAP
70
C8
80
80
60
10
10
ENDCHAR
STARTCHAR 03C3
ENCODING 963
SWIDTH 666 0
DWIDTH 6 0
BBX 5 5 0 0
BITMAP
78
48
88
48
70
ENDCHAR
STARTCHAR 03C4
ENCODING 964
SWIDTH 555 0
DWIDTH 5 0
BBX 4 5 0 0
BITMAP
F0
20
20
20
20
ENDCHAR
STARTCHAR 03C5
ENCODING 965
SWIDTH 666 0
DWIDTH 6 0
BBX 4 5 1 0
BITMAP
90
90
90
90
E0
ENDCHAR
STARTCHAR 03C6
ENCODING 966
SWIDTH 777 0
DWIDTH 7 0
BBX 5 8 1 -2
BITMAP
20
F0
A8
A8
A8
F0
20
20
ENDCHAR
STARTCHAR 03C7
ENCODING 967
SWIDTH 555 0
DWIDTH 5 0
BBX 5 7 0 -2
BITMAP
80
50
20
20
60
50
88
ENDCHAR
STARTCHAR 03C8
ENCODING 968
SWIDTH 777 0
DWIDTH 7 0
BBX 5 8 1 -2
BITMAP
20
28
A8
A8
A8
F0
20
20
ENDCHAR
STARTCHAR 03C9
ENCODING 969
SWIDTH 777 0
DWIDTH 7 0
BBX 6 5 0 0
BITMAP
44
94
94
54
6C
ENDCHAR
STARTCHAR 03CA
ENCODING 970
SWIDTH 333 0
DWIDTH 3 0
BBX 2 6 0 0
BITMAP
C0
40
40
40
40
40
ENDCHAR
STARTCHAR 03CB
ENCODING 971
SWIDTH 666 0
DWIDTH 6 0
BBX 4 6 1 0
BITMAP
A0
90
90
90
90
E0
ENDCHAR
STARTCHAR 03CC
ENCODING 972
SWIDTH 666 0
DWIDTH 6 0
BBX 5 7 0 0
BITMAP
20
20
70
48
88
48
70
ENDCHAR
STARTCHAR 03CD
ENCODING 973
SWIDTH 666 0
DWIDTH 6 0
BBX 4 7 1 0
BITMAP
40
40
90
90
90
90
E0
ENDCHAR
STARTCHAR 03CE
ENCODING 974
SWIDTH 777 0
DWIDTH 7 0
BBX 6 7 0 0
BITMAP
10
20
44
94
94
54
6C
ENDCHAR
STARTCHAR 03F2
ENCODING 1010
SWIDTH 555 0
DWIDTH 5 0
BBX 4 5 0 0
BITMAP
70
90
80
90
70
ENDCHAR
STARTCHAR 03F3
ENCODING 1011
SWIDTH 222 0
DWIDTH 2 0
BBX 1 9 0 -2
BITMAP
80
00
80
80
80
80
80
80
80
ENDCHAR
STARTCHAR 03F4
ENCODING 1012
SWIDTH 777 0
DWIDTH 7 0
BBX 7 7 0 0
BITMAP
38
44
84
7E
84
44
38
ENDCHAR
STARTCHAR 03F5
ENCODING 1013
SWIDTH 555 0
DWIDTH 5 0
BBX 4 5 0 0
BITMAP
70
90
E0
90
70
ENDCHAR
STARTCHAR 03F6
ENCODING 1014
SWIDTH 555 0
DWIDTH 5 0
BBX 4 5 0 0
BITMAP
70
90
30
90
70
ENDCHAR
STARTCHAR 03F7
ENCODING 1015
SWIDTH 666 0
DWIDTH 6 0
BBX 5 6 1 0
BITMAP
F0
88
88
F0
80
80
ENDCHAR
STARTCHAR 03F8
ENCODING 1016
SWIDTH 555 0
DWIDTH 5 0
BBX 4 8 1 -2
BITMAP
80
E0
90
90
90
E0
80
80
ENDCHAR
STARTCHAR 03F9
ENCODING 1017
SWIDTH 777 0
DWIDTH 7 0
BBX 6 7 0 0
BITMAP
38
44
80
80
84
44
38
ENDCHAR
STARTCHAR 03FA
ENCODING 1018
SWIDTH 888 0
DWIDTH 8 0
BBX 6 6 1 0
BITMAP
8C
8C
D4
D4
B4
A4
ENDCHAR
STARTCHAR 03FB
ENCODING 1019
SWIDTH 777 0
DWIDTH 7 0
BBX 5 7 1 -2
BITMAP
88
98
D8
E8
A8
80
80
ENDCHAR
STARTCHAR 03FC
ENCODING 1020
SWIDTH 666 0
DWIDTH 6 0
BBX 6 7 0 -2
BITMAP
38
24
44
24
58
F0
40
ENDCHAR
STARTCHAR 03FD
ENCODING 1021
SWIDTH 777 0
DWIDTH 7 0
BBX 6 7 0 0
BITMAP
78
44
04
04
84
44
38
ENDCHAR
STARTCHAR 03FE
ENCODING 1022
SWIDTH 777 0
DWIDTH 7 0
BBX 6 7 0 0
BITMAP
38
44
80
90
84
44
38
ENDCHAR
STARTCHAR 03FF
ENCODING 1023
SWIDTH 777 0
DWIDTH 7 0
BBX 6 7 0 0
BITMAP
78
44
04
14
84
44
38
ENDCHAR
STARTCHAR 0400
ENCODING 1024
SWIDTH 666 0
DWIDTH 6 0
BBX 4 9 1 0
BITMAP
40
40
F0
80
80
F0
80
80
F0
ENDCHAR
STARTCHAR 0401
ENCODING 1025
SWIDTH 666 0
DWIDTH 6 0
BBX 4 8 1 0
BITMAP
60
F0
80
80
F0
80
80
F0
ENDCHAR
STARTCHAR 0402
ENCODING 1026
SWIDTH 777 0
DWIDTH 7 0
BBX 6 9 0 -2
BITMAP
F8
20
20
3C
24
24
24
04
18
ENDCHAR
STARTCHAR 0403
ENCODING 1027
SWIDTH 555 0
DWIDTH 5 0
BBX 3 8 1 0
BITMAP
40
E0
80
80
80
80
80
80
ENDCHAR
STARTCHAR 0404
ENCODING 1028
SWIDTH 777 0
DWIDTH 7 0
BBX 6 7 0 0
BITMAP
38
44
80
F0
84
44
38
ENDCHAR
STARTCHAR 0405
ENCODING 1029
SWIDTH 666 0
DWIDTH 6 0
BBX 6 7 0 0
BITMAP
78
48
40
30
88
4C
78
ENDCHAR
STARTCHAR 0406
ENCODING 1030
SWIDTH 333 0
DWIDTH 3 0
BBX 1 6 1 0
BITMAP
80
80
80
80
80
80
ENDCHAR
STARTCHAR 0407
ENCODING 1031
SWIDTH 333 0
DWIDTH 3 0
BBX 2 8 0 0
BITMAP
C0
00
40
40
40
40
40
40
ENDCHAR
STARTCHAR 0408
ENCODING 1032
SWIDTH 555 0
DWIDTH 5 0
BBX 4 6 0 0
BITMAP
10
10
10
10
90
60
ENDCHAR
STARTCHAR 0409
ENCODING 1033
SWIDTH 1000 0
DWIDTH 9 0
BBX 9 7 0 0
BITMAP
7800
4800
4800
4F00
4880
4880
CF00
ENDCHAR
STARTCHAR 040A
ENCODING 1034
SWIDTH 1000 0
DWIDTH 9 0
BBX 7 6 1 0
BITMAP
90
90
FE
92
92
9E
ENDCHAR
STARTCHAR 040B
ENCODING 1035
SWIDTH 777 0
DWIDTH 7 0
BBX 6 7 0 0
BITMAP
F8
20
20
3C
24
24
24
ENDCHAR
STARTCHAR 040C
ENCODING 1036
SWIDTH 666 0
DWIDTH 6 0
BBX 5 8 1 0
BITMAP
20
00
90
A0
C0
A0
90
88
ENDCHAR
STARTCHAR 040D
ENCODING 1037
SWIDTH 777 0
DWIDTH 7 0
BBX 5 9 1 0
BITMAP
40
20
00
98
98
A8
C8
C8
88
ENDCHAR
STARTCHAR 040E
ENCODING 1038
SWIDTH 666 0
DWIDTH 6 0
BBX 6 8 0 0
BITMAP
38
84
48
48
28
30
10
60
ENDCHAR
STARTCHAR 040F
ENCODING 1039
SWIDTH 777 0
DWIDTH 7 0
BBX 5 7 1 -1
BITMAP
88
88
88
88
88
F8
20
ENDCHAR
STARTCHAR 0410
ENCODING 1040
SWIDTH 666 0
DWIDTH 6 0
BBX 6 7 0 0
BITMAP
30
30
30
48
78
48
84
ENDCHAR
STARTCHAR 0411
ENCODING 1041
SWIDTH 666 0
DWIDTH 6 0
BBX 5 7 1 0
BITMAP
F0
80
80
F0
88
88
F0
ENDCHAR
STARTCHAR 0412
ENCODING 1042
SWIDTH 666 0
DWIDTH 6 0
BBX 5 7 1 0
BITMAP
F0
90
90
F0
88
88
F0
ENDCHAR
STARTCHAR 0413
ENCODING 1043
SWIDTH 555 0
DWIDTH 5 0
BBX 3 7 1 0
BITMAP
E0
80
80
80
80
80
80
ENDCHAR
STARTCHAR 0414
ENCODING 1044
SWIDTH 666 0
DWIDTH 6 0
BBX 6 8 0 -1
BITMAP
7C
44
44
44
44
44
FC
84
ENDCHAR
STARTCHAR 0415
ENCODING 1045
SWIDTH 666 0
DWIDTH 6 0
BBX 4 7 1 0
BITMAP
F0
80
80
F0
80
80
F0
ENDCHAR
STARTCHAR 0416
ENCODING 1046
SWIDTH 1000 0
DWIDTH 9 0
BBX 8 6 0 0
BITMAP
49
6B
3E
2A
49
C9
ENDCHAR
STARTCHAR 0417
ENCODING 1047
SWIDTH 666 0
DWIDTH 6 0
BBX 6 7 0 0
BITMAP
78
48
08
38
04
84
78
ENDCHAR
STARTCHAR 0418
ENCODING 1048
SWIDTH 777 0
DWIDTH 7 0
BBX 5 6 1 0
BITMAP
98
98
A8
C8
C8
88
ENDCHAR
STARTCHAR 0419
ENCODING 1049
SWIDTH 777 0
DWIDTH 7 0
BBX 5 8 1 0
BITMAP
70
00
98
A8
A8
C8
C8
88
ENDCHAR
STARTCHAR 041A
ENCODING 1050
SWIDTH 666 0
DWIDTH 6 0
BBX 5 6 1 0
BITMAP
90
A0
C0
A0
90
88
ENDCHAR
STARTCHAR 041B
ENCODING 1051
SWIDTH 666 0
DWIDTH 6 0
BBX 6 7 0 0
BITMAP
7C
44
44
44
44
44
C4
ENDCHAR
STARTCHAR 041C
ENCODING 1052
SWIDTH 888 0
DWIDTH 8 0
BBX 6 6 1 0
BITMAP
8C
8C
D4
D4
B4
A4
ENDCHAR
STARTCHAR 041D
ENCODING 1053
SWIDTH 777 0
DWIDTH 7 0
BBX 5 6 1 0
BITMAP
88
88
F8
88
88
88
ENDCHAR
STARTCHAR 041E
ENCODING 1054
SWIDTH 777 0
DWIDTH 7 0
BBX 7 7 0 0
BITMAP
38
44
82
82
82
44
38
ENDCHAR
STARTCHAR 041F
ENCODING 1055
SWIDTH 777 0
DWIDTH 7 0
BBX 5 7 1 0
BITMAP
F8
88
88
88
88
88
88
ENDCHAR
STARTCHAR 0420
ENCODING 1056
SWIDTH 666 0
DWIDTH 6 0
BBX 4 7 1 0
BITMAP
F0
90
90
F0
80
80
80
ENDCHAR
STARTCHAR 0421
ENCODING 1057
SWIDTH 777 0
DWIDTH 7 0
BBX 6 7 0 0
BITMAP
38
44
80
80
84
44
38
ENDCHAR
STARTCHAR 0422
ENCODING 1058
SWIDTH 666 0
DWIDTH 6 0
BBX 5 7 0 0
BITMAP
F8
20
20
20
20
20
20
ENDCHAR
STARTCHAR 0423
ENCODING 1059
SWIDTH 666 0
DWIDTH 6 0
BBX 6 6 0 0
BITMAP
84
48
48
30
10
60
ENDCHAR
STARTCHAR 0424
ENCODING 1060
SWIDTH 888 0
DWIDTH 8 0
BBX 7 7 0 0
BITMAP
10
7C
52
92
92
52
7C
ENDCHAR
STARTCHAR 0425
ENCODING 1061
SWIDTH 666 0
DWIDTH 6 0
BBX 4 6 1 0
BITMAP
90
90
60
60
90
90
ENDCHAR
STARTCHAR 0426
ENCODING 1062
SWIDTH 777 0
DWIDTH 7 0
BBX 6 7 1 -1
BITMAP
88
88
88
88
88
FC
04
ENDCHAR
STARTCHAR 0427
ENCODING 1063
SWIDTH 666 0
DWIDTH 6 0
BBX 5 6 0 0
BITMAP
88
88
88
78
08
08
ENDCHAR
STARTCHAR 0428
ENCODING 1064
SWIDTH 1000 0
DWIDTH 9 0
BBX 7 6 1 0
BITMAP
92
92
92
92
92
FE
ENDCHAR
STARTCHAR 0429
ENCODING 1065
SWIDTH 1000 0
DWIDTH 9 0
BBX 8 7 1 -1
BITMAP
92
92
92
92
92
FF
01
ENDCHAR
STARTCHAR 042A
ENCODING 1066
SWIDTH 888 0
DWIDTH 8 0
BBX 7 7 0 0
BITMAP
E0
20
20
3E
22
22
3E
ENDCHAR
STARTCHAR 042B
ENCODING 1067
SWIDTH 888 0
DWIDTH 8 0
BBX 6 6 1 0
BITMAP
84
84
F4
94
94
F4
ENDCHAR
STARTCHAR 042C
ENCODING 1068
SWIDTH 666 0
DWIDTH 6 0
BBX 4 6 1 0
BITMAP
80
80
F0
90
90
F0
ENDCHAR
STARTCHAR 042D
ENCODING 1069
SWIDTH 777 0
DWIDTH 7 0
BBX 6 7 0 0
BITMAP
78
44
04
1C
84
44
38
ENDCHAR
STARTCHAR 042E
ENCODING 1070
SWIDTH 1000 0
DWIDTH 9 0
BBX 8 7 1 0
BITMAP
9C
A2
A1
C1
A1
A2
9C
ENDCHAR
STARTCHAR 042F
ENCODING 1071
SWIDTH 666 0
DWIDTH 6 0
BBX 5 7 1 0
BITMAP
F8
88
88
78
88
88
88
ENDCHAR
STARTCHAR 0430
ENCODING 1072
SWIDTH 555 0
DWIDTH 5 0
BBX 5 5 0 0
BITMAP
70
90
70
90
68
ENDCHAR
STARTCHAR 0431
ENCODING 1073
SWIDTH 555 0
DWIDTH 5 0
BBX 5 6 0 0
BITMAP
70
70
88
88
88
70
ENDCHAR
STARTCHAR 0432
ENCODING 1074
SWIDTH 555 0
DWIDTH 5 0
BBX 4 5 1 0
BITMAP
E0
A0
E0
90
E0
ENDCHAR
STARTCHAR 0433
ENCODING 1075
SWIDTH 444 0
DWIDTH 4 0
BBX 3 5 1 0
BITMAP
E0
80
80
80
80
ENDCHAR
STARTCHAR 0434
ENCODING 1076
SWIDTH 555 0
DWIDTH 5 0
BBX 5 6 0 -1
BITMAP
78
48
48
48
F8
88
ENDCHAR
STARTCHAR 0435
ENCODING 1077
SWIDTH 555 0
DWIDTH 5 0
BBX 5 5 0 0
BITMAP
70
88
F8
90
70
ENDCHAR
STARTCHAR 0436
ENCODING 1078
SWIDTH 777 0
DWIDTH 7 0
BBX 7 5 0 0
BITMAP
54
54
38
54
92
ENDCHAR
STARTCHAR 0437
ENCODING 1079
SWIDTH 555 0
DWIDTH 5 0
BBX 4 5 0 0
BITMAP
70
90
30
90
70
ENDCHAR
STARTCHAR 0438
ENCODING 1080
SWIDTH 555 0
DWIDTH 5 0
BBX 4 5 1 0
BITMAP
B0
B0
D0
90
90
ENDCHAR
STARTCHAR 0439
ENCODING 1081
SWIDTH 555 0
DWIDTH 5 0
BBX 4 6 1 0
BITMAP
E0
10
B0
D0
90
90
ENDCHAR
STARTCHAR 043A
ENCODING 1082
SWIDTH 555 0
DWIDTH 5 0
BBX 3 5 1 0
BITMAP
A0
C0
C0
A0
A0
ENDCHAR
STARTCHAR 043B
ENCODING 1083
SWIDTH 555 0
DWIDTH 5 0
BBX 5 5 0 0
BITMAP
78
48
48
48
88
ENDCHAR
STARTCHAR 043C
ENCODING 1084
SWIDTH 666 0
DWIDTH 6 0
BBX 4 5 1 0
BITMAP
90
B0
F0
F0
F0
ENDCHAR
STARTCHAR 043D
ENCODING 1085
SWIDTH 555 0
DWIDTH 5 0
BBX 3 5 1 0
BITMAP
A0
A0
E0
A0
A0
ENDCHAR
STARTCHAR 043E
ENCODING 1086
SWIDTH 555 0
DWIDTH 5 0
BBX 5 5 0 0
BITMAP
70
88
88
88
70
ENDCHAR
STARTCHAR 043F
ENCODING 1087
SWIDTH 555 0
DWIDTH 5 0
BBX 3 5 1 0
BITMAP
E0
A0
A0
A0
A0
ENDCHAR
STARTCHAR 0440
ENCODING 1088
SWIDTH 555 0
DWIDTH 5 0
BBX 4 7 1 -2
BITMAP
E0
90
90
90
E0
80
80
ENDCHAR
STARTCHAR 0441
ENCODING 1089
SWIDTH 555 0
DWIDTH 5 0
BBX 4 5 0 0
BITMAP
70
90
80
90
70
ENDCHAR
STARTCHAR 0442
ENCODING 1090
SWIDTH 555 0
DWIDTH 5 0
BBX 4 5 0 0
BITMAP
F0
20
20
20
20
ENDCHAR
STARTCHAR 0443
ENCODING 1091
SWIDTH 555 0
DWIDTH 5 0
BBX 4 7 0 -2
BITMAP
90
90
50
60
20
40
40
ENDCHAR
STARTCHAR 0444
ENCODING 1092
SWIDTH 777 0
DWIDTH 7 0
BBX 7 8 0 -2
BITMAP
10
76
9A
92
92
7C
10
10
ENDCHAR
STARTCHAR 0445
ENCODING 1093
SWIDTH 555 0
DWIDTH 5 0
BBX 4 5 0 0
BITMAP
D0
60
20
60
90
ENDCHAR
STARTCHAR 0446
ENCODING 1094
SWIDTH 555 0
DWIDTH 5 0
BBX 4 6 1 -1
BITMAP
A0
A0
A0
A0
F0
10
ENDCHAR
STARTCHAR 0447
ENCODING 1095
SWIDTH 555 0
DWIDTH 5 0
BBX 4 5 0 0
BITMAP
90
90
70
10
10
ENDCHAR
STARTCHAR 0448
ENCODING 1096
SWIDTH 777 0
DWIDTH 7 0
BBX 5 5 1 0
BITMAP
A8
A8
A8
A8
F8
ENDCHAR
STARTCHAR 0449
ENCODING 1097
SWIDTH 777 0
DWIDTH 7 0
BBX 6 6 1 -1
BITMAP
A8
A8
A8
A8
FC
04
ENDCHAR
STARTCHAR 044A
ENCODING 1098
SWIDTH 666 0
DWIDTH 6 0
BBX 5 5 0 0
BITMAP
C0
40
38
48
38
ENDCHAR
STARTCHAR 044B
ENCODING 1099
SWIDTH 777 0
DWIDTH 7 0
BBX 5 5 1 0
BITMAP
88
88
E8
A8
E8
ENDCHAR
STARTCHAR 044C
ENCODING 1100
SWIDTH 555 0
DWIDTH 5 0
BBX 3 5 1 0
BITMAP
80
80
E0
A0
E0
ENDCHAR
STARTCHAR 044D
ENCODING 1101
SWIDTH 555 0
DWIDTH 5 0
BBX 4 5 0 0
BITMAP
70
90
30
90
70
ENDCHAR
STARTCHAR 044E
ENCODING 1102
SWIDTH 777 0
DWIDTH 7 0
BBX 6 5 1 0
BITMAP
38
C4
C4
C4
B8
ENDCHAR
STARTCHAR 044F
ENCODING 1103
SWIDTH 555 0
DWIDTH 5 0
BBX 4 5 0 0
BITMAP
70
90
70
90
90
ENDCHAR
STARTCHAR 0450
ENCODING 1104
SWIDTH 555 0
DWIDTH 5 0
BBX 5 7 0 0
BITMAP
20
20
70
88
F8
90
70
ENDCHAR
STARTCHAR 0451
ENCODING 1105
SWIDTH 555 0
DWIDTH 5 0
BBX 5 6 0 0
BITMAP
50
70
88
F8
90
70
ENDCHAR
STARTCHAR 0452
ENCODING 1106
SWIDTH 555 0
DWIDTH 5 0
BBX 5 8 0 -2
BITMAP
40
F0
70
50
48
48
10
10
ENDCHAR
STARTCHAR 0453
ENCODING 1107
SWIDTH 444 0
DWIDTH 4 0
BBX 3 7 1 0
BITMAP
40
00
E0
80
80
80
80
ENDCHAR
STARTCHAR 0454
ENCODING 1108
SWIDTH 555 0
DWIDTH 5 0
BBX 4 5 0 0
BITMAP
70
90
E0
90
70
ENDCHAR
STARTCHAR 0455
ENCODING 1109
SWIDTH 555 0
DWIDTH 5 0
BBX 4 5 0 0
BITMAP
70
80
60
90
70
ENDCHAR
STARTCHAR 0456
ENCODING 1110
SWIDTH 222 0
DWIDTH 2 0
BBX 1 6 1 0
BITMAP
80
00
80
80
80
80
ENDCHAR
STARTCHAR 0457
ENCODING 1111
SWIDTH 222 0
DWIDTH 2 0
BBX 2 6 0 0
BITMAP
C0
40
40
40
40
40
ENDCHAR
STARTCHAR 0458
ENCODING 1112
SWIDTH 222 0
DWIDTH 2 0
BBX 1 8 0 -2
BITMAP
80
00
80
80
80
80
80
80
ENDCHAR
STARTCHAR 0459
ENCODING 1113
SWIDTH 888 0
DWIDTH 8 0
BBX 7 5 0 0
BITMAP
78
48
4E
4A
8E
ENDCHAR
STARTCHAR 045A
ENCODING 1114
SWIDTH 777 0
DWIDTH 7 0
BBX 6 5 1 0
BITMAP
A0
A0
FC
A4
9C
ENDCHAR
STARTCHAR 045B
ENCODING 1115
SWIDTH 555 0
DWIDTH 5 0
BBX 5 6 0 0
BITMAP
40
F0
70
48
48
48
ENDCHAR
STARTCHAR 045C
ENCODING 1116
SWIDTH 555 0
DWIDTH 5 0
BBX 3 7 1 0
BITMAP
40
00
20
C0
C0
A0
A0
ENDCHAR
STARTCHAR 045D
ENCODING 1117
SWIDTH 555 0
DWIDTH 5 0
BBX 4 7 1 0
BITMAP
40
40
B0
B0
D0
90
90
ENDCHAR
STARTCHAR 045E
ENCODING 1118
SWIDTH 555 0
DWIDTH 5 0
BBX 4 8 0 -2
BITMAP
70
90
90
50
60
20
40
40
ENDCHAR
STARTCHAR 045F
ENCODING 1119
SWIDTH 555 0
DWIDTH 5 0
BBX 3 6 1 -1
BITMAP
A0
A0
A0
A0
E0
40
ENDCHAR
STARTCHAR 0462
ENCODING 1122
SWIDTH 777 0
DWIDTH 7 0
BBX 7 6 0 0
BITMAP
F8
20
3C
22
22
3C
ENDCHAR
STARTCHAR 0463
ENCODING 1123
SWIDTH 666 0
DWIDTH 6 0
BBX 5 6 0 0
BITMAP
40
F0
40
38
48
38
ENDCHAR
STARTCHAR 0464
ENCODING 1124
SWIDTH 1000 0
DWIDTH 9 0
BBX 8 7 1 0
BITMAP
9C
B2
A0
F8
A1
A2
9C
ENDCHAR
STARTCHAR 0465
ENCODING 1125
SWIDTH 777 0
DWIDTH 7 0
BBX 5 5 1 0
BITMAP
38
C8
F0
C8
B8
ENDCHAR
STARTCHAR 0466
ENCODING 1126
SWIDTH 666 0
DWIDTH 6 0
BBX 6 6 0 0
BITMAP
30
30
48
78
68
A4
ENDCHAR
STARTCHAR 0467
ENCODING 1127
SWIDTH 555 0
DWIDTH 5 0
BBX 4 5 0 0
BITMAP
20
60
50
70
B0
ENDCHAR
STARTCHAR 0468
ENCODING 1128
SWIDTH 1000 0
DWIDTH 9 0
BBX 7 7 1 0
BITMAP
88
88
94
94
FE
AA
AA
ENDCHAR
STARTCHAR 0469
ENCODING 1129
SWIDTH 777 0
DWIDTH 7 0
BBX 5 5 1 0
BITMAP
90
B0
A8
F8
D8
ENDCHAR
STARTCHAR 046A
ENCODING 1130
SWIDTH 777 0
DWIDTH 7 0
BBX 6 7 1 0
BITMAP
F8
50
30
78
A4
A4
A4
ENDCHAR
STARTCHAR 046B
ENCODING 1131
SWIDTH 555 0
DWIDTH 5 0
BBX 5 5 0 0
BITMAP
70
50
30
E8
A8
ENDCHAR
STARTCHAR 046C
ENCODING 1132
SWIDTH 1000 0
DWIDTH 9 0
BBX 9 7 0 0
BITMAP
9F00
8A00
8600
FF00
9480
A480
A480
ENDCHAR
STARTCHAR 046D
ENCODING 1133
SWIDTH 777 0
DWIDTH 7 0
BBX 6 5 0 0
BITMAP
9C
98
FC
B4
D4
ENDCHAR
STARTCHAR 0470
ENCODING 1136
SWIDTH 777 0
DWIDTH 7 0
BBX 6 6 1 0
BITMAP
A4
A4
A4
A4
F8
20
ENDCHAR
STARTCHAR 0471
ENCODING 1137
SWIDTH 777 0
DWIDTH 7 0
BBX 5 8 1 -2
BITMAP
20
28
A8
A8
A8
F0
20
20
ENDCHAR
STARTCHAR 0472
ENCODING 1138
SWIDTH 777 0
DWIDTH 7 0
BBX 7 7 0 0
BITMAP
38
44
82
FE
82
44
38
ENDCHAR
STARTCHAR 0473
ENCODING 1139
SWIDTH 555 0
DWIDTH 5 0
BBX 5 5 0 0
BITMAP
70
88
F8
88
70
ENDCHAR
STARTCHAR 0474
ENCODING 1140
SWIDTH 666 0
DWIDTH 6 0
BBX 6 7 0 0
BITMAP
84
48
48
48
30
30
30
ENDCHAR
STARTCHAR 0475
ENCODING 1141
SWIDTH 555 0
DWIDTH 5 0
BBX 5 5 0 0
BITMAP
98
90
60
60
60
ENDCHAR
STARTCHAR 0476
ENCODING 1142
SWIDTH 666 0
DWIDTH 6 0
BBX 6 8 0 0
BITMAP
30
84
48
48
48
30
30
30
ENDCHAR
STARTCHAR 0477
ENCODING 1143
SWIDTH 555 0
DWIDTH 5 0
BBX 5 6 0 0
BITMAP
60
88
90
50
60
20
ENDCHAR
STARTCHAR 0478
ENCODING 1144
SWIDTH 1333 0
DWIDTH 12 0
BBX 11 9 0 -2
BITMAP
3800
4520
8320
82A0
82C0
44C0
3840
0040
0080
ENDCHAR
STARTCHAR 0479
ENCODING 1145
SWIDTH 1111 0
DWIDTH 10 0
BBX 9 8 0 -2
BITMAP
7480
9480
8A80
8B00
9300
7100
0100
0200
ENDCHAR
STARTCHAR 0490
ENCODING 1168
SWIDTH 555 0
DWIDTH 5 0
BBX 4 8 1 0
BITMAP
10
F0
80
80
80
80
80
80
ENDCHAR
STARTCHAR 0491
ENCODING 1169
SWIDTH 444 0
DWIDTH 4 0
BBX 2 6 1 0
BITMAP
40
C0
80
80
80
80
ENDCHAR
STARTCHAR 0492
ENCODING 1170
SWIDTH 444 0
DWIDTH 4 0
BBX 4 7 0 0
BITMAP
70
80
80
C0
80
80
80
ENDCHAR
STARTCHAR 0493
ENCODING 1171
SWIDTH 333 0
DWIDTH 3 0
BBX 3 5 0 0
BITMAP
60
80
C0
80
80
ENDCHAR
STARTCHAR 0496
ENCODING 1174
SWIDTH 1111 0
DWIDTH 10 0
BBX 9 9 1 -2
BITMAP
9100
D200
5600
3C00
5600
5200
9100
0080
0080
ENDCHAR
STARTCHAR 0497
ENCODING 1175
SWIDTH 888 0
DWIDTH 8 0
BBX 7 7 1 -2
BITMAP
A4
68
70
68
A4
02
02
ENDCHAR
STARTCHAR 0498
ENCODING 1176
SWIDTH 666 0
DWIDTH 6 0
BBX 4 9 1 -2
BITMAP
F0
90
10
30
10
90
70
20
20
ENDCHAR
STARTCHAR 0499
ENCODING 1177
SWIDTH 555 0
DWIDTH 5 0
BBX 4 7 0 -2
BITMAP
70
10
30
90
70
20
20
ENDCHAR
STARTCHAR 049A
ENCODING 1178
SWIDTH 666 0
DWIDTH 6 0
BBX 5 9 1 -2
BITMAP
90
B0
E0
C0
A0
B0
90
08
08
ENDCHAR
STARTCHAR 049B
ENCODING 1179
SWIDTH 555 0
DWIDTH 5 0
BBX 4 7 1 -2
BITMAP
A0
C0
80
C0
A0
10
10
ENDCHAR
STARTCHAR 049C
ENCODING 1180
SWIDTH 777 0
DWIDTH 7 0
BBX 5 7 1 0
BITMAP
88
D0
E0
E0
D0
C8
88
ENDCHAR
STARTCHAR 049D
ENCODING 1181
SWIDTH 555 0
DWIDTH 5 0
BBX 4 5 1 0
BITMAP
90
E0
C0
E0
90
ENDCHAR
STARTCHAR 04A0
ENCODING 1184
SWIDTH 888 0
DWIDTH 8 0
BBX 7 7 0 0
BITMAP
E2
24
28
38
2C
24
22
ENDCHAR
STARTCHAR 04A1
ENCODING 1185
SWIDTH 666 0
DWIDTH 6 0
BBX 6 5 0 0
BITMAP
E8
30
30
28
24
ENDCHAR
STARTCHAR 04A2
ENCODING 1186
SWIDTH 777 0
DWIDTH 7 0
BBX 5 9 1 -2
BITMAP
88
88
88
F8
88
88
88
08
08
ENDCHAR
STARTCHAR 04A3
ENCODING 1187
SWIDTH 555 0
DWIDTH 5 0
BBX 4 6 1 -1
BITMAP
A0
A0
E0
A0
90
10
ENDCHAR
STARTCHAR 04A4
ENCODING 1188
SWIDTH 888 0
DWIDTH 8 0
BBX 7 7 1 0
BITMAP
8E
88
88
F8
88
88
88
ENDCHAR
STARTCHAR 04A5
ENCODING 1189
SWIDTH 666 0
DWIDTH 6 0
BBX 5 5 1 0
BITMAP
98
A0
E0
A0
A0
ENDCHAR
STARTCHAR 04AA
ENCODING 1194
SWIDTH 777 0
DWIDTH 7 0
BBX 6 9 0 -2
BITMAP
38
44
40
80
80
44
28
10
10
ENDCHAR
STARTCHAR 04AB
ENCODING 1195
SWIDTH 555 0
DWIDTH 5 0
BBX 4 7 0 -2
BITMAP
70
90
80
80
50
20
20
ENDCHAR
STARTCHAR 04AC
ENCODING 1196
SWIDTH 666 0
DWIDTH 6 0
BBX 5 9 0 -2
BITMAP
F8
20
20
20
20
20
20
10
10
ENDCHAR
STARTCHAR 04AD
ENCODING 1197
SWIDTH 555 0
DWIDTH 5 0
BBX 4 6 0 -1
BITMAP
F0
20
20
20
20
20
ENDCHAR
STARTCHAR 04AE
ENCODING 1198
SWIDTH 666 0
DWIDTH 6 0
BBX 5 6 1 0
BITMAP
88
90
60
20
20
20
ENDCHAR
STARTCHAR 04AF
ENCODING 1199
SWIDTH 666 0
DWIDTH 6 0
BBX 6 7 0 -2
BITMAP
84
48
48
30
30
10
10
ENDCHAR
STARTCHAR 04B0
ENCODING 1200
SWIDTH 666 0
DWIDTH 6 0
BBX 5 6 1 0
BITMAP
88
90
60
B0
60
20
ENDCHAR
STARTCHAR 04B1
ENCODING 1201
SWIDTH 666 0
DWIDTH 6 0
BBX 6 7 0 -2
BITMAP
84
48
48
30
78
10
10
ENDCHAR
STARTCHAR 04B2
ENCODING 1202
SWIDTH 666 0
DWIDTH 6 0
BBX 5 9 1 -2
BITMAP
98
90
60
20
60
90
90
08
08
ENDCHAR
STARTCHAR 04B3
ENCODING 1203
SWIDTH 555 0
DWIDTH 5 0
BBX 4 6 0 -1
BITMAP
90
60
20
60
90
10
ENDCHAR
STARTCHAR 04B4
ENCODING 1204
SWIDTH 888 0
DWIDTH 8 0
BBX 8 8 0 -1
BITMAP
FD
21
21
21
21
21
1F
01
ENDCHAR
STARTCHAR 04B5
ENCODING 1205
SWIDTH 666 0
DWIDTH 6 0
BBX 6 6 0 -1
BITMAP
F4
24
24
24
3C
04
ENDCHAR
STARTCHAR 04B6
ENCODING 1206
SWIDTH 666 0
DWIDTH 6 0
BBX 5 9 1 -2
BITMAP
88
88
88
88
F8
08
08
08
08
ENDCHAR
STARTCHAR 04B7
ENCODING 1207
SWIDTH 555 0
DWIDTH 5 0
BBX 4 6 1 -1
BITMAP
A0
A0
E0
20
10
10
ENDCHAR
STARTCHAR 04B8
ENCODING 1208
SWIDTH 666 0
DWIDTH 6 0
BBX 5 7 1 0
BITMAP
88
88
A8
A8
F8
28
08
ENDCHAR
STARTCHAR 04B9
ENCODING 1209
SWIDTH 555 0
DWIDTH 5 0
BBX 3 5 1 0
BITMAP
A0
E0
E0
60
20
ENDCHAR
STARTCHAR 04BA
ENCODING 1210
SWIDTH 666 0
DWIDTH 6 0
BBX 5 7 1 0
BITMAP
80
80
80
F0
88
88
88
ENDCHAR
STARTCHAR 04BB
ENCODING 1211
SWIDTH 555 0
DWIDTH 5 0
BBX 3 5 1 0
BITMAP
80
80
E0
A0
A0
ENDCHAR
STARTCHAR 04BC
ENCODING 1212
SWIDTH 888 0
DWIDTH 8 0
BBX 8 7 0 0
BITMAP
1E
32
A1
7F
21
32
1C
ENDCHAR
STARTCHAR 04BD
ENCODING 1213
SWIDTH 666 0
DWIDTH 6 0
BBX 6 5 0 0
BITMAP
38
A4
FC
24
38
ENDCHAR
STARTCHAR 04BE
ENCODING 1214
SWIDTH 888 0
DWIDTH 8 0
BBX 8 9 0 -2
BITMAP
1E
32
A1
7F
20
21
1E
08
0C
ENDCHAR
STARTCHAR 04BF
ENCODING 1215
SWIDTH 666 0
DWIDTH 6 0
BBX 6 7 0 -2
BITMAP
38
A4
FC
20
38
10
10
ENDCHAR
STARTCHAR 04C0
ENCODING 1216
SWIDTH 333 0
DWIDTH 3 0
BBX 1 6 1 0
BITMAP
80
80
80
80
80
80
ENDCHAR
STARTCHAR 04C1
ENCODING 1217
SWIDTH 888 0
DWIDTH 8 0
BBX 8 8 0 0
BITMAP
1C
00
49
6B
3E
2A
49
C9
ENDCHAR
STARTCHAR 04C2
ENCODING 1218
SWIDTH 666 0
DWIDTH 6 0
BBX 7 6 0 0
BITMAP
38
54
54
38
54
92
ENDCHAR
STARTCHAR 04C7
ENCODING 1223
SWIDTH 777 0
DWIDTH 7 0
BBX 5 9 1 -2
BITMAP
88
88
88
F8
88
88
88
08
18
ENDCHAR
STARTCHAR 04C8
ENCODING 1224
SWIDTH 555 0
DWIDTH 5 0
BBX 3 7 1 -2
BITMAP
A0
A0
E0
A0
A0
20
20
ENDCHAR
STARTCHAR 04CF
ENCODING 1231
SWIDTH 333 0
DWIDTH 3 0
BBX 1 5 1 0
BITMAP
80
80
80
80
80
ENDCHAR
STARTCHAR 04D0
ENCODING 1232
SWIDTH 666 0
DWIDTH 6 0
BBX 6 8 0 0
BITMAP
30
30
30
30
48
78
48
84
ENDCHAR
STARTCHAR 04D1
ENCODING 1233
SWIDTH 555 0
DWIDTH 5 0
BBX 5 6 0 0
BITMAP
70
70
90
70
90
68
ENDCHAR
STARTCHAR 04D2
ENCODING 1234
SWIDTH 666 0
DWIDTH 6 0
BBX 6 8 0 0
BITMAP
30
30
30
30
48
78
48
84
ENDCHAR
STARTCHAR 04D3
ENCODING 1235
SWIDTH 555 0
DWIDTH 5 0
BBX 5 6 0 0
BITMAP
50
70
90
70
90
68
ENDCHAR
STARTCHAR 04D4
ENCODING 1236
SWIDTH 1000 0
DWIDTH 9 0
BBX 9 7 0 0
BITMAP
1F00
2800
2800
4F00
7800
4800
8F80
ENDCHAR
STARTCHAR 04D5
ENCODING 1237
SWIDTH 888 0
DWIDTH 8 0
BBX 8 6 0 0
BITMAP
7E
99
7F
90
92
6E
ENDCHAR
STARTCHAR 04D6
ENCODING 1238
SWIDTH 666 0
DWIDTH 6 0
BBX 4 8 1 0
BITMAP
70
F0
80
80
F0
80
80
F0
ENDCHAR
STARTCHAR 04D7
ENCODING 1239
SWIDTH 555 0
DWIDTH 5 0
BBX 5 6 0 0
BITMAP
70
70
88
F8
90
70
ENDCHAR
STARTCHAR 04D8
ENCODING 1240
SWIDTH 777 0
DWIDTH 7 0
BBX 6 7 0 0
BITMAP
38
44
04
FC
84
4C
38
ENDCHAR
STARTCHAR 04D9
ENCODING 1241
SWIDTH 555 0
DWIDTH 5 0
BBX 5 5 0 0
BITMAP
70
88
F8
88
70
ENDCHAR
STARTCHAR 04DA
ENCODING 1242
SWIDTH 777 0
DWIDTH 7 0
BBX 6 8 0 0
BITMAP
30
38
44
04
FC
84
4C
38
ENDCHAR
STARTCHAR 04DB
ENCODING 1243
SWIDTH 555 0
DWIDTH 5 0
BBX 5 6 0 0
BITMAP
50
70
88
F8
88
70
ENDCHAR
STARTCHAR 04DC
ENCODING 1244
SWIDTH 1111 0
DWIDTH 10 0
BBX 8 8 1 0
BITMAP
28
00
92
D6
7C
54
92
93
ENDCHAR
STARTCHAR 04DD
ENCODING 1245
SWIDTH 888 0
DWIDTH 8 0
BBX 7 6 0 0
BITMAP
28
54
54
38
54
92
ENDCHAR
STARTCHAR 04DE
ENCODING 1246
SWIDTH 666 0
DWIDTH 6 0
BBX 6 8 0 0
BITMAP
30
78
88
08
38
04
84
78
ENDCHAR
STARTCHAR 04DF
ENCODING 1247
SWIDTH 555 0
DWIDTH 5 0
BBX 4 6 0 0
BITMAP
60
70
90
30
90
70
ENDCHAR
STARTCHAR 04E0
ENCODING 1248
SWIDTH 555 0
DWIDTH 5 0
BBX 5 7 0 0
BITMAP
F8
10
20
10
08
88
70
ENDCHAR
STARTCHAR 04E1
ENCODING 1249
SWIDTH 555 0
DWIDTH 5 0
BBX 4 7 0 -2
BITMAP
F0
10
60
10
10
90
70
ENDCHAR
STARTCHAR 04E2
ENCODING 1250
SWIDTH 777 0
DWIDTH 7 0
BBX 5 7 1 0
BITMAP
70
98
98
A8
C8
C8
88
ENDCHAR
STARTCHAR 04E3
ENCODING 1251
SWIDTH 555 0
DWIDTH 5 0
BBX 4 6 1 0
BITMAP
E0
B0
B0
D0
90
90
ENDCHAR
STARTCHAR 04E4
ENCODING 1252
SWIDTH 777 0
DWIDTH 7 0
BBX 5 8 1 0
BITMAP
60
00
98
98
A8
C8
C8
88
ENDCHAR
STARTCHAR 04E5
ENCODING 1253
SWIDTH 555 0
DWIDTH 5 0
BBX 4 6 1 0
BITMAP
A0
B0
B0
D0
90
90
ENDCHAR
STARTCHAR 04E6
ENCODING 1254
SWIDTH 777 0
DWIDTH 7 0
BBX 7 8 0 0
BITMAP
28
38
44
82
82
82
44
38
ENDCHAR
STARTCHAR 04E7
ENCODING 1255
SWIDTH 555 0
DWIDTH 5 0
BBX 5 6 0 0
BITMAP
50
70
88
88
88
70
ENDCHAR
STARTCHAR 04E8
ENCODING 1256
SWIDTH 777 0
DWIDTH 7 0
BBX 7 7 0 0
BITMAP
38
44
82
FE
82
44
38
ENDCHAR
STARTCHAR 04E9
ENCODING 1257
SWIDTH 555 0
DWIDTH 5 0
BBX 5 5 0 0
BITMAP
70
88
F8
88
70
ENDCHAR
STARTCHAR 04EA
ENCODING 1258
SWIDTH 777 0
DWIDTH 7 0
BBX 7 8 0 0
BITMAP
28
38
44
82
FE
82
44
38
ENDCHAR
STARTCHAR 04EB
ENCODING 1259
SWIDTH 555 0
DWIDTH 5 0
BBX 5 6 0 0
BITMAP
50
70
88
F8
88
70
ENDCHAR
STARTCHAR 04EC
ENCODING 1260
SWIDTH 777 0
DWIDTH 7 0
BBX 6 8 0 0
BITMAP
30
78
44
04
1C
84
44
38
ENDCHAR
STARTCHAR 04ED
ENCODING 1261
SWIDTH 555 0
DWIDTH 5 0
BBX 4 6 0 0
BITMAP
60
70
90
30
90
70
ENDCHAR
STARTCHAR 04EE
ENCODING 1262
SWIDTH 666 0
DWIDTH 6 0
BBX 6 7 0 0
BITMAP
30
84
48
48
30
10
60
ENDCHAR
STARTCHAR 04EF
ENCODING 1263
SWIDTH 555 0
DWIDTH 5 0
BBX 4 8 0 -2
BITMAP
70
90
90
50
60
20
20
40
ENDCHAR
STARTCHAR 04F0
ENCODING 1264
SWIDTH 666 0
DWIDTH 6 0
BBX 6 8 0 0
BITMAP
30
00
84
48
48
30
10
60
ENDCHAR
STARTCHAR 04F1
ENCODING 1265
SWIDTH 555 0
DWIDTH 5 0
BBX 4 8 0 -2
BITMAP
60
90
90
50
60
20
20
40
ENDCHAR
STARTCHAR 04F2
ENCODING 1266
SWIDTH 666 0
DWIDTH 6 0
BBX 6 8 0 0
BITMAP
30
00
84
48
48
30
10
60
ENDCHAR
STARTCHAR 04F3
ENCODING 1267
SWIDTH 555 0
DWIDTH 5 0
BBX 4 8 0 -2
BITMAP
50
90
90
50
60
20
20
40
ENDCHAR
STARTCHAR 04F4
ENCODING 1268
SWIDTH 666 0
DWIDTH 6 0
BBX 5 8 0 0
BITMAP
30
00
88
88
88
78
08
08
ENDCHAR
STARTCHAR 04F5
ENCODING 1269
SWIDTH 555 0
DWIDTH 5 0
BBX 4 6 0 0
BITMAP
50
90
90
70
10
10
ENDCHAR
STARTCHAR 04F6
ENCODING 1270
SWIDTH 555 0
DWIDTH 5 0
BBX 4 9 1 -2
BITMAP
F0
80
80
80
80
80
80
80
80
ENDCHAR
STARTCHAR 04F7
ENCODING 1271
SWIDTH 444 0
DWIDTH 4 0
BBX 3 6 1 -1
BITMAP
E0
80
80
80
80
80
ENDCHAR
STARTCHAR 04F8
ENCODING 1272
SWIDTH 888 0
DWIDTH 8 0
BBX 6 8 1 0
BITMAP
30
00
84
84
F4
94
94
F4
ENDCHAR
STARTCHAR 04F9
ENCODING 1273
SWIDTH 777 0
DWIDTH 7 0
BBX 5 6 1 0
BITMAP
50
88
88
E8
A8
E8
ENDCHAR
STARTCHAR 04FE
ENCODING 1278
SWIDTH 666 0
DWIDTH 6 0
BBX 5 7 1 0
BITMAP
98
90
60
F8
60
90
88
ENDCHAR
STARTCHAR 04FF
ENCODING 1279
SWIDTH 555 0
DWIDTH 5 0
BBX 4 5 0 0
BITMAP
90
60
70
60
90
ENDCHAR
STARTCHAR 0500
ENCODING 1280
SWIDTH 555 0
DWIDTH 5 0
BBX 4 7 1 0
BITMAP
10
10
10
F0
90
90
F0
ENDCHAR
STARTCHAR 0501
ENCODING 1281
SWIDTH 444 0
DWIDTH 4 0
BBX 4 7 0 0
BITMAP
10
10
70
90
90
90
70
ENDCHAR
STARTCHAR 0510
ENCODING 1296
SWIDTH 666 0
DWIDTH 6 0
BBX 5 7 0 0
BITMAP
78
48
40
60
80
48
78
ENDCHAR
STARTCHAR 0511
ENCODING 1297
SWIDTH 555 0
DWIDTH 5 0
BBX 4 5 0 0
BITMAP
70
40
60
90
70
ENDCHAR
STARTCHAR 0512
ENCODING 1298
SWIDTH 777 0
DWIDTH 7 0
BBX 6 9 0 -2
BITMAP
3C
44
44
44
44
44
C4
04
0C
ENDCHAR
STARTCHAR 0513
ENCODING 1299
SWIDTH 555 0
DWIDTH 5 0
BBX 5 7 0 -2
BITMAP
78
48
48
48
C8
08
10
ENDCHAR
STARTCHAR 0E3F
ENCODING 3647
SWIDTH 666 0
DWIDTH 6 0
BBX 5 9 1 -1
BITMAP
40
F0
D0
D0
F0
C8
C8
F0
40
ENDCHAR
STARTCHAR 10D0
ENCODING 4304
SWIDTH 555 0
DWIDTH 5 0
BBX 4 5 0 0
BITMAP
20
10
90
90
70
ENDCHAR
STARTCHAR 10D1
ENCODING 4305
SWIDTH 555 0
DWIDTH 5 0
BBX 5 7 0 0
BITMAP
40
20
70
88
88
48
70
ENDCHAR
STARTCHAR 10D2
ENCODING 4306
SWIDTH 555 0
DWIDTH 5 0
BBX 4 7 0 -2
BITMAP
60
10
20
D0
90
90
70
ENDCHAR
STARTCHAR 10D3
ENCODING 4307
SWIDTH 777 0
DWIDTH 7 0
BBX 7 7 0 -2
BITMAP
6C
92
92
92
4C
70
08
ENDCHAR
STARTCHAR 10D4
ENCODING 4308
SWIDTH 555 0
DWIDTH 5 0
BBX 4 7 0 -2
BITMAP
70
90
10
10
90
90
70
ENDCHAR
STARTCHAR 10D5
ENCODING 4309
SWIDTH 555 0
DWIDTH 5 0
BBX 4 7 0 -2
BITMAP
70
90
10
30
90
90
70
ENDCHAR
STARTCHAR 10D6
ENCODING 4310
SWIDTH 666 0
DWIDTH 6 0
BBX 5 7 0 0
BITMAP
60
A0
F0
48
48
48
30
ENDCHAR
STARTCHAR 10D7
ENCODING 4311
SWIDTH 888 0
DWIDTH 8 0
BBX 7 5 0 0
BITMAP
7E
8A
8A
92
72
ENDCHAR
STARTCHAR 10D8
ENCODING 4312
SWIDTH 555 0
DWIDTH 5 0
BBX 4 5 0 0
BITMAP
70
90
90
90
50
ENDCHAR
STARTCHAR 10D9
ENCODING 4313
SWIDTH 555 0
DWIDTH 5 0
BBX 4 7 0 -2
BITMAP
10
10
10
30
90
90
70
ENDCHAR
STARTCHAR 10DA
ENCODING 4314
SWIDTH 1000 0
DWIDTH 9 0
BBX 8 7 0 -2
BITMAP
7B
95
95
95
41
78
04
ENDCHAR
STARTCHAR 10DB
ENCODING 4315
SWIDTH 555 0
DWIDTH 5 0
BBX 5 7 0 0
BITMAP
70
48
78
88
88
88
70
ENDCHAR
STARTCHAR 10DC
ENCODING 4316
SWIDTH 555 0
DWIDTH 5 0
BBX 4 7 1 0
BITMAP
E0
80
E0
90
90
90
E0
ENDCHAR
STARTCHAR 10DD
ENCODING 4317
SWIDTH 777 0
DWIDTH 7 0
BBX 6 5 0 0
BITMAP
6C
94
94
94
44
ENDCHAR
STARTCHAR 10DE
ENCODING 4318
SWIDTH 555 0
DWIDTH 5 0
BBX 4 7 0 0
BITMAP
40
30
10
30
90
90
70
ENDCHAR
STARTCHAR 10DF
ENCODING 4319
SWIDTH 555 0
DWIDTH 5 0
BBX 4 7 0 -2
BITMAP
70
30
50
D0
90
90
70
ENDCHAR
STARTCHAR 10E0
ENCODING 4320
SWIDTH 777 0
DWIDTH 7 0
BBX 6 7 0 0
BITMAP
18
60
6C
94
94
94
44
ENDCHAR
STARTCHAR 10E1
ENCODING 4321
SWIDTH 555 0
DWIDTH 5 0
BBX 4 7 1 0
BITMAP
80
80
A0
A0
90
A0
E0
ENDCHAR
STARTCHAR 10E2
ENCODING 4322
SWIDTH 666 0
DWIDTH 6 0
BBX 6 7 0 -2
BITMAP
20
78
A8
84
84
48
78
ENDCHAR
STARTCHAR 10E3
ENCODING 4323
SWIDTH 555 0
DWIDTH 5 0
BBX 5 7 0 -2
BITMAP
F0
48
48
08
88
90
70
ENDCHAR
STARTCHAR 10E4
ENCODING 4324
SWIDTH 777 0
DWIDTH 7 0
BBX 7 7 0 -2
BITMAP
7C
92
92
94
72
22
1C
ENDCHAR
STARTCHAR 10E5
ENCODING 4325
SWIDTH 555 0
DWIDTH 5 0
BBX 4 9 0 -2
BITMAP
10
10
70
90
10
10
90
90
70
ENDCHAR
STARTCHAR 10E6
ENCODING 4326
SWIDTH 777 0
DWIDTH 7 0
BBX 6 7 0 -2
BITMAP
6C
94
94
94
44
70
08
ENDCHAR
STARTCHAR 10E7
ENCODING 4327
SWIDTH 555 0
DWIDTH 5 0
BBX 4 7 0 -2
BITMAP
90
90
90
70
10
90
70
ENDCHAR
STARTCHAR 10E8
ENCODING 4328
SWIDTH 555 0
DWIDTH 5 0
BBX 5 7 0 0
BITMAP
F0
48
78
88
88
88
70
ENDCHAR
STARTCHAR 10E9
ENCODING 4329
SWIDTH 555 0
DWIDTH 5 0
BBX 4 7 1 0
BITMAP
C0
A0
E0
90
90
90
A0
ENDCHAR
STARTCHAR 10EA
ENCODING 4330
SWIDTH 555 0
DWIDTH 5 0
BBX 5 7 0 -2
BITMAP
50
88
88
98
88
48
70
ENDCHAR
STARTCHAR 10EB
ENCODING 4331
SWIDTH 555 0
DWIDTH 5 0
BBX 5 7 0 0
BITMAP
08
08
78
88
88
88
70
ENDCHAR
STARTCHAR 10EC
ENCODING 4332
SWIDTH 555 0
DWIDTH 5 0
BBX 4 7 1 0
BITMAP
F0
A0
E0
90
90
90
E0
ENDCHAR
STARTCHAR 10ED
ENCODING 4333
SWIDTH 555 0
DWIDTH 5 0
BBX 5 9 0 -2
BITMAP
10
10
78
90
90
70
90
90
70
ENDCHAR
STARTCHAR 10EE
ENCODING 4334
SWIDTH 555 0
DWIDTH 5 0
BBX 4 7 1 0
BITMAP
80
80
E0
90
90
90
E0
ENDCHAR
STARTCHAR 10EF
ENCODING 4335
SWIDTH 555 0
DWIDTH 5 0
BBX 4 7 0 -2
BITMAP
20
F0
20
10
90
90
70
ENDCHAR
STARTCHAR 10F0
ENCODING 4336
SWIDTH 555 0
DWIDTH 5 0
BBX 4 7 0 0
BITMAP
20
10
30
10
30
90
70
ENDCHAR
STARTCHAR 10F1
ENCODING 4337
SWIDTH 555 0
DWIDTH 5 0
BBX 5 7 0 0
BITMAP
50
88
90
88
98
48
78
ENDCHAR
STARTCHAR 10F2
ENCODING 4338
SWIDTH 555 0
DWIDTH 5 0
BBX 4 5 0 0
BITMAP
70
90
90
50
F0
ENDCHAR
STARTCHAR 10F3
ENCODING 4339
SWIDTH 555 0
DWIDTH 5 0
BBX 5 7 0 -2
BITMAP
70
10
10
30
88
90
70
ENDCHAR
STARTCHAR 10F4
ENCODING 4340
SWIDTH 555 0
DWIDTH 5 0
BBX 5 8 0 -2
BITMAP
40
70
10
10
30
88
90
70
ENDCHAR
STARTCHAR 10F5
ENCODING 4341
SWIDTH 555 0
DWIDTH 5 0
BBX 5 7 0 0
BITMAP
70
90
78
10
78
90
70
ENDCHAR
STARTCHAR 10F6
ENCODING 4342
SWIDTH 777 0
DWIDTH 7 0
BBX 6 9 0 -2
BITMAP
18
10
78
54
94
54
78
10
30
ENDCHAR
STARTCHAR 10F7
ENCODING 4343
SWIDTH 555 0
DWIDTH 5 0
BBX 4 7 0 -2
BITMAP
60
10
20
40
90
90
70
ENDCHAR
STARTCHAR 10F8
ENCODING 4344
SWIDTH 555 0
DWIDTH 5 0
BBX 4 7 1 -2
BITMAP
A0
90
90
E0
80
90
E0
ENDCHAR
STARTCHAR 10F9
ENCODING 4345
SWIDTH 555 0
DWIDTH 5 0
BBX 4 7 0 -2
BITMAP
70
90
90
90
60
40
70
ENDCHAR
STARTCHAR 10FA
ENCODING 4346
SWIDTH 555 0
DWIDTH 5 0
BBX 4 5 0 0
BITMAP
70
90
90
40
70
ENDCHAR
STARTCHAR 10FB
ENCODING 4347
SWIDTH 555 0
DWIDTH 5 0
BBX 3 5 1 0
BITMAP
80
00
20
00
80
ENDCHAR
STARTCHAR 10FC
ENCODING 4348
SWIDTH 333 0
DWIDTH 3 0
BBX 2 5 1 3
BITMAP
C0
80
C0
C0
C0
ENDCHAR
STARTCHAR 10FD
ENCODING 4349
SWIDTH 555 0
DWIDTH 5 0
BBX 5 7 0 0
BITMAP
70
48
40
20
98
88
70
ENDCHAR
STARTCHAR 10FE
ENCODING 4350
SWIDTH 555 0
DWIDTH 5 0
BBX 4 5 0 0
BITMAP
F0
50
90
90
70
ENDCHAR
STARTCHAR 10FF
ENCODING 4351
SWIDTH 555 0
DWIDTH 5 0
BBX 5 5 0 0
BITMAP
70
88
88
48
70
ENDCHAR
STARTCHAR 1C90
ENCODING 7312
SWIDTH 555 0
DWIDTH 5 0
BBX 5 6 0 0
BITMAP
20
20
10
88
88
70
ENDCHAR
STARTCHAR 1C91
ENCODING 7313
SWIDTH 555 0
DWIDTH 5 0
BBX 5 6 0 0
BITMAP
40
20
D0
88
C8
70
ENDCHAR
STARTCHAR 1C92
ENCODING 7314
SWIDTH 555 0
DWIDTH 5 0
BBX 5 6 0 0
BITMAP
70
10
70
88
C8
70
ENDCHAR
STARTCHAR 1C93
ENCODING 7315
SWIDTH 888 0
DWIDTH 8 0
BBX 8 6 0 0
BITMAP
6E
91
91
4E
60
18
ENDCHAR
STARTCHAR 1C94
ENCODING 7316
SWIDTH 555 0
DWIDTH 5 0
BBX 5 6 0 0
BITMAP
70
48
08
88
88
70
ENDCHAR
STARTCHAR 1C95
ENCODING 7317
SWIDTH 555 0
DWIDTH 5 0
BBX 5 6 0 0
BITMAP
70
48
30
88
88
70
ENDCHAR
STARTCHAR 1C96
ENCODING 7318
SWIDTH 555 0
DWIDTH 5 0
BBX 5 6 0 0
BITMAP
60
A0
F0
48
48
70
ENDCHAR
STARTCHAR 1C97
ENCODING 7319
SWIDTH 888 0
DWIDTH 8 0
BBX 8 6 0 0
BITMAP
76
49
89
89
49
72
ENDCHAR
STARTCHAR 1C98
ENCODING 7320
SWIDTH 555 0
DWIDTH 5 0
BBX 5 6 0 0
BITMAP
70
48
88
88
88
50
ENDCHAR
STARTCHAR 1C99
ENCODING 7321
SWIDTH 555 0
DWIDTH 5 0
BBX 5 6 0 0
BITMAP
10
10
30
88
88
70
ENDCHAR
STARTCHAR 1C9A
ENCODING 7322
SWIDTH 1000 0
DWIDTH 9 0
BBX 9 6 0 0
BITMAP
6F00
9680
9480
5080
6080
1E00
ENDCHAR
STARTCHAR 1C9B
ENCODING 7323
SWIDTH 555 0
DWIDTH 5 0
BBX 5 6 0 0
BITMAP
70
78
48
88
48
70
ENDCHAR
STARTCHAR 1C9C
ENCODING 7324
SWIDTH 555 0
DWIDTH 5 0
BBX 4 7 1 0
BITMAP
E0
80
E0
90
90
90
E0
ENDCHAR
STARTCHAR 1C9D
ENCODING 7325
SWIDTH 777 0
DWIDTH 7 0
BBX 7 6 0 0
BITMAP
7C
52
92
92
92
42
ENDCHAR
STARTCHAR 1C9E
ENCODING 7326
SWIDTH 555 0
DWIDTH 5 0
BBX 5 6 0 0
BITMAP
20
10
30
90
88
70
ENDCHAR
STARTCHAR 1C9F
ENCODING 7327
SWIDTH 555 0
DWIDTH 5 0
BBX 5 6 0 0
BITMAP
78
28
C8
88
88
70
ENDCHAR
STARTCHAR 1CA0
ENCODING 7328
SWIDTH 777 0
DWIDTH 7 0
BBX 6 6 0 0
BITMAP
18
6C
94
94
84
44
ENDCHAR
STARTCHAR 1CA1
ENCODING 7329
SWIDTH 555 0
DWIDTH 5 0
BBX 4 6 1 0
BITMAP
80
A0
A0
90
90
E0
ENDCHAR
STARTCHAR 1CA2
ENCODING 7330
SWIDTH 777 0
DWIDTH 7 0
BBX 6 7 0 0
BITMAP
30
5C
94
94
84
44
38
ENDCHAR
STARTCHAR 1CA3
ENCODING 7331
SWIDTH 666 0
DWIDTH 6 0
BBX 5 6 0 0
BITMAP
F8
28
08
88
48
70
ENDCHAR
STARTCHAR 1CA4
ENCODING 7332
SWIDTH 777 0
DWIDTH 7 0
BBX 7 6 0 0
BITMAP
6E
92
96
74
22
3C
ENDCHAR
STARTCHAR 1CA5
ENCODING 7333
SWIDTH 555 0
DWIDTH 5 0
BBX 5 7 0 0
BITMAP
08
68
58
08
88
88
70
ENDCHAR
STARTCHAR 1CA6
ENCODING 7334
SWIDTH 777 0
DWIDTH 7 0
BBX 7 6 0 0
BITMAP
6C
94
92
52
64
18
ENDCHAR
STARTCHAR 1CA7
ENCODING 7335
SWIDTH 555 0
DWIDTH 5 0
BBX 5 6 0 0
BITMAP
88
88
78
08
08
70
ENDCHAR
STARTCHAR 1CA8
ENCODING 7336
SWIDTH 555 0
DWIDTH 5 0
BBX 5 6 0 0
BITMAP
F8
28
78
88
88
70
ENDCHAR
STARTCHAR 1CA9
ENCODING 7337
SWIDTH 555 0
DWIDTH 5 0
BBX 4 6 1 0
BITMAP
E0
E0
90
90
90
90
ENDCHAR
STARTCHAR 1CAA
ENCODING 7338
SWIDTH 666 0
DWIDTH 6 0
BBX 5 6 0 0
BITMAP
50
88
98
88
48
38
ENDCHAR
STARTCHAR 1CAB
ENCODING 7339
SWIDTH 666 0
DWIDTH 6 0
BBX 5 6 0 0
BITMAP
08
78
48
88
48
70
ENDCHAR
STARTCHAR 1CAC
ENCODING 7340
SWIDTH 666 0
DWIDTH 6 0
BBX 4 6 1 0
BITMAP
D0
A0
E0
90
90
E0
ENDCHAR
STARTCHAR 1CAD
ENCODING 7341
SWIDTH 666 0
DWIDTH 6 0
BBX 6 6 0 0
BITMAP
7C
88
78
88
88
70
ENDCHAR
STARTCHAR 1CAE
ENCODING 7342
SWIDTH 666 0
DWIDTH 6 0
BBX 4 6 1 0
BITMAP
80
E0
90
90
90
E0
ENDCHAR
STARTCHAR 1CAF
ENCODING 7343
SWIDTH 555 0
DWIDTH 5 0
BBX 5 6 0 0
BITMAP
F8
20
30
88
88
70
ENDCHAR
STARTCHAR 1CB0
ENCODING 7344
SWIDTH 555 0
DWIDTH 5 0
BBX 5 6 0 0
BITMAP
10
30
08
30
88
70
ENDCHAR
STARTCHAR 1CB1
ENCODING 7345
SWIDTH 666 0
DWIDTH 6 0
BBX 5 6 0 0
BITMAP
48
98
88
90
48
38
ENDCHAR
STARTCHAR 1CB2
ENCODING 7346
SWIDTH 555 0
DWIDTH 5 0
BBX 5 6 0 0
BITMAP
70
C8
88
88
50
78
ENDCHAR
STARTCHAR 1CB3
ENCODING 7347
SWIDTH 555 0
DWIDTH 5 0
BBX 5 7 0 0
BITMAP
78
08
10
30
88
88
70
ENDCHAR
STARTCHAR 1CB4
ENCODING 7348
SWIDTH 555 0
DWIDTH 5 0
BBX 5 6 0 0
BITMAP
78
10
30
88
88
70
ENDCHAR
STARTCHAR 1CB5
ENCODING 7349
SWIDTH 666 0
DWIDTH 6 0
BBX 5 6 0 0
BITMAP
70
78
08
78
88
70
ENDCHAR
STARTCHAR 1CB6
ENCODING 7350
SWIDTH 777 0
DWIDTH 7 0
BBX 6 7 0 0
BITMAP
78
54
94
54
78
10
30
ENDCHAR
STARTCHAR 1CB7
ENCODING 7351
SWIDTH 555 0
DWIDTH 5 0
BBX 5 6 0 0
BITMAP
70
50
20
C8
88
70
ENDCHAR
STARTCHAR 1CB8
ENCODING 7352
SWIDTH 555 0
DWIDTH 5 0
BBX 4 6 1 0
BITMAP
90
90
E0
80
90
E0
ENDCHAR
STARTCHAR 1CB9
ENCODING 7353
SWIDTH 555 0
DWIDTH 5 0
BBX 5 6 0 0
BITMAP
70
88
88
90
60
70
ENDCHAR
STARTCHAR 1CBA
ENCODING 7354
SWIDTH 555 0
DWIDTH 5 0
BBX 5 6 0 0
BITMAP
70
C8
88
48
60
10
ENDCHAR
STARTCHAR 1CBD
ENCODING 7357
SWIDTH 666 0
DWIDTH 6 0
BBX 5 6 0 0
BITMAP
70
88
40
B8
48
78
ENDCHAR
STARTCHAR 1CBE
ENCODING 7358
SWIDTH 555 0
DWIDTH 5 0
BBX 5 7 0 0
BITMAP
78
30
50
88
88
48
70
ENDCHAR
STARTCHAR 1CBF
ENCODING 7359
SWIDTH 666 0
DWIDTH 6 0
BBX 6 6 0 0
BITMAP
38
44
84
84
44
38
ENDCHAR
STARTCHAR 1D01
ENCODING 7425
SWIDTH 666 0
DWIDTH 6 0
BBX 6 5 0 0
BITMAP
3C
50
5C
70
9C
ENDCHAR
STARTCHAR 1D08
ENCODING 7432
SWIDTH 555 0
DWIDTH 5 0
BBX 4 5 0 0
BITMAP
70
90
20
10
70
ENDCHAR
STARTCHAR 1D09
ENCODING 7433
SWIDTH 222 0
DWIDTH 2 0
BBX 1 6 0 0
BITMAP
80
80
80
80
00
80
ENDCHAR
STARTCHAR 1D0E
ENCODING 7438
SWIDTH 555 0
DWIDTH 5 0
BBX 5 5 0 0
BITMAP
98
98
A8
C8
C8
ENDCHAR
STARTCHAR 1D11
ENCODING 7441
SWIDTH 666 0
DWIDTH 6 0
BBX 5 5 0 0
BITMAP
70
88
88
88
70
ENDCHAR
STARTCHAR 1D12
ENCODING 7442
SWIDTH 555 0
DWIDTH 5 0
BBX 5 4 0 0
BITMAP
70
88
88
48
ENDCHAR
STARTCHAR 1D13
ENCODING 7443
SWIDTH 666 0
DWIDTH 6 0
BBX 5 5 0 0
BITMAP
70
C8
A8
98
78
ENDCHAR
STARTCHAR 1D14
ENCODING 7444
SWIDTH 888 0
DWIDTH 8 0
BBX 8 5 0 0
BITMAP
76
89
F9
89
7E
ENDCHAR
STARTCHAR 1D16
ENCODING 7446
SWIDTH 555 0
DWIDTH 5 0
BBX 5 3 0 2
BITMAP
70
90
88
ENDCHAR
STARTCHAR 1D17
ENCODING 7447
SWIDTH 555 0
DWIDTH 5 0
BBX 5 3 0 0
BITMAP
88
90
70
ENDCHAR
STARTCHAR 1D18
ENCODING 7448
SWIDTH 555 0
DWIDTH 5 0
BBX 3 5 1 0
BITMAP
E0
A0
E0
80
80
ENDCHAR
STARTCHAR 1D19
ENCODING 7449
SWIDTH 555 0
DWIDTH 5 0
BBX 3 5 1 0
BITMAP
E0
A0
E0
A0
A0
ENDCHAR
STARTCHAR 1D1A
ENCODING 7450
SWIDTH 555 0
DWIDTH 5 0
BBX 3 5 1 0
BITMAP
A0
A0
E0
A0
E0
ENDCHAR
STARTCHAR 1D1D
ENCODING 7453
SWIDTH 555 0
DWIDTH 5 0
BBX 5 4 0 0
BITMAP
F8
08
08
F8
ENDCHAR
STARTCHAR 1D1E
ENCODING 7454
SWIDTH 777 0
DWIDTH 7 0
BBX 7 4 0 1
BITMAP
3E
84
82
3C
ENDCHAR
STARTCHAR 1D1F
ENCODING 7455
SWIDTH 555 0
DWIDTH 5 0
BBX 5 7 0 -1
BITMAP
F8
08
08
F8
08
08
F8
ENDCHAR
STARTCHAR 1D43
ENCODING 7491
SWIDTH 444 0
DWIDTH 4 0
BBX 3 4 0 3
BITMAP
60
A0
E0
E0
ENDCHAR
STARTCHAR 1D44
ENCODING 7492
SWIDTH 444 0
DWIDTH 4 0
BBX 3 4 0 3
BITMAP
E0
A0
C0
60
ENDCHAR
STARTCHAR 1D45
ENCODING 7493
SWIDTH 444 0
DWIDTH 4 0
BBX 4 4 0 3
BITMAP
60
A0
A0
70
ENDCHAR
STARTCHAR 1D46
ENCODING 7494
SWIDTH 666 0
DWIDTH 6 0
BBX 5 3 0 3
BITMAP
78
F8
78
ENDCHAR
STARTCHAR 1D47
ENCODING 7495
SWIDTH 444 0
DWIDTH 4 0
BBX 3 5 0 3
BITMAP
80
E0
A0
A0
E0
ENDCHAR
STARTCHAR 1D48
ENCODING 7496
SWIDTH 444 0
DWIDTH 4 0
BBX 3 5 0 3
BITMAP
20
60
A0
A0
60
ENDCHAR
STARTCHAR 1D49
ENCODING 7497
SWIDTH 444 0
DWIDTH 4 0
BBX 3 4 0 3
BITMAP
60
A0
E0
60
ENDCHAR
STARTCHAR 1D4A
ENCODING 7498
SWIDTH 444 0
DWIDTH 4 0
BBX 3 4 0 3
BITMAP
60
A0
E0
60
ENDCHAR
STARTCHAR 1D4B
ENCODING 7499
SWIDTH 333 0
DWIDTH 3 0
BBX 3 4 0 3
BITMAP
60
A0
60
E0
ENDCHAR
STARTCHAR 1D4C
ENCODING 7500
SWIDTH 333 0
DWIDTH 3 0
BBX 3 4 0 3
BITMAP
60
A0
C0
60
ENDCHAR
STARTCHAR 1D4D
ENCODING 7501
SWIDTH 444 0
DWIDTH 4 0
BBX 3 6 0 1
BITMAP
60
A0
A0
60
20
E0
ENDCHAR
STARTCHAR 1D4E
ENCODING 7502
SWIDTH 111 0
DWIDTH 1 0
BBX 1 5 0 3
BITMAP
80
80
80
00
80
ENDCHAR
STARTCHAR 1D4F
ENCODING 7503
SWIDTH 333 0
DWIDTH 3 0
BBX 3 5 0 3
BITMAP
80
A0
C0
C0
A0
ENDCHAR
STARTCHAR 1D50
ENCODING 7504
SWIDTH 555 0
DWIDTH 5 0
BBX 5 4 0 3
BITMAP
F8
A8
A8
A8
ENDCHAR
STARTCHAR 1D51
ENCODING 7505
SWIDTH 444 0
DWIDTH 4 0
BBX 3 5 0 2
BITMAP
E0
A0
A0
A0
20
ENDCHAR
STARTCHAR 1D52
ENCODING 7506
SWIDTH 444 0
DWIDTH 4 0
BBX 3 4 0 3
BITMAP
60
A0
A0
60
ENDCHAR
STARTCHAR 1D53
ENCODING 7507
SWIDTH 333 0
DWIDTH 3 0
BBX 3 4 0 3
BITMAP
E0
20
20
E0
ENDCHAR
STARTCHAR 1D54
ENCODING 7508
SWIDTH 444 0
DWIDTH 4 0
BBX 3 2 0 5
BITMAP
60
A0
ENDCHAR
STARTCHAR 1D55
ENCODING 7509
SWIDTH 444 0
DWIDTH 4 0
BBX 3 2 0 3
BITMAP
A0
60
ENDCHAR
STARTCHAR 1D56
ENCODING 7510
SWIDTH 444 0
DWIDTH 4 0
BBX 3 5 0 2
BITMAP
E0
A0
A0
E0
80
ENDCHAR
STARTCHAR 1D57
ENCODING 7511
SWIDTH 222 0
DWIDTH 2 0
BBX 2 4 0 3
BITMAP
C0
80
80
80
ENDCHAR
STARTCHAR 1D58
ENCODING 7512
SWIDTH 444 0
DWIDTH 4 0
BBX 3 3 0 3
BITMAP
A0
A0
60
ENDCHAR
STARTCHAR 1D59
ENCODING 7513
SWIDTH 444 0
DWIDTH 4 0
BBX 4 3 0 3
BITMAP
F0
10
F0
ENDCHAR
STARTCHAR 1D5A
ENCODING 7514
SWIDTH 555 0
DWIDTH 5 0
BBX 5 4 0 3
BITMAP
A8
A8
A8
78
ENDCHAR
STARTCHAR 1D5B
ENCODING 7515
SWIDTH 333 0
DWIDTH 3 0
BBX 3 3 0 3
BITMAP
A0
A0
40
ENDCHAR
STARTCHAR 1D5D
ENCODING 7517
SWIDTH 444 0
DWIDTH 4 0
BBX 3 6 1 2
BITMAP
C0
C0
C0
A0
C0
80
ENDCHAR
STARTCHAR 1D5E
ENCODING 7518
SWIDTH 444 0
DWIDTH 4 0
BBX 3 5 0 2
BITMAP
80
A0
40
40
40
ENDCHAR
STARTCHAR 1D5F
ENCODING 7519
SWIDTH 444 0
DWIDTH 4 0
BBX 4 5 0 3
BITMAP
60
40
A0
90
60
ENDCHAR
STARTCHAR 1D61
ENCODING 7521
SWIDTH 444 0
DWIDTH 4 0
BBX 4 5 0 2
BITMAP
80
60
40
A0
B0
ENDCHAR
STARTCHAR 1D62
ENCODING 7522
SWIDTH 111 0
DWIDTH 1 0
BBX 1 5 0 -3
BITMAP
80
00
80
80
80
ENDCHAR
STARTCHAR 1D63
ENCODING 7523
SWIDTH 222 0
DWIDTH 2 0
BBX 1 4 0 -3
BITMAP
80
80
80
80
ENDCHAR
STARTCHAR 1D64
ENCODING 7524
SWIDTH 444 0
DWIDTH 4 0
BBX 3 3 0 -3
BITMAP
A0
A0
60
ENDCHAR
STARTCHAR 1D65
ENCODING 7525
SWIDTH 333 0
DWIDTH 3 0
BBX 3 3 0 -3
BITMAP
A0
A0
40
ENDCHAR
STARTCHAR 1D66
ENCODING 7526
SWIDTH 444 0
DWIDTH 4 0
BBX 3 6 1 -4
BITMAP
C0
C0
C0
A0
C0
80
ENDCHAR
STARTCHAR 1D67
ENCODING 7527
SWIDTH 444 0
DWIDTH 4 0
BBX 3 4 0 -4
BITMAP
A0
60
40
40
ENDCHAR
STARTCHAR 1D68
ENCODING 7528
SWIDTH 444 0
DWIDTH 4 0
BBX 3 5 1 -4
BITMAP
C0
A0
A0
C0
80
ENDCHAR
STARTCHAR 1D6A
ENCODING 7530
SWIDTH 444 0
DWIDTH 4 0
BBX 3 4 0 -4
BITMAP
A0
40
40
A0
ENDCHAR
STARTCHAR 1D6B
ENCODING 7531
SWIDTH 888 0
DWIDTH 8 0
BBX 7 5 0 0
BITMAP
9E
92
9E
92
7E
ENDCHAR
STARTCHAR 1D6C
ENCODING 7532
SWIDTH 555 0
DWIDTH 5 0
BBX 5 6 0 0
BITMAP
E0
78
48
48
48
78
ENDCHAR
STARTCHAR 1D6D
ENCODING 7533
SWIDTH 666 0
DWIDTH 6 0
BBX 5 6 0 0
BITMAP
18
70
90
90
90
60
ENDCHAR
STARTCHAR 1D6E
ENCODING 7534
SWIDTH 333 0
DWIDTH 3 0
BBX 3 7 0 0
BITMAP
60
40
E0
40
E0
40
40
ENDCHAR
STARTCHAR 1D71
ENCODING 7537
SWIDTH 666 0
DWIDTH 6 0
BBX 5 7 0 -2
BITMAP
78
48
48
48
78
C0
E0
ENDCHAR
STARTCHAR 1D72
ENCODING 7538
SWIDTH 444 0
DWIDTH 4 0
BBX 3 5 0 0
BITMAP
60
40
E0
40
40
ENDCHAR
STARTCHAR 1D73
ENCODING 7539
SWIDTH 333 0
DWIDTH 3 0
BBX 3 5 0 0
BITMAP
20
40
E0
40
40
ENDCHAR
STARTCHAR 1D75
ENCODING 7541
SWIDTH 333 0
DWIDTH 3 0
BBX 3 6 0 0
BITMAP
40
60
40
E0
40
60
ENDCHAR
STARTCHAR 1D7A
ENCODING 7546
SWIDTH 888 0
DWIDTH 8 0
BBX 7 6 0 0
BITMAP
52
D4
5A
52
72
52
ENDCHAR
STARTCHAR 1DBF
ENCODING 7615
SWIDTH 333 0
DWIDTH 3 0
BBX 2 4 1 3
BITMAP
C0
C0
C0
C0
ENDCHAR
STARTCHAR 1DC0
ENCODING 7616
SWIDTH 0 0
DWIDTH 0 0
BBX 3 2 -4 5
BITMAP
60
80
ENDCHAR
STARTCHAR 1DC1
ENCODING 7617
SWIDTH 0 0
DWIDTH 0 0
BBX 3 2 -4 5
BITMAP
80
60
ENDCHAR
STARTCHAR 1DC4
ENCODING 7620
SWIDTH 0 0
DWIDTH 0 0
BBX 3 2 -4 5
BITMAP
20
C0
ENDCHAR
STARTCHAR 1DC5
ENCODING 7621
SWIDTH 0 0
DWIDTH 0 0
BBX 3 2 -4 5
BITMAP
80
60
ENDCHAR
STARTCHAR 1DC6
ENCODING 7622
SWIDTH 0 0
DWIDTH 0 0
BBX 3 2 -4 5
BITMAP
C0
20
ENDCHAR
STARTCHAR 1DC7
ENCODING 7623
SWIDTH 0 0
DWIDTH 0 0
BBX 3 2 -4 5
BITMAP
60
80
ENDCHAR
STARTCHAR 1DC8
ENCODING 7624
SWIDTH 0 0
DWIDTH 0 0
BBX 4 2 -5 5
BITMAP
A0
50
ENDCHAR
STARTCHAR 1DC9
ENCODING 7625
SWIDTH 0 0
DWIDTH 0 0
BBX 3 2 -4 5
BITMAP
A0
40
ENDCHAR
STARTCHAR 1DCA
ENCODING 7626
SWIDTH 0 0
DWIDTH 0 0
BBX 1 2 -3 -3
BITMAP
80
80
ENDCHAR
STARTCHAR 1E00
ENCODING 7680
SWIDTH 666 0
DWIDTH 6 0
BBX 6 9 0 -3
BITMAP
30
30
48
78
48
84
00
30
30
ENDCHAR
STARTCHAR 1E01
ENCODING 7681
SWIDTH 555 0
DWIDTH 5 0
BBX 5 9 0 -3
BITMAP
70
90
10
70
90
68
00
20
20
ENDCHAR
STARTCHAR 1E02
ENCODING 7682
SWIDTH 666 0
DWIDTH 6 0
BBX 5 8 1 0
BITMAP
40
F0
90
90
F0
88
88
F0
ENDCHAR
STARTCHAR 1E03
ENCODING 7683
SWIDTH 555 0
DWIDTH 5 0
BBX 4 7 1 0
BITMAP
C0
E0
A0
90
90
A0
E0
ENDCHAR
STARTCHAR 1E04
ENCODING 7684
SWIDTH 666 0
DWIDTH 6 0
BBX 5 9 1 -2
BITMAP
F0
90
90
F0
88
88
F0
00
40
ENDCHAR
STARTCHAR 1E05
ENCODING 7685
SWIDTH 555 0
DWIDTH 5 0
BBX 4 9 1 -2
BITMAP
80
E0
A0
90
90
A0
E0
00
40
ENDCHAR
STARTCHAR 1E06
ENCODING 7686
SWIDTH 666 0
DWIDTH 6 0
BBX 5 9 1 -2
BITMAP
F0
90
90
F0
88
88
F0
00
E0
ENDCHAR
STARTCHAR 1E07
ENCODING 7687
SWIDTH 555 0
DWIDTH 5 0
BBX 4 9 1 -2
BITMAP
80
E0
A0
90
90
A0
E0
00
E0
ENDCHAR
STARTCHAR 1E08
ENCODING 7688
SWIDTH 777 0
DWIDTH 7 0
BBX 6 11 0 -2
BITMAP
10
20
38
44
80
80
84
44
38
10
30
ENDCHAR
STARTCHAR 1E09
ENCODING 7689
SWIDTH 555 0
DWIDTH 5 0
BBX 4 9 0 -2
BITMAP
20
70
90
80
80
90
70
20
60
ENDCHAR
STARTCHAR 1E0A
ENCODING 7690
SWIDTH 777 0
DWIDTH 7 0
BBX 5 8 1 0
BITMAP
40
F0
88
88
88
88
88
F0
ENDCHAR
STARTCHAR 1E0B
ENCODING 7691
SWIDTH 555 0
DWIDTH 5 0
BBX 4 7 0 0
BITMAP
30
70
90
90
90
90
70
ENDCHAR
STARTCHAR 1E0C
ENCODING 7692
SWIDTH 777 0
DWIDTH 7 0
BBX 5 9 1 -2
BITMAP
F0
88
88
88
88
88
F0
00
40
ENDCHAR
STARTCHAR 1E0D
ENCODING 7693
SWIDTH 555 0
DWIDTH 5 0
BBX 4 9 0 -2
BITMAP
10
70
90
90
90
90
70
00
20
ENDCHAR
STARTCHAR 1E0E
ENCODING 7694
SWIDTH 777 0
DWIDTH 7 0
BBX 5 9 1 -2
BITMAP
F0
88
88
88
88
88
F0
00
60
ENDCHAR
STARTCHAR 1E0F
ENCODING 7695
SWIDTH 555 0
DWIDTH 5 0
BBX 4 9 0 -2
BITMAP
10
70
90
90
90
90
70
00
70
ENDCHAR
STARTCHAR 1E10
ENCODING 7696
SWIDTH 777 0
DWIDTH 7 0
BBX 5 9 1 -2
BITMAP
F0
88
88
88
88
88
F0
40
40
ENDCHAR
STARTCHAR 1E11
ENCODING 7697
SWIDTH 555 0
DWIDTH 5 0
BBX 4 10 0 -3
BITMAP
10
70
90
90
90
90
70
00
20
20
ENDCHAR
STARTCHAR 1E12
ENCODING 7698
SWIDTH 777 0
DWIDTH 7 0
BBX 5 9 1 -2
BITMAP
F0
88
88
88
88
88
F0
60
60
ENDCHAR
STARTCHAR 1E13
ENCODING 7699
SWIDTH 555 0
DWIDTH 5 0
BBX 4 9 0 -2
BITMAP
10
70
90
90
90
90
70
20
60
ENDCHAR
STARTCHAR 1E14
ENCODING 7700
SWIDTH 666 0
DWIDTH 6 0
BBX 5 9 1 0
BITMAP
40
20
F0
80
80
F0
80
80
F8
ENDCHAR
STARTCHAR 1E15
ENCODING 7701
SWIDTH 555 0
DWIDTH 5 0
BBX 5 8 0 0
BITMAP
20
20
70
88
F8
80
50
70
ENDCHAR
STARTCHAR 1E16
ENCODING 7702
SWIDTH 666 0
DWIDTH 6 0
BBX 5 9 1 0
BITMAP
20
40
F0
80
80
F0
80
80
F8
ENDCHAR
STARTCHAR 1E17
ENCODING 7703
SWIDTH 555 0
DWIDTH 5 0
BBX 5 8 0 0
BITMAP
20
40
70
88
F8
80
50
70
ENDCHAR
STARTCHAR 1E18
ENCODING 7704
SWIDTH 666 0
DWIDTH 6 0
BBX 5 9 1 -2
BITMAP
F0
80
80
F0
80
80
F8
60
60
ENDCHAR
STARTCHAR 1E19
ENCODING 7705
SWIDTH 555 0
DWIDTH 5 0
BBX 5 8 0 -2
BITMAP
70
88
F8
80
50
70
20
50
ENDCHAR
STARTCHAR 1E1A
ENCODING 7706
SWIDTH 666 0
DWIDTH 6 0
BBX 5 9 1 -2
BITMAP
F0
80
80
F0
80
80
F8
40
30
ENDCHAR
STARTCHAR 1E1B
ENCODING 7707
SWIDTH 555 0
DWIDTH 5 0
BBX 5 8 0 -2
BITMAP
70
88
F8
80
50
70
60
70
ENDCHAR
STARTCHAR 1E1C
ENCODING 7708
SWIDTH 666 0
DWIDTH 6 0
BBX 5 10 1 -2
BITMAP
60
F0
80
80
F0
80
80
F8
20
20
ENDCHAR
STARTCHAR 1E1D
ENCODING 7709
SWIDTH 555 0
DWIDTH 5 0
BBX 5 7 0 -2
BITMAP
70
88
F8
80
50
70
30
ENDCHAR
STARTCHAR 1E1E
ENCODING 7710
SWIDTH 666 0
DWIDTH 6 0
BBX 4 8 1 0
BITMAP
40
F0
80
80
F0
80
80
80
ENDCHAR
STARTCHAR 1E1F
ENCODING 7711
SWIDTH 333 0
DWIDTH 3 0
BBX 2 8 0 0
BITMAP
40
40
C0
40
40
40
40
40
ENDCHAR
STARTCHAR 1E20
ENCODING 7712
SWIDTH 777 0
DWIDTH 7 0
BBX 6 8 0 0
BITMAP
38
38
44
80
9C
84
44
3C
ENDCHAR
STARTCHAR 1E21
ENCODING 7713
SWIDTH 555 0
DWIDTH 5 0
BBX 4 8 0 -2
BITMAP
70
90
90
90
90
70
10
70
ENDCHAR
STARTCHAR 1E22
ENCODING 7714
SWIDTH 777 0
DWIDTH 7 0
BBX 5 7 1 0
BITMAP
A8
88
88
F8
88
88
88
ENDCHAR
STARTCHAR 1E23
ENCODING 7715
SWIDTH 555 0
DWIDTH 5 0
BBX 3 7 1 0
BITMAP
C0
E0
A0
A0
A0
A0
A0
ENDCHAR
STARTCHAR 1E24
ENCODING 7716
SWIDTH 777 0
DWIDTH 7 0
BBX 5 9 1 -2
BITMAP
88
88
88
F8
88
88
88
00
20
ENDCHAR
STARTCHAR 1E25
ENCODING 7717
SWIDTH 555 0
DWIDTH 5 0
BBX 3 9 1 -2
BITMAP
80
E0
A0
A0
A0
A0
A0
00
40
ENDCHAR
STARTCHAR 1E26
ENCODING 7718
SWIDTH 777 0
DWIDTH 7 0
BBX 5 7 1 0
BITMAP
E8
88
88
F8
88
88
88
ENDCHAR
STARTCHAR 1E27
ENCODING 7719
SWIDTH 555 0
DWIDTH 5 0
BBX 3 7 1 0
BITMAP
A0
E0
A0
A0
A0
A0
A0
ENDCHAR
STARTCHAR 1E28
ENCODING 7720
SWIDTH 777 0
DWIDTH 7 0
BBX 5 9 1 -2
BITMAP
88
88
88
F8
88
88
88
80
80
ENDCHAR
STARTCHAR 1E29
ENCODING 7721
SWIDTH 555 0
DWIDTH 5 0
BBX 4 9 0 -2
BITMAP
80
B0
50
90
90
90
90
40
40
ENDCHAR
STARTCHAR 1E2A
ENCODING 7722
SWIDTH 777 0
DWIDTH 7 0
BBX 5 9 1 -2
BITMAP
88
88
88
F8
88
88
88
00
70
ENDCHAR
STARTCHAR 1E2B
ENCODING 7723
SWIDTH 555 0
DWIDTH 5 0
BBX 3 9 1 -2
BITMAP
80
E0
A0
A0
A0
A0
A0
00
E0
ENDCHAR
STARTCHAR 1E2C
ENCODING 7724
SWIDTH 333 0
DWIDTH 3 0
BBX 3 8 0 -2
BITMAP
40
40
40
40
40
40
C0
60
ENDCHAR
STARTCHAR 1E2D
ENCODING 7725
SWIDTH 222 0
DWIDTH 2 0
BBX 2 9 0 -2
BITMAP
80
80
80
80
80
80
80
80
40
ENDCHAR
STARTCHAR 1E2E
ENCODING 7726
SWIDTH 333 0
DWIDTH 3 0
BBX 2 10 0 0
BITMAP
40
40
00
C0
40
40
40
40
40
40
ENDCHAR
STARTCHAR 1E2F
ENCODING 7727
SWIDTH 333 0
DWIDTH 3 0
BBX 2 8 0 0
BITMAP
40
40
C0
40
40
40
40
40
ENDCHAR
STARTCHAR 1E30
ENCODING 7728
SWIDTH 666 0
DWIDTH 6 0
BBX 5 8 1 0
BITMAP
20
D0
A0
E0
E0
A0
90
88
ENDCHAR
STARTCHAR 1E31
ENCODING 7729
SWIDTH 555 0
DWIDTH 5 0
BBX 3 8 1 0
BITMAP
40
C0
A0
C0
C0
C0
A0
A0
ENDCHAR
STARTCHAR 1E32
ENCODING 7730
SWIDTH 666 0
DWIDTH 6 0
BBX 5 9 1 -2
BITMAP
90
A0
E0
E0
A0
90
88
00
40
ENDCHAR
STARTCHAR 1E33
ENCODING 7731
SWIDTH 555 0
DWIDTH 5 0
BBX 3 9 1 -2
BITMAP
80
A0
C0
C0
C0
A0
A0
00
40
ENDCHAR
STARTCHAR 1E34
ENCODING 7732
SWIDTH 666 0
DWIDTH 6 0
BBX 5 9 1 -2
BITMAP
90
A0
E0
E0
A0
90
88
00
60
ENDCHAR
STARTCHAR 1E35
ENCODING 7733
SWIDTH 555 0
DWIDTH 5 0
BBX 3 9 1 -2
BITMAP
80
A0
C0
C0
C0
A0
A0
00
E0
ENDCHAR
STARTCHAR 1E36
ENCODING 7734
SWIDTH 555 0
DWIDTH 5 0
BBX 4 9 1 -2
BITMAP
80
80
80
80
80
80
F0
00
40
ENDCHAR
STARTCHAR 1E37
ENCODING 7735
SWIDTH 222 0
DWIDTH 2 0
BBX 1 9 1 -2
BITMAP
80
80
80
80
80
80
80
00
80
ENDCHAR
STARTCHAR 1E38
ENCODING 7736
SWIDTH 555 0
DWIDTH 5 0
BBX 4 9 1 -2
BITMAP
E0
80
80
80
80
80
F0
00
40
ENDCHAR
STARTCHAR 1E39
ENCODING 7737
SWIDTH 222 0
DWIDTH 2 0
BBX 2 9 0 -2
BITMAP
C0
80
80
80
80
80
80
00
80
ENDCHAR
STARTCHAR 1E3A
ENCODING 7738
SWIDTH 555 0
DWIDTH 5 0
BBX 4 9 1 -2
BITMAP
80
80
80
80
80
80
F0
00
E0
ENDCHAR
STARTCHAR 1E3B
ENCODING 7739
SWIDTH 222 0
DWIDTH 2 0
BBX 2 9 0 -2
BITMAP
80
80
80
80
80
80
80
00
C0
ENDCHAR
STARTCHAR 1E3C
ENCODING 7740
SWIDTH 555 0
DWIDTH 5 0
BBX 4 9 1 -2
BITMAP
80
80
80
80
80
80
F0
40
A0
ENDCHAR
STARTCHAR 1E3D
ENCODING 7741
SWIDTH 222 0
DWIDTH 2 0
BBX 2 9 0 -2
BITMAP
80
80
80
80
80
80
80
C0
C0
ENDCHAR
STARTCHAR 1E3E
ENCODING 7742
SWIDTH 888 0
DWIDTH 8 0
BBX 6 8 1 0
BITMAP
20
AC
8C
CC
D4
D4
B4
A4
ENDCHAR
STARTCHAR 1E3F
ENCODING 7743
SWIDTH 888 0
DWIDTH 8 0
BBX 6 7 1 0
BITMAP
20
FC
A4
A4
A4
A4
A4
ENDCHAR
STARTCHAR 1E40
ENCODING 7744
SWIDTH 888 0
DWIDTH 8 0
BBX 6 7 1 0
BITMAP
AC
8C
CC
D4
D4
B4
A4
ENDCHAR
STARTCHAR 1E41
ENCODING 7745
SWIDTH 888 0
DWIDTH 8 0
BBX 6 6 1 0
BITMAP
FC
A4
A4
A4
A4
A4
ENDCHAR
STARTCHAR 1E42
ENCODING 7746
SWIDTH 888 0
DWIDTH 8 0
BBX 6 9 1 -2
BITMAP
8C
8C
CC
D4
D4
B4
A4
00
20
ENDCHAR
STARTCHAR 1E43
ENCODING 7747
SWIDTH 888 0
DWIDTH 8 0
BBX 6 8 1 -2
BITMAP
FC
A4
A4
A4
A4
A4
00
20
ENDCHAR
STARTCHAR 1E44
ENCODING 7748
SWIDTH 777 0
DWIDTH 7 0
BBX 5 7 1 0
BITMAP
A8
C8
C8
A8
A8
98
88
ENDCHAR
STARTCHAR 1E45
ENCODING 7749
SWIDTH 555 0
DWIDTH 5 0
BBX 3 6 1 0
BITMAP
E0
A0
A0
A0
A0
A0
ENDCHAR
STARTCHAR 1E46
ENCODING 7750
SWIDTH 777 0
DWIDTH 7 0
BBX 5 9 1 -2
BITMAP
88
C8
C8
A8
A8
98
88
00
20
ENDCHAR
STARTCHAR 1E47
ENCODING 7751
SWIDTH 555 0
DWIDTH 5 0
BBX 3 8 1 -2
BITMAP
E0
A0
A0
A0
A0
A0
00
40
ENDCHAR
STARTCHAR 1E48
ENCODING 7752
SWIDTH 777 0
DWIDTH 7 0
BBX 5 9 1 -2
BITMAP
88
C8
C8
A8
A8
98
88
00
70
ENDCHAR
STARTCHAR 1E49
ENCODING 7753
SWIDTH 555 0
DWIDTH 5 0
BBX 3 8 1 -2
BITMAP
E0
A0
A0
A0
A0
A0
00
E0
ENDCHAR
STARTCHAR 1E4A
ENCODING 7754
SWIDTH 777 0
DWIDTH 7 0
BBX 5 9 1 -2
BITMAP
88
C8
C8
A8
A8
98
88
60
60
ENDCHAR
STARTCHAR 1E4B
ENCODING 7755
SWIDTH 555 0
DWIDTH 5 0
BBX 3 8 1 -2
BITMAP
E0
A0
A0
A0
A0
A0
40
C0
ENDCHAR
STARTCHAR 1E4C
ENCODING 7756
SWIDTH 777 0
DWIDTH 7 0
BBX 7 10 0 0
BITMAP
10
30
18
38
44
82
82
82
44
38
ENDCHAR
STARTCHAR 1E4D
ENCODING 7757
SWIDTH 555 0
DWIDTH 5 0
BBX 5 8 0 0
BITMAP
20
60
70
90
88
88
90
70
ENDCHAR
STARTCHAR 1E4E
ENCODING 7758
SWIDTH 777 0
DWIDTH 7 0
BBX 7 9 0 0
BITMAP
28
20
38
44
82
82
82
44
38
ENDCHAR
STARTCHAR 1E4F
ENCODING 7759
SWIDTH 555 0
DWIDTH 5 0
BBX 5 7 0 0
BITMAP
70
70
90
88
88
90
70
ENDCHAR
STARTCHAR 1E50
ENCODING 7760
SWIDTH 777 0
DWIDTH 7 0
BBX 7 10 0 0
BITMAP
10
10
00
38
44
82
82
82
44
38
ENDCHAR
STARTCHAR 1E51
ENCODING 7761
SWIDTH 555 0
DWIDTH 5 0
BBX 5 8 0 0
BITMAP
20
20
70
90
88
88
90
70
ENDCHAR
STARTCHAR 1E52
ENCODING 7762
SWIDTH 777 0
DWIDTH 7 0
BBX 7 9 0 0
BITMAP
10
20
38
44
82
82
82
44
38
ENDCHAR
STARTCHAR 1E53
ENCODING 7763
SWIDTH 555 0
DWIDTH 5 0
BBX 5 8 0 0
BITMAP
20
20
70
90
88
88
90
70
ENDCHAR
STARTCHAR 1E54
ENCODING 7764
SWIDTH 666 0
DWIDTH 6 0
BBX 5 8 1 0
BITMAP
20
F0
88
88
F0
80
80
80
ENDCHAR
STARTCHAR 1E55
ENCODING 7765
SWIDTH 555 0
DWIDTH 5 0
BBX 4 9 1 -2
BITMAP
40
E0
A0
90
90
A0
E0
80
80
ENDCHAR
STARTCHAR 1E56
ENCODING 7766
SWIDTH 666 0
DWIDTH 6 0
BBX 5 8 1 0
BITMAP
40
F0
88
88
F0
80
80
80
ENDCHAR
STARTCHAR 1E57
ENCODING 7767
SWIDTH 555 0
DWIDTH 5 0
BBX 4 8 1 -2
BITMAP
E0
A0
90
90
A0
E0
80
80
ENDCHAR
STARTCHAR 1E58
ENCODING 7768
SWIDTH 777 0
DWIDTH 7 0
BBX 5 8 1 0
BITMAP
20
F0
88
88
F0
88
88
88
ENDCHAR
STARTCHAR 1E59
ENCODING 7769
SWIDTH 333 0
DWIDTH 3 0
BBX 2 6 1 0
BITMAP
C0
80
80
80
80
80
ENDCHAR
STARTCHAR 1E5A
ENCODING 7770
SWIDTH 777 0
DWIDTH 7 0
BBX 5 9 1 -2
BITMAP
F0
88
88
F0
88
88
88
00
20
ENDCHAR
STARTCHAR 1E5B
ENCODING 7771
SWIDTH 333 0
DWIDTH 3 0
BBX 2 8 1 -2
BITMAP
C0
80
80
80
80
80
00
80
ENDCHAR
STARTCHAR 1E5C
ENCODING 7772
SWIDTH 777 0
DWIDTH 7 0
BBX 5 9 1 -2
BITMAP
F0
88
88
F0
88
88
88
00
20
ENDCHAR
STARTCHAR 1E5D
ENCODING 7773
SWIDTH 333 0
DWIDTH 3 0
BBX 3 8 0 -2
BITMAP
E0
40
80
80
80
80
00
80
ENDCHAR
STARTCHAR 1E5E
ENCODING 7774
SWIDTH 777 0
DWIDTH 7 0
BBX 5 9 1 -2
BITMAP
F0
88
88
F0
88
88
88
00
70
ENDCHAR
STARTCHAR 1E5F
ENCODING 7775
SWIDTH 333 0
DWIDTH 3 0
BBX 3 8 0 -2
BITMAP
A0
40
80
80
80
80
00
E0
ENDCHAR
STARTCHAR 1E60
ENCODING 7776
SWIDTH 666 0
DWIDTH 6 0
BBX 6 8 0 0
BITMAP
20
78
48
40
78
04
8C
78
ENDCHAR
STARTCHAR 1E61
ENCODING 7777
SWIDTH 555 0
DWIDTH 5 0
BBX 4 6 0 0
BITMAP
70
80
40
30
90
70
ENDCHAR
STARTCHAR 1E62
ENCODING 7778
SWIDTH 666 0
DWIDTH 6 0
BBX 6 9 0 -2
BITMAP
78
48
40
78
04
8C
78
00
20
ENDCHAR
STARTCHAR 1E63
ENCODING 7779
SWIDTH 555 0
DWIDTH 5 0
BBX 4 8 0 -2
BITMAP
70
80
40
30
90
70
00
20
ENDCHAR
STARTCHAR 1E64
ENCODING 7780
SWIDTH 666 0
DWIDTH 6 0
BBX 6 9 0 0
BITMAP
10
20
78
48
40
78
04
8C
78
ENDCHAR
STARTCHAR 1E65
ENCODING 7781
SWIDTH 555 0
DWIDTH 5 0
BBX 4 7 0 0
BITMAP
20
70
80
40
30
90
70
ENDCHAR
STARTCHAR 1E66
ENCODING 7782
SWIDTH 666 0
DWIDTH 6 0
BBX 6 9 0 0
BITMAP
30
30
78
48
40
78
04
8C
78
ENDCHAR
STARTCHAR 1E67
ENCODING 7783
SWIDTH 555 0
DWIDTH 5 0
BBX 4 7 0 0
BITMAP
60
70
80
40
30
90
70
ENDCHAR
STARTCHAR 1E68
ENCODING 7784
SWIDTH 666 0
DWIDTH 6 0
BBX 6 10 0 -2
BITMAP
20
78
48
40
78
04
8C
78
00
10
ENDCHAR
STARTCHAR 1E69
ENCODING 7785
SWIDTH 555 0
DWIDTH 5 0
BBX 4 8 0 -2
BITMAP
70
80
40
30
90
70
00
20
ENDCHAR
STARTCHAR 1E6A
ENCODING 7786
SWIDTH 666 0
DWIDTH 6 0
BBX 5 8 0 0
BITMAP
20
F8
20
20
20
20
20
20
ENDCHAR
STARTCHAR 1E6B
ENCODING 7787
SWIDTH 333 0
DWIDTH 3 0
BBX 2 7 0 0
BITMAP
40
C0
40
40
40
40
40
ENDCHAR
STARTCHAR 1E6C
ENCODING 7788
SWIDTH 666 0
DWIDTH 6 0
BBX 5 9 0 -2
BITMAP
F8
20
20
20
20
20
20
00
20
ENDCHAR
STARTCHAR 1E6D
ENCODING 7789
SWIDTH 333 0
DWIDTH 3 0
BBX 2 9 0 -2
BITMAP
40
C0
40
40
40
40
40
00
40
ENDCHAR
STARTCHAR 1E6E
ENCODING 7790
SWIDTH 666 0
DWIDTH 6 0
BBX 5 9 0 -2
BITMAP
F8
20
20
20
20
20
20
00
70
ENDCHAR
STARTCHAR 1E6F
ENCODING 7791
SWIDTH 333 0
DWIDTH 3 0
BBX 3 9 0 -2
BITMAP
40
C0
40
40
40
40
40
00
E0
ENDCHAR
STARTCHAR 1E70
ENCODING 7792
SWIDTH 666 0
DWIDTH 6 0
BBX 5 9 0 -2
BITMAP
F8
20
20
20
20
20
20
20
50
ENDCHAR
STARTCHAR 1E71
ENCODING 7793
SWIDTH 333 0
DWIDTH 3 0
BBX 2 9 0 -2
BITMAP
40
C0
40
40
40
40
40
40
C0
ENDCHAR
STARTCHAR 1E72
ENCODING 7794
SWIDTH 777 0
DWIDTH 7 0
BBX 5 9 1 -2
BITMAP
88
88
88
88
88
88
70
00
50
ENDCHAR
STARTCHAR 1E73
ENCODING 7795
SWIDTH 555 0
DWIDTH 5 0
BBX 3 8 1 -2
BITMAP
A0
A0
A0
A0
A0
E0
00
A0
ENDCHAR
STARTCHAR 1E74
ENCODING 7796
SWIDTH 777 0
DWIDTH 7 0
BBX 5 9 1 -2
BITMAP
88
88
88
88
88
88
70
40
30
ENDCHAR
STARTCHAR 1E75
ENCODING 7797
SWIDTH 555 0
DWIDTH 5 0
BBX 3 8 1 -2
BITMAP
A0
A0
A0
A0
A0
E0
C0
E0
ENDCHAR
STARTCHAR 1E76
ENCODING 7798
SWIDTH 777 0
DWIDTH 7 0
BBX 5 9 1 -2
BITMAP
88
88
88
88
88
88
70
20
60
ENDCHAR
STARTCHAR 1E77
ENCODING 7799
SWIDTH 555 0
DWIDTH 5 0
BBX 3 8 1 -2
BITMAP
A0
A0
A0
A0
A0
E0
40
C0
ENDCHAR
STARTCHAR 1E78
ENCODING 7800
SWIDTH 777 0
DWIDTH 7 0
BBX 5 10 1 0
BITMAP
20
40
40
B8
88
88
88
88
88
70
ENDCHAR
STARTCHAR 1E79
ENCODING 7801
SWIDTH 555 0
DWIDTH 5 0
BBX 3 8 1 0
BITMAP
40
C0
E0
A0
A0
A0
A0
E0
ENDCHAR
STARTCHAR 1E7A
ENCODING 7802
SWIDTH 777 0
DWIDTH 7 0
BBX 5 8 1 0
BITMAP
50
F8
88
88
88
88
88
70
ENDCHAR
STARTCHAR 1E7B
ENCODING 7803
SWIDTH 555 0
DWIDTH 5 0
BBX 3 7 1 0
BITMAP
A0
E0
A0
A0
A0
A0
E0
ENDCHAR
STARTCHAR 1E7C
ENCODING 7804
SWIDTH 666 0
DWIDTH 6 0
BBX 6 8 0 0
BITMAP
20
9C
48
48
48
30
30
30
ENDCHAR
STARTCHAR 1E7D
ENCODING 7805
SWIDTH 555 0
DWIDTH 5 0
BBX 4 7 0 0
BITMAP
40
B0
90
50
60
60
20
ENDCHAR
STARTCHAR 1E7E
ENCODING 7806
SWIDTH 666 0
DWIDTH 6 0
BBX 6 9 0 -2
BITMAP
84
48
48
48
30
30
30
00
20
ENDCHAR
STARTCHAR 1E7F
ENCODING 7807
SWIDTH 555 0
DWIDTH 5 0
BBX 4 8 0 -2
BITMAP
90
90
50
60
60
20
00
20
ENDCHAR
STARTCHAR 1E80
ENCODING 7808
SWIDTH 1000 0
DWIDTH 9 0
BBX 8 9 0 0
BITMAP
10
08
89
99
59
55
66
66
22
ENDCHAR
STARTCHAR 1E81
ENCODING 7809
SWIDTH 777 0
DWIDTH 7 0
BBX 6 7 0 0
BITMAP
20
94
B4
B4
74
68
48
ENDCHAR
STARTCHAR 1E82
ENCODING 7810
SWIDTH 1000 0
DWIDTH 9 0
BBX 8 9 0 0
BITMAP
08
08
89
99
59
55
66
66
22
ENDCHAR
STARTCHAR 1E83
ENCODING 7811
SWIDTH 777 0
DWIDTH 7 0
BBX 6 7 0 0
BITMAP
10
94
B4
B4
74
68
48
ENDCHAR
STARTCHAR 1E84
ENCODING 7812
SWIDTH 1000 0
DWIDTH 9 0
BBX 8 7 0 0
BITMAP
99
99
59
55
66
66
22
ENDCHAR
STARTCHAR 1E85
ENCODING 7813
SWIDTH 777 0
DWIDTH 7 0
BBX 6 6 0 0
BITMAP
B4
B4
B4
74
68
48
ENDCHAR
STARTCHAR 1E86
ENCODING 7814
SWIDTH 1000 0
DWIDTH 9 0
BBX 8 7 0 0
BITMAP
89
99
59
55
66
66
22
ENDCHAR
STARTCHAR 1E87
ENCODING 7815
SWIDTH 777 0
DWIDTH 7 0
BBX 6 6 0 0
BITMAP
94
B4
B4
74
68
48
ENDCHAR
STARTCHAR 1E88
ENCODING 7816
SWIDTH 1000 0
DWIDTH 9 0
BBX 8 9 0 -2
BITMAP
89
99
59
55
66
66
22
00
08
ENDCHAR
STARTCHAR 1E89
ENCODING 7817
SWIDTH 777 0
DWIDTH 7 0
BBX 6 8 0 -2
BITMAP
94
B4
B4
74
68
48
00
10
ENDCHAR
STARTCHAR 1E8A
ENCODING 7818
SWIDTH 666 0
DWIDTH 6 0
BBX 5 7 1 0
BITMAP
B0
90
60
60
60
90
98
ENDCHAR
STARTCHAR 1E8B
ENCODING 7819
SWIDTH 555 0
DWIDTH 5 0
BBX 4 6 0 0
BITMAP
B0
60
60
60
50
90
ENDCHAR
STARTCHAR 1E8C
ENCODING 7820
SWIDTH 666 0
DWIDTH 6 0
BBX 5 7 1 0
BITMAP
F0
90
60
60
60
90
98
ENDCHAR
STARTCHAR 1E8D
ENCODING 7821
SWIDTH 555 0
DWIDTH 5 0
BBX 4 6 0 0
BITMAP
D0
60
60
60
50
90
ENDCHAR
STARTCHAR 1E8E
ENCODING 7822
SWIDTH 666 0
DWIDTH 6 0
BBX 6 7 0 0
BITMAP
A4
48
28
30
10
10
10
ENDCHAR
STARTCHAR 1E8F
ENCODING 7823
SWIDTH 555 0
DWIDTH 5 0
BBX 4 8 0 -2
BITMAP
B0
90
50
60
60
20
20
40
ENDCHAR
STARTCHAR 1E90
ENCODING 7824
SWIDTH 666 0
DWIDTH 6 0
BBX 5 9 0 0
BITMAP
20
50
F8
08
10
20
60
40
F8
ENDCHAR
STARTCHAR 1E91
ENCODING 7825
SWIDTH 555 0
DWIDTH 5 0
BBX 4 7 0 0
BITMAP
20
F0
10
20
40
40
F0
ENDCHAR
STARTCHAR 1E92
ENCODING 7826
SWIDTH 666 0
DWIDTH 6 0
BBX 5 9 0 -2
BITMAP
F8
08
10
20
60
40
F8
00
20
ENDCHAR
STARTCHAR 1E93
ENCODING 7827
SWIDTH 555 0
DWIDTH 5 0
BBX 4 8 0 -2
BITMAP
F0
10
20
40
40
F0
00
20
ENDCHAR
STARTCHAR 1E94
ENCODING 7828
SWIDTH 666 0
DWIDTH 6 0
BBX 5 9 0 -2
BITMAP
F8
08
10
20
60
40
F8
00
70
ENDCHAR
STARTCHAR 1E95
ENCODING 7829
SWIDTH 555 0
DWIDTH 5 0
BBX 4 8 0 -2
BITMAP
F0
10
20
40
40
F0
00
70
ENDCHAR
STARTCHAR 1E96
ENCODING 7830
SWIDTH 555 0
DWIDTH 5 0
BBX 3 9 1 -2
BITMAP
80
E0
A0
A0
A0
A0
A0
00
E0
ENDCHAR
STARTCHAR 1E97
ENCODING 7831
SWIDTH 333 0
DWIDTH 3 0
BBX 2 7 0 0
BITMAP
C0
C0
40
40
40
40
40
ENDCHAR
STARTCHAR 1E98
ENCODING 7832
SWIDTH 777 0
DWIDTH 7 0
BBX 6 7 0 0
BITMAP
30
B4
B4
B4
74
68
48
ENDCHAR
STARTCHAR 1E99
ENCODING 7833
SWIDTH 555 0
DWIDTH 5 0
BBX 4 9 0 -2
BITMAP
20
B0
90
50
60
60
20
20
40
ENDCHAR
STARTCHAR 1E9A
ENCODING 7834
SWIDTH 555 0
DWIDTH 5 0
BBX 5 6 0 1
BITMAP
20
70
10
70
90
68
ENDCHAR
STARTCHAR 1E9B
ENCODING 7835
SWIDTH 333 0
DWIDTH 3 0
BBX 2 8 0 0
BITMAP
40
40
40
C0
40
40
40
40
ENDCHAR
STARTCHAR 1EA0
ENCODING 7840
SWIDTH 666 0
DWIDTH 6 0
BBX 6 8 0 -2
BITMAP
30
30
48
78
48
84
00
20
ENDCHAR
STARTCHAR 1EA1
ENCODING 7841
SWIDTH 555 0
DWIDTH 5 0
BBX 5 8 0 -2
BITMAP
70
90
10
70
90
68
00
20
ENDCHAR
STARTCHAR 1EA2
ENCODING 7842
SWIDTH 666 0
DWIDTH 6 0
BBX 6 8 0 0
BITMAP
10
00
30
30
48
78
48
84
ENDCHAR
STARTCHAR 1EA3
ENCODING 7843
SWIDTH 555 0
DWIDTH 5 0
BBX 5 6 0 0
BITMAP
70
90
10
70
90
68
ENDCHAR
STARTCHAR 1EA4
ENCODING 7844
SWIDTH 666 0
DWIDTH 6 0
BBX 6 9 0 0
BITMAP
08
38
30
30
30
48
78
48
84
ENDCHAR
STARTCHAR 1EA5
ENCODING 7845
SWIDTH 555 0
DWIDTH 5 0
BBX 5 8 0 0
BITMAP
10
30
70
90
10
70
90
68
ENDCHAR
STARTCHAR 1EA6
ENCODING 7846
SWIDTH 666 0
DWIDTH 6 0
BBX 6 9 0 0
BITMAP
80
70
30
30
30
48
78
48
84
ENDCHAR
STARTCHAR 1EA7
ENCODING 7847
SWIDTH 555 0
DWIDTH 5 0
BBX 5 8 0 0
BITMAP
80
A0
70
90
10
70
90
68
ENDCHAR
STARTCHAR 1EA8
ENCODING 7848
SWIDTH 666 0
DWIDTH 6 0
BBX 6 8 0 1
BITMAP
30
30
30
30
48
78
48
84
ENDCHAR
STARTCHAR 1EA9
ENCODING 7849
SWIDTH 555 0
DWIDTH 5 0
BBX 5 7 0 0
BITMAP
20
70
90
10
70
90
68
ENDCHAR
STARTCHAR 1EAA
ENCODING 7850
SWIDTH 666 0
DWIDTH 6 0
BBX 6 10 0 0
BITMAP
20
18
30
30
30
30
48
78
48
84
ENDCHAR
STARTCHAR 1EAB
ENCODING 7851
SWIDTH 555 0
DWIDTH 5 0
BBX 5 8 0 0
BITMAP
40
30
70
90
10
70
90
68
ENDCHAR
STARTCHAR 1EAC
ENCODING 7852
SWIDTH 666 0
DWIDTH 6 0
BBX 6 10 0 -2
BITMAP
30
30
30
30
48
78
48
84
00
10
ENDCHAR
STARTCHAR 1EAD
ENCODING 7853
SWIDTH 555 0
DWIDTH 5 0
BBX 5 9 0 -2
BITMAP
20
70
90
10
70
90
68
00
20
ENDCHAR
STARTCHAR 1EAE
ENCODING 7854
SWIDTH 666 0
DWIDTH 6 0
BBX 6 10 0 0
BITMAP
10
10
00
30
30
30
48
78
48
84
ENDCHAR
STARTCHAR 1EAF
ENCODING 7855
SWIDTH 555 0
DWIDTH 5 0
BBX 5 8 0 0
BITMAP
10
20
70
90
10
70
90
68
ENDCHAR
STARTCHAR 1EB0
ENCODING 7856
SWIDTH 666 0
DWIDTH 6 0
BBX 6 10 0 0
BITMAP
20
20
30
00
30
30
48
78
48
84
ENDCHAR
STARTCHAR 1EB1
ENCODING 7857
SWIDTH 555 0
DWIDTH 5 0
BBX 5 8 0 0
BITMAP
40
20
70
90
10
70
90
68
ENDCHAR
STARTCHAR 1EB2
ENCODING 7858
SWIDTH 666 0
DWIDTH 6 0
BBX 6 9 0 0
BITMAP
10
00
30
30
30
48
78
48
84
ENDCHAR
STARTCHAR 1EB3
ENCODING 7859
SWIDTH 555 0
DWIDTH 5 0
BBX 5 6 0 2
BITMAP
70
90
10
70
90
68
ENDCHAR
STARTCHAR 1EB4
ENCODING 7860
SWIDTH 666 0
DWIDTH 6 0
BBX 6 10 0 0
BITMAP
20
18
30
00
30
30
48
78
48
84
ENDCHAR
STARTCHAR 1EB5
ENCODING 7861
SWIDTH 555 0
DWIDTH 5 0
BBX 5 8 0 0
BITMAP
60
50
70
90
10
70
90
68
ENDCHAR
STARTCHAR 1EB6
ENCODING 7862
SWIDTH 666 0
DWIDTH 6 0
BBX 6 10 0 -2
BITMAP
30
00
30
30
48
78
48
84
00
10
ENDCHAR
STARTCHAR 1EB7
ENCODING 7863
SWIDTH 555 0
DWIDTH 5 0
BBX 5 8 0 -2
BITMAP
70
90
10
70
90
68
00
20
ENDCHAR
STARTCHAR 1EB8
ENCODING 7864
SWIDTH 666 0
DWIDTH 6 0
BBX 5 9 1 -2
BITMAP
F0
80
80
F0
80
80
F8
00
20
ENDCHAR
STARTCHAR 1EB9
ENCODING 7865
SWIDTH 555 0
DWIDTH 5 0
BBX 5 8 0 -2
BITMAP
70
88
F8
80
50
70
00
20
ENDCHAR
STARTCHAR 1EBA
ENCODING 7866
SWIDTH 666 0
DWIDTH 6 0
BBX 5 8 1 0
BITMAP
20
F0
80
80
F0
80
80
F8
ENDCHAR
STARTCHAR 1EBB
ENCODING 7867
SWIDTH 555 0
DWIDTH 5 0
BBX 5 6 0 1
BITMAP
70
88
F8
80
50
70
ENDCHAR
STARTCHAR 1EBC
ENCODING 7868
SWIDTH 666 0
DWIDTH 6 0
BBX 5 9 1 0
BITMAP
40
30
F0
80
80
F0
80
80
F8
ENDCHAR
STARTCHAR 1EBD
ENCODING 7869
SWIDTH 555 0
DWIDTH 5 0
BBX 5 7 0 0
BITMAP
60
70
88
F8
80
50
70
ENDCHAR
STARTCHAR 1EBE
ENCODING 7870
SWIDTH 666 0
DWIDTH 6 0
BBX 5 9 1 0
BITMAP
70
70
F0
80
80
F0
80
80
F8
ENDCHAR
STARTCHAR 1EBF
ENCODING 7871
SWIDTH 555 0
DWIDTH 5 0
BBX 5 8 0 0
BITMAP
08
30
70
88
F8
80
50
70
ENDCHAR
STARTCHAR 1EC0
ENCODING 7872
SWIDTH 666 0
DWIDTH 6 0
BBX 5 9 1 0
BITMAP
A0
50
F0
80
80
F0
80
80
F8
ENDCHAR
STARTCHAR 1EC1
ENCODING 7873
SWIDTH 555 0
DWIDTH 5 0
BBX 5 8 0 0
BITMAP
80
60
70
88
F8
80
50
70
ENDCHAR
STARTCHAR 1EC2
ENCODING 7874
SWIDTH 666 0
DWIDTH 6 0
BBX 5 9 1 0
BITMAP
20
60
F0
80
80
F0
80
80
F8
ENDCHAR
STARTCHAR 1EC3
ENCODING 7875
SWIDTH 555 0
DWIDTH 5 0
BBX 5 7 0 0
BITMAP
20
70
88
F8
80
50
70
ENDCHAR
STARTCHAR 1EC4
ENCODING 7876
SWIDTH 666 0
DWIDTH 6 0
BBX 5 10 1 0
BITMAP
40
30
60
F0
80
80
F0
80
80
F8
ENDCHAR
STARTCHAR 1EC5
ENCODING 7877
SWIDTH 555 0
DWIDTH 5 0
BBX 5 8 0 0
BITMAP
60
30
70
88
F8
80
50
70
ENDCHAR
STARTCHAR 1EC6
ENCODING 7878
SWIDTH 666 0
DWIDTH 6 0
BBX 5 10 1 -2
BITMAP
60
F0
80
80
F0
80
80
F8
00
20
ENDCHAR
STARTCHAR 1EC7
ENCODING 7879
SWIDTH 555 0
DWIDTH 5 0
BBX 5 9 0 -2
BITMAP
20
70
88
F8
80
50
70
00
20
ENDCHAR
STARTCHAR 1EC8
ENCODING 7880
SWIDTH 333 0
DWIDTH 3 0
BBX 1 6 1 2
BITMAP
80
80
80
80
80
80
ENDCHAR
STARTCHAR 1EC9
ENCODING 7881
SWIDTH 333 0
DWIDTH 3 0
BBX 1 7 1 0
BITMAP
80
80
80
80
80
80
80
ENDCHAR
STARTCHAR 1ECA
ENCODING 7882
SWIDTH 333 0
DWIDTH 3 0
BBX 1 8 1 -2
BITMAP
80
80
80
80
80
80
00
80
ENDCHAR
STARTCHAR 1ECB
ENCODING 7883
SWIDTH 222 0
DWIDTH 2 0
BBX 1 9 1 -2
BITMAP
80
80
80
80
80
80
80
00
80
ENDCHAR
STARTCHAR 1ECC
ENCODING 7884
SWIDTH 777 0
DWIDTH 7 0
BBX 7 9 0 -2
BITMAP
38
44
82
82
82
44
38
00
10
ENDCHAR
STARTCHAR 1ECD
ENCODING 7885
SWIDTH 555 0
DWIDTH 5 0
BBX 5 8 0 -2
BITMAP
70
90
88
88
90
70
00
20
ENDCHAR
STARTCHAR 1ECE
ENCODING 7886
SWIDTH 777 0
DWIDTH 7 0
BBX 7 7 0 1
BITMAP
38
44
82
82
82
44
38
ENDCHAR
STARTCHAR 1ECF
ENCODING 7887
SWIDTH 555 0
DWIDTH 5 0
BBX 5 6 0 1
BITMAP
70
90
88
88
90
70
ENDCHAR
STARTCHAR 1ED0
ENCODING 7888
SWIDTH 777 0
DWIDTH 7 0
BBX 7 9 0 0
BITMAP
14
28
38
44
82
82
82
44
38
ENDCHAR
STARTCHAR 1ED1
ENCODING 7889
SWIDTH 555 0
DWIDTH 5 0
BBX 5 8 0 0
BITMAP
08
30
70
90
88
88
90
70
ENDCHAR
STARTCHAR 1ED2
ENCODING 7890
SWIDTH 777 0
DWIDTH 7 0
BBX 7 10 0 0
BITMAP
40
50
28
38
44
82
82
82
44
38
ENDCHAR
STARTCHAR 1ED3
ENCODING 7891
SWIDTH 555 0
DWIDTH 5 0
BBX 5 8 0 0
BITMAP
80
A0
70
90
88
88
90
70
ENDCHAR
STARTCHAR 1ED4
ENCODING 7892
SWIDTH 777 0
DWIDTH 7 0
BBX 7 9 0 0
BITMAP
14
28
38
44
82
82
82
44
38
ENDCHAR
STARTCHAR 1ED5
ENCODING 7893
SWIDTH 555 0
DWIDTH 5 0
BBX 5 7 0 0
BITMAP
20
70
90
88
88
90
70
ENDCHAR
STARTCHAR 1ED6
ENCODING 7894
SWIDTH 777 0
DWIDTH 7 0
BBX 7 10 0 0
BITMAP
10
38
28
38
44
82
82
82
44
38
ENDCHAR
STARTCHAR 1ED7
ENCODING 7895
SWIDTH 555 0
DWIDTH 5 0
BBX 5 8 0 0
BITMAP
60
30
70
90
88
88
90
70
ENDCHAR
STARTCHAR 1ED8
ENCODING 7896
SWIDTH 777 0
DWIDTH 7 0
BBX 7 11 0 -2
BITMAP
10
28
38
44
82
82
82
44
38
00
10
ENDCHAR
STARTCHAR 1ED9
ENCODING 7897
SWIDTH 555 0
DWIDTH 5 0
BBX 5 9 0 -2
BITMAP
20
70
90
88
88
90
70
00
20
ENDCHAR
STARTCHAR 1EDA
ENCODING 7898
SWIDTH 888 0
DWIDTH 8 0
BBX 8 9 0 0
BITMAP
10
10
39
46
82
82
82
44
38
ENDCHAR
STARTCHAR 1EDB
ENCODING 7899
SWIDTH 666 0
DWIDTH 6 0
BBX 6 7 0 0
BITMAP
20
20
74
98
88
90
70
ENDCHAR
STARTCHAR 1EDC
ENCODING 7900
SWIDTH 888 0
DWIDTH 8 0
BBX 8 9 0 0
BITMAP
10
10
39
46
82
82
82
44
38
ENDCHAR
STARTCHAR 1EDD
ENCODING 7901
SWIDTH 666 0
DWIDTH 6 0
BBX 6 7 0 0
BITMAP
20
20
74
98
88
90
70
ENDCHAR
STARTCHAR 1EDE
ENCODING 7902
SWIDTH 888 0
DWIDTH 8 0
BBX 8 7 0 1
BITMAP
39
46
82
82
82
44
38
ENDCHAR
STARTCHAR 1EDF
ENCODING 7903
SWIDTH 666 0
DWIDTH 6 0
BBX 6 5 0 2
BITMAP
74
98
88
90
70
ENDCHAR
STARTCHAR 1EE0
ENCODING 7904
SWIDTH 888 0
DWIDTH 8 0
BBX 8 9 0 0
BITMAP
30
28
39
46
82
82
82
44
38
ENDCHAR
STARTCHAR 1EE1
ENCODING 7905
SWIDTH 666 0
DWIDTH 6 0
BBX 6 7 0 0
BITMAP
60
50
74
98
88
90
70
ENDCHAR
STARTCHAR 1EE2
ENCODING 7906
SWIDTH 888 0
DWIDTH 8 0
BBX 8 9 0 -2
BITMAP
39
46
82
82
82
44
38
00
10
ENDCHAR
STARTCHAR 1EE3
ENCODING 7907
SWIDTH 666 0
DWIDTH 6 0
BBX 6 7 0 -2
BITMAP
74
98
88
90
70
00
20
ENDCHAR
STARTCHAR 1EE4
ENCODING 7908
SWIDTH 777 0
DWIDTH 7 0
BBX 5 9 1 -2
BITMAP
88
88
88
88
88
88
70
00
20
ENDCHAR
STARTCHAR 1EE5
ENCODING 7909
SWIDTH 555 0
DWIDTH 5 0
BBX 3 8 1 -2
BITMAP
A0
A0
A0
A0
A0
E0
00
40
ENDCHAR
STARTCHAR 1EE6
ENCODING 7910
SWIDTH 777 0
DWIDTH 7 0
BBX 5 7 1 1
BITMAP
88
88
88
88
88
88
70
ENDCHAR
STARTCHAR 1EE7
ENCODING 7911
SWIDTH 555 0
DWIDTH 5 0
BBX 3 6 1 1
BITMAP
A0
A0
A0
A0
A0
E0
ENDCHAR
STARTCHAR 1EE8
ENCODING 7912
SWIDTH 888 0
DWIDTH 8 0
BBX 6 8 1 0
BITMAP
20
AC
88
88
88
88
88
70
ENDCHAR
STARTCHAR 1EE9
ENCODING 7913
SWIDTH 666 0
DWIDTH 6 0
BBX 5 7 1 0
BITMAP
40
40
88
B0
A0
A0
C0
ENDCHAR
STARTCHAR 1EEA
ENCODING 7914
SWIDTH 888 0
DWIDTH 8 0
BBX 6 9 1 0
BITMAP
40
20
8C
88
88
88
88
88
70
ENDCHAR
STARTCHAR 1EEB
ENCODING 7915
SWIDTH 666 0
DWIDTH 6 0
BBX 5 7 1 0
BITMAP
40
40
88
B0
A0
A0
C0
ENDCHAR
STARTCHAR 1EEC
ENCODING 7916
SWIDTH 888 0
DWIDTH 8 0
BBX 6 7 1 1
BITMAP
8C
88
88
88
88
88
70
ENDCHAR
STARTCHAR 1EED
ENCODING 7917
SWIDTH 666 0
DWIDTH 6 0
BBX 5 5 1 1
BITMAP
88
B0
A0
A0
C0
ENDCHAR
STARTCHAR 1EEE
ENCODING 7918
SWIDTH 888 0
DWIDTH 8 0
BBX 6 9 1 0
BITMAP
60
30
8C
88
88
88
88
88
70
ENDCHAR
STARTCHAR 1EEF
ENCODING 7919
SWIDTH 666 0
DWIDTH 6 0
BBX 5 7 1 0
BITMAP
C0
60
88
B0
A0
A0
C0
ENDCHAR
STARTCHAR 1EF0
ENCODING 7920
SWIDTH 888 0
DWIDTH 8 0
BBX 6 9 1 -2
BITMAP
8C
88
88
88
88
88
70
00
20
ENDCHAR
STARTCHAR 1EF1
ENCODING 7921
SWIDTH 666 0
DWIDTH 6 0
BBX 5 7 1 -2
BITMAP
88
B0
A0
A0
C0
00
40
ENDCHAR
STARTCHAR 1EF2
ENCODING 7922
SWIDTH 666 0
DWIDTH 6 0
BBX 6 8 0 0
BITMAP
20
94
48
28
30
10
10
10
ENDCHAR
STARTCHAR 1EF3
ENCODING 7923
SWIDTH 555 0
DWIDTH 5 0
BBX 4 9 0 -2
BITMAP
40
B0
90
50
60
60
20
20
40
ENDCHAR
STARTCHAR 1EF4
ENCODING 7924
SWIDTH 666 0
DWIDTH 6 0
BBX 6 9 0 -2
BITMAP
84
48
28
30
10
10
10
00
20
ENDCHAR
STARTCHAR 1EF5
ENCODING 7925
SWIDTH 555 0
DWIDTH 5 0
BBX 4 10 0 -4
BITMAP
90
90
50
60
60
20
20
40
00
20
ENDCHAR
STARTCHAR 1EF6
ENCODING 7926
SWIDTH 666 0
DWIDTH 6 0
BBX 6 8 0 0
BITMAP
10
84
48
28
30
10
10
10
ENDCHAR
STARTCHAR 1EF7
ENCODING 7927
SWIDTH 555 0
DWIDTH 5 0
BBX 4 8 0 -2
BITMAP
B0
90
50
60
60
20
20
40
ENDCHAR
STARTCHAR 1EF8
ENCODING 7928
SWIDTH 666 0
DWIDTH 6 0
BBX 6 8 0 0
BITMAP
20
9C
48
28
30
10
10
10
ENDCHAR
STARTCHAR 1EF9
ENCODING 7929
SWIDTH 555 0
DWIDTH 5 0
BBX 4 9 0 -2
BITMAP
40
B0
90
50
60
60
20
20
40
ENDCHAR
STARTCHAR 1F00
ENCODING 7936
SWIDTH 666 0
DWIDTH 6 0
BBX 5 7 0 0
BITMAP
20
00
78
88
88
48
78
ENDCHAR
STARTCHAR 1F01
ENCODING 7937
SWIDTH 666 0
DWIDTH 6 0
BBX 5 7 0 0
BITMAP
20
00
78
88
88
48
78
ENDCHAR
STARTCHAR 1F02
ENCODING 7938
SWIDTH 666 0
DWIDTH 6 0
BBX 5 7 0 0
BITMAP
50
10
78
88
88
48
78
ENDCHAR
STARTCHAR 1F03
ENCODING 7939
SWIDTH 666 0
DWIDTH 6 0
BBX 5 7 0 0
BITMAP
50
10
78
88
88
48
78
ENDCHAR
STARTCHAR 1F04
ENCODING 7940
SWIDTH 666 0
DWIDTH 6 0
BBX 5 7 0 0
BITMAP
50
00
78
88
88
48
78
ENDCHAR
STARTCHAR 1F05
ENCODING 7941
SWIDTH 666 0
DWIDTH 6 0
BBX 5 7 0 0
BITMAP
50
00
78
88
88
48
78
ENDCHAR
STARTCHAR 1F06
ENCODING 7942
SWIDTH 666 0
DWIDTH 6 0
BBX 5 8 0 0
BITMAP
30
20
00
78
88
88
48
78
ENDCHAR
STARTCHAR 1F07
ENCODING 7943
SWIDTH 666 0
DWIDTH 6 0
BBX 5 8 0 0
BITMAP
30
20
00
78
88
88
48
78
ENDCHAR
STARTCHAR 1F08
ENCODING 7944
SWIDTH 666 0
DWIDTH 6 0
BBX 6 6 0 0
BITMAP
90
30
28
78
44
84
ENDCHAR
STARTCHAR 1F09
ENCODING 7945
SWIDTH 666 0
DWIDTH 6 0
BBX 6 6 0 0
BITMAP
90
30
28
78
44
84
ENDCHAR
STARTCHAR 1F0A
ENCODING 7946
SWIDTH 888 0
DWIDTH 8 0
BBX 7 6 1 0
BITMAP
C8
58
24
3C
24
42
ENDCHAR
STARTCHAR 1F0B
ENCODING 7947
SWIDTH 888 0
DWIDTH 8 0
BBX 7 6 1 0
BITMAP
C8
18
14
3C
22
42
ENDCHAR
STARTCHAR 1F0C
ENCODING 7948
SWIDTH 888 0
DWIDTH 8 0
BBX 7 6 1 0
BITMAP
D8
18
24
3C
24
42
ENDCHAR
STARTCHAR 1F0D
ENCODING 7949
SWIDTH 1000 0
DWIDTH 9 0
BBX 7 6 1 0
BITMAP
D8
18
24
3C
24
42
ENDCHAR
STARTCHAR 1F0E
ENCODING 7950
SWIDTH 1000 0
DWIDTH 9 0
BBX 7 7 1 0
BITMAP
C0
08
14
14
1C
22
22
ENDCHAR
STARTCHAR 1F0F
ENCODING 7951
SWIDTH 1000 0
DWIDTH 9 0
BBX 7 7 1 0
BITMAP
C0
08
14
14
1C
22
22
ENDCHAR
STARTCHAR 1F10
ENCODING 7952
SWIDTH 555 0
DWIDTH 5 0
BBX 3 7 1 0
BITMAP
40
40
E0
A0
C0
80
E0
ENDCHAR
STARTCHAR 1F11
ENCODING 7953
SWIDTH 555 0
DWIDTH 5 0
BBX 3 7 1 0
BITMAP
40
40
E0
A0
C0
80
E0
ENDCHAR
STARTCHAR 1F12
ENCODING 7954
SWIDTH 555 0
DWIDTH 5 0
BBX 3 7 1 0
BITMAP
C0
A0
E0
A0
C0
80
E0
ENDCHAR
STARTCHAR 1F13
ENCODING 7955
SWIDTH 555 0
DWIDTH 5 0
BBX 3 7 1 0
BITMAP
C0
A0
E0
A0
C0
80
E0
ENDCHAR
STARTCHAR 1F14
ENCODING 7956
SWIDTH 555 0
DWIDTH 5 0
BBX 3 7 1 0
BITMAP
A0
C0
E0
A0
C0
80
E0
ENDCHAR
STARTCHAR 1F15
ENCODING 7957
SWIDTH 555 0
DWIDTH 5 0
BBX 3 7 1 0
BITMAP
A0
C0
E0
A0
C0
80
E0
ENDCHAR
STARTCHAR 1F18
ENCODING 7960
SWIDTH 888 0
DWIDTH 8 0
BBX 6 6 1 0
BITMAP
FC
40
7C
40
40
7C
ENDCHAR
STARTCHAR 1F19
ENCODING 7961
SWIDTH 888 0
DWIDTH 8 0
BBX 6 6 1 0
BITMAP
FC
40
7C
40
40
7C
ENDCHAR
STARTCHAR 1F1A
ENCODING 7962
SWIDTH 1111 0
DWIDTH 10 0
BBX 8 6 1 0
BITMAP
DF
50
1F
10
10
1F
ENDCHAR
STARTCHAR 1F1B
ENCODING 7963
SWIDTH 1111 0
DWIDTH 10 0
BBX 8 6 1 0
BITMAP
DF
10
1F
10
10
1F
ENDCHAR
STARTCHAR 1F1C
ENCODING 7964
SWIDTH 1000 0
DWIDTH 9 0
BBX 8 6 1 0
BITMAP
DF
10
1E
10
10
1F
ENDCHAR
STARTCHAR 1F1D
ENCODING 7965
SWIDTH 1000 0
DWIDTH 9 0
BBX 8 6 1 0
BITMAP
DF
10
1F
10
10
1F
ENDCHAR
STARTCHAR 1F20
ENCODING 7968
SWIDTH 666 0
DWIDTH 6 0
BBX 5 9 0 -2
BITMAP
20
20
B0
48
48
48
48
08
08
ENDCHAR
STARTCHAR 1F21
ENCODING 7969
SWIDTH 666 0
DWIDTH 6 0
BBX 5 9 0 -2
BITMAP
20
20
B0
48
48
48
48
08
08
ENDCHAR
STARTCHAR 1F22
ENCODING 7970
SWIDTH 666 0
DWIDTH 6 0
BBX 5 9 0 -2
BITMAP
60
50
B0
48
48
48
48
08
08
ENDCHAR
STARTCHAR 1F23
ENCODING 7971
SWIDTH 666 0
DWIDTH 6 0
BBX 5 9 0 -2
BITMAP
60
50
B0
48
48
48
48
08
08
ENDCHAR
STARTCHAR 1F24
ENCODING 7972
SWIDTH 666 0
DWIDTH 6 0
BBX 5 9 0 -2
BITMAP
50
60
B0
48
48
48
48
08
08
ENDCHAR
STARTCHAR 1F25
ENCODING 7973
SWIDTH 666 0
DWIDTH 6 0
BBX 5 9 0 -2
BITMAP
50
60
B0
48
48
48
48
08
08
ENDCHAR
STARTCHAR 1F26
ENCODING 7974
SWIDTH 666 0
DWIDTH 6 0
BBX 5 10 0 -2
BITMAP
70
20
20
B0
48
48
48
48
08
08
ENDCHAR
STARTCHAR 1F27
ENCODING 7975
SWIDTH 666 0
DWIDTH 6 0
BBX 5 10 0 -2
BITMAP
70
20
20
B0
48
48
48
48
08
08
ENDCHAR
STARTCHAR 1F28
ENCODING 7976
SWIDTH 888 0
DWIDTH 8 0
BBX 6 6 1 0
BITMAP
C4
44
7C
44
44
44
ENDCHAR
STARTCHAR 1F29
ENCODING 7977
SWIDTH 888 0
DWIDTH 8 0
BBX 6 6 1 0
BITMAP
C4
44
7C
44
44
44
ENDCHAR
STARTCHAR 1F2A
ENCODING 7978
SWIDTH 1111 0
DWIDTH 10 0
BBX 8 6 1 0
BITMAP
D1
51
1F
11
11
11
ENDCHAR
STARTCHAR 1F2B
ENCODING 7979
SWIDTH 1111 0
DWIDTH 10 0
BBX 8 6 1 0
BITMAP
D1
11
1F
11
11
11
ENDCHAR
STARTCHAR 1F2C
ENCODING 7980
SWIDTH 1111 0
DWIDTH 10 0
BBX 8 6 1 0
BITMAP
D1
11
1F
11
11
11
ENDCHAR
STARTCHAR 1F2D
ENCODING 7981
SWIDTH 1111 0
DWIDTH 10 0
BBX 8 6 1 0
BITMAP
D1
11
1F
11
11
11
ENDCHAR
STARTCHAR 1F2E
ENCODING 7982
SWIDTH 1111 0
DWIDTH 10 0
BBX 9 7 1 0
BITMAP
C000
1080
1080
0F80
1080
1080
1080
ENDCHAR
STARTCHAR 1F2F
ENCODING 7983
SWIDTH 1111 0
DWIDTH 10 0
BBX 9 7 1 0
BITMAP
C000
1080
1080
0F80
1080
1080
1080
ENDCHAR
STARTCHAR 1F30
ENCODING 7984
SWIDTH 333 0
DWIDTH 3 0
BBX 1 7 1 0
BITMAP
80
80
80
80
80
80
80
ENDCHAR
STARTCHAR 1F31
ENCODING 7985
SWIDTH 333 0
DWIDTH 3 0
BBX 1 7 1 0
BITMAP
80
80
80
80
80
80
80
ENDCHAR
STARTCHAR 1F32
ENCODING 7986
SWIDTH 333 0
DWIDTH 3 0
BBX 3 7 0 0
BITMAP
C0
20
40
40
40
40
40
ENDCHAR
STARTCHAR 1F33
ENCODING 7987
SWIDTH 333 0
DWIDTH 3 0
BBX 3 7 0 0
BITMAP
C0
A0
40
40
40
40
40
ENDCHAR
STARTCHAR 1F34
ENCODING 7988
SWIDTH 333 0
DWIDTH 3 0
BBX 3 7 0 0
BITMAP
A0
00
40
40
40
40
40
ENDCHAR
STARTCHAR 1F35
ENCODING 7989
SWIDTH 333 0
DWIDTH 3 0
BBX 3 7 0 0
BITMAP
A0
80
40
40
40
40
40
ENDCHAR
STARTCHAR 1F36
ENCODING 7990
SWIDTH 333 0
DWIDTH 3 0
BBX 3 8 0 0
BITMAP
E0
40
40
40
40
40
40
40
ENDCHAR
STARTCHAR 1F37
ENCODING 7991
SWIDTH 333 0
DWIDTH 3 0
BBX 3 8 0 0
BITMAP
E0
40
40
40
40
40
40
40
ENDCHAR
STARTCHAR 1F38
ENCODING 7992
SWIDTH 444 0
DWIDTH 4 0
BBX 2 6 1 0
BITMAP
C0
40
40
40
40
40
ENDCHAR
STARTCHAR 1F39
ENCODING 7993
SWIDTH 444 0
DWIDTH 4 0
BBX 2 6 1 0
BITMAP
C0
40
40
40
40
40
ENDCHAR
STARTCHAR 1F3A
ENCODING 7994
SWIDTH 666 0
DWIDTH 6 0
BBX 4 6 1 0
BITMAP
D0
50
10
10
10
10
ENDCHAR
STARTCHAR 1F3B
ENCODING 7995
SWIDTH 666 0
DWIDTH 6 0
BBX 4 6 1 0
BITMAP
D0
10
10
10
10
10
ENDCHAR
STARTCHAR 1F3C
ENCODING 7996
SWIDTH 666 0
DWIDTH 6 0
BBX 4 6 1 0
BITMAP
D0
10
10
10
10
10
ENDCHAR
STARTCHAR 1F3D
ENCODING 7997
SWIDTH 666 0
DWIDTH 6 0
BBX 4 6 1 0
BITMAP
D0
10
10
10
10
10
ENDCHAR
STARTCHAR 1F3E
ENCODING 7998
SWIDTH 666 0
DWIDTH 6 0
BBX 5 7 1 0
BITMAP
C0
08
08
08
08
08
08
ENDCHAR
STARTCHAR 1F3F
ENCODING 7999
SWIDTH 666 0
DWIDTH 6 0
BBX 5 7 1 0
BITMAP
C0
08
08
08
08
08
08
ENDCHAR
STARTCHAR 1F40
ENCODING 8000
SWIDTH 666 0
DWIDTH 6 0
BBX 5 7 0 0
BITMAP
20
00
70
48
88
48
70
ENDCHAR
STARTCHAR 1F41
ENCODING 8001
SWIDTH 666 0
DWIDTH 6 0
BBX 5 7 0 0
BITMAP
20
00
70
48
88
48
70
ENDCHAR
STARTCHAR 1F42
ENCODING 8002
SWIDTH 666 0
DWIDTH 6 0
BBX 5 7 0 0
BITMAP
50
10
70
48
88
48
70
ENDCHAR
STARTCHAR 1F43
ENCODING 8003
SWIDTH 666 0
DWIDTH 6 0
BBX 5 7 0 0
BITMAP
50
10
70
48
88
48
70
ENDCHAR
STARTCHAR 1F44
ENCODING 8004
SWIDTH 666 0
DWIDTH 6 0
BBX 5 7 0 0
BITMAP
50
00
70
48
88
48
70
ENDCHAR
STARTCHAR 1F45
ENCODING 8005
SWIDTH 666 0
DWIDTH 6 0
BBX 5 7 0 0
BITMAP
50
00
70
48
88
48
70
ENDCHAR
STARTCHAR 1F48
ENCODING 8008
SWIDTH 1000 0
DWIDTH 9 0
BBX 7 7 1 0
BITMAP
3C
A2
42
42
42
26
3C
ENDCHAR
STARTCHAR 1F49
ENCODING 8009
SWIDTH 1000 0
DWIDTH 9 0
BBX 7 7 1 0
BITMAP
3C
A2
42
42
42
26
3C
ENDCHAR
STARTCHAR 1F4A
ENCODING 8010
SWIDTH 1222 0
DWIDTH 11 0
BBX 9 7 1 0
BITMAP
0F00
D980
5080
1080
1080
1980
0F00
ENDCHAR
STARTCHAR 1F4B
ENCODING 8011
SWIDTH 1222 0
DWIDTH 11 0
BBX 9 7 1 0
BITMAP
0F00
C880
1080
1080
1080
0980
0F00
ENDCHAR
STARTCHAR 1F4C
ENCODING 8012
SWIDTH 1111 0
DWIDTH 10 0
BBX 9 7 1 0
BITMAP
0F00
D100
1080
1080
1080
1100
0F00
ENDCHAR
STARTCHAR 1F4D
ENCODING 8013
SWIDTH 1111 0
DWIDTH 10 0
BBX 9 7 1 0
BITMAP
0F00
D980
1080
1080
1080
1980
0F00
ENDCHAR
STARTCHAR 1F50
ENCODING 8016
SWIDTH 666 0
DWIDTH 6 0
BBX 4 7 1 0
BITMAP
40
00
90
90
90
90
E0
ENDCHAR
STARTCHAR 1F51
ENCODING 8017
SWIDTH 666 0
DWIDTH 6 0
BBX 4 7 1 0
BITMAP
40
00
90
90
90
90
E0
ENDCHAR
STARTCHAR 1F52
ENCODING 8018
SWIDTH 666 0
DWIDTH 6 0
BBX 4 7 1 0
BITMAP
A0
20
90
90
90
90
E0
ENDCHAR
STARTCHAR 1F53
ENCODING 8019
SWIDTH 666 0
DWIDTH 6 0
BBX 4 7 1 0
BITMAP
A0
20
90
90
90
90
E0
ENDCHAR
STARTCHAR 1F54
ENCODING 8020
SWIDTH 666 0
DWIDTH 6 0
BBX 4 7 1 0
BITMAP
A0
00
90
90
90
90
E0
ENDCHAR
STARTCHAR 1F55
ENCODING 8021
SWIDTH 666 0
DWIDTH 6 0
BBX 4 7 1 0
BITMAP
A0
00
90
90
90
90
E0
ENDCHAR
STARTCHAR 1F56
ENCODING 8022
SWIDTH 666 0
DWIDTH 6 0
BBX 4 8 1 0
BITMAP
60
40
00
90
90
90
90
E0
ENDCHAR
STARTCHAR 1F57
ENCODING 8023
SWIDTH 666 0
DWIDTH 6 0
BBX 4 8 1 0
BITMAP
60
40
00
90
90
90
90
E0
ENDCHAR
STARTCHAR 1F59
ENCODING 8025
SWIDTH 888 0
DWIDTH 8 0
BBX 6 6 1 0
BITMAP
C4
28
28
10
10
10
ENDCHAR
STARTCHAR 1F5B
ENCODING 8027
SWIDTH 1111 0
DWIDTH 10 0
BBX 8 6 1 0
BITMAP
D1
0A
0A
04
04
04
ENDCHAR
STARTCHAR 1F5D
ENCODING 8029
SWIDTH 1000 0
DWIDTH 9 0
BBX 8 6 1 0
BITMAP
D1
0A
0A
04
04
04
ENDCHAR
STARTCHAR 1F5F
ENCODING 8031
SWIDTH 1111 0
DWIDTH 10 0
BBX 8 7 1 0
BITMAP
C0
11
09
06
04
04
04
ENDCHAR
STARTCHAR 1F60
ENCODING 8032
SWIDTH 777 0
DWIDTH 7 0
BBX 6 7 0 0
BITMAP
10
10
44
94
94
54
6C
ENDCHAR
STARTCHAR 1F61
ENCODING 8033
SWIDTH 777 0
DWIDTH 7 0
BBX 6 7 0 0
BITMAP
10
10
44
94
94
54
6C
ENDCHAR
STARTCHAR 1F62
ENCODING 8034
SWIDTH 777 0
DWIDTH 7 0
BBX 6 7 0 0
BITMAP
30
28
44
94
94
54
6C
ENDCHAR
STARTCHAR 1F63
ENCODING 8035
SWIDTH 777 0
DWIDTH 7 0
BBX 6 7 0 0
BITMAP
30
28
44
94
94
54
6C
ENDCHAR
STARTCHAR 1F64
ENCODING 8036
SWIDTH 777 0
DWIDTH 7 0
BBX 6 7 0 0
BITMAP
30
30
44
94
94
54
6C
ENDCHAR
STARTCHAR 1F65
ENCODING 8037
SWIDTH 777 0
DWIDTH 7 0
BBX 6 7 0 0
BITMAP
30
30
44
94
94
54
6C
ENDCHAR
STARTCHAR 1F66
ENCODING 8038
SWIDTH 777 0
DWIDTH 7 0
BBX 6 8 0 0
BITMAP
38
10
10
44
94
94
54
6C
ENDCHAR
STARTCHAR 1F67
ENCODING 8039
SWIDTH 777 0
DWIDTH 7 0
BBX 6 8 0 0
BITMAP
38
10
10
44
94
94
54
6C
ENDCHAR
STARTCHAR 1F68
ENCODING 8040
SWIDTH 1000 0
DWIDTH 9 0
BBX 7 7 1 0
BITMAP
3C
E2
42
42
42
24
76
ENDCHAR
STARTCHAR 1F69
ENCODING 8041
SWIDTH 1000 0
DWIDTH 9 0
BBX 7 7 1 0
BITMAP
3C
E2
42
42
42
24
76
ENDCHAR
STARTCHAR 1F6A
ENCODING 8042
SWIDTH 1111 0
DWIDTH 10 0
BBX 9 7 1 0
BITMAP
0F00
D980
5080
1080
1080
0900
1D80
ENDCHAR
STARTCHAR 1F6B
ENCODING 8043
SWIDTH 1222 0
DWIDTH 11 0
BBX 9 7 1 0
BITMAP
0F00
D880
1080
1080
1080
0900
1D80
ENDCHAR
STARTCHAR 1F6C
ENCODING 8044
SWIDTH 1111 0
DWIDTH 10 0
BBX 9 7 1 0
BITMAP
0F00
D180
1080
1080
1080
0900
1B80
ENDCHAR
STARTCHAR 1F6D
ENCODING 8045
SWIDTH 1111 0
DWIDTH 10 0
BBX 9 7 1 0
BITMAP
0F00
D980
1080
1080
1080
0900
1980
ENDCHAR
STARTCHAR 1F6E
ENCODING 8046
SWIDTH 1222 0
DWIDTH 11 0
BBX 9 7 1 0
BITMAP
C700
0880
1080
1080
1080
0880
1D80
ENDCHAR
STARTCHAR 1F6F
ENCODING 8047
SWIDTH 1222 0
DWIDTH 11 0
BBX 9 7 1 0
BITMAP
C700
0880
1080
1080
1080
0880
1D80
ENDCHAR
STARTCHAR 1F70
ENCODING 8048
SWIDTH 666 0
DWIDTH 6 0
BBX 5 7 0 0
BITMAP
20
20
78
88
88
48
78
ENDCHAR
STARTCHAR 1F71
ENCODING 8049
SWIDTH 666 0
DWIDTH 6 0
BBX 5 7 0 0
BITMAP
20
20
78
88
88
48
78
ENDCHAR
STARTCHAR 1F72
ENCODING 8050
SWIDTH 555 0
DWIDTH 5 0
BBX 3 7 1 0
BITMAP
40
40
E0
A0
C0
80
E0
ENDCHAR
STARTCHAR 1F73
ENCODING 8051
SWIDTH 555 0
DWIDTH 5 0
BBX 3 7 1 0
BITMAP
40
40
E0
A0
C0
80
E0
ENDCHAR
STARTCHAR 1F74
ENCODING 8052
SWIDTH 666 0
DWIDTH 6 0
BBX 5 9 0 -2
BITMAP
20
20
B0
48
48
48
48
08
08
ENDCHAR
STARTCHAR 1F75
ENCODING 8053
SWIDTH 666 0
DWIDTH 6 0
BBX 5 9 0 -2
BITMAP
20
40
B0
48
48
48
48
08
08
ENDCHAR
STARTCHAR 1F76
ENCODING 8054
SWIDTH 333 0
DWIDTH 3 0
BBX 1 7 1 0
BITMAP
80
80
80
80
80
80
80
ENDCHAR
STARTCHAR 1F77
ENCODING 8055
SWIDTH 333 0
DWIDTH 3 0
BBX 1 7 1 0
BITMAP
80
80
80
80
80
80
80
ENDCHAR
STARTCHAR 1F78
ENCODING 8056
SWIDTH 666 0
DWIDTH 6 0
BBX 5 7 0 0
BITMAP
20
20
70
48
88
48
70
ENDCHAR
STARTCHAR 1F79
ENCODING 8057
SWIDTH 666 0
DWIDTH 6 0
BBX 5 7 0 0
BITMAP
20
20
70
48
88
48
70
ENDCHAR
STARTCHAR 1F7A
ENCODING 8058
SWIDTH 666 0
DWIDTH 6 0
BBX 4 7 1 0
BITMAP
40
40
90
90
90
90
E0
ENDCHAR
STARTCHAR 1F7B
ENCODING 8059
SWIDTH 666 0
DWIDTH 6 0
BBX 4 7 1 0
BITMAP
40
40
90
90
90
90
E0
ENDCHAR
STARTCHAR 1F7C
ENCODING 8060
SWIDTH 777 0
DWIDTH 7 0
BBX 6 7 0 0
BITMAP
10
10
44
94
94
54
6C
ENDCHAR
STARTCHAR 1F7D
ENCODING 8061
SWIDTH 777 0
DWIDTH 7 0
BBX 6 7 0 0
BITMAP
10
20
44
94
94
54
6C
ENDCHAR
STARTCHAR 1F80
ENCODING 8064
SWIDTH 666 0
DWIDTH 6 0
BBX 5 10 0 -3
BITMAP
20
00
78
88
88
48
78
00
20
20
ENDCHAR
STARTCHAR 1F81
ENCODING 8065
SWIDTH 666 0
DWIDTH 6 0
BBX 5 10 0 -3
BITMAP
20
00
78
88
88
48
78
00
20
20
ENDCHAR
STARTCHAR 1F82
ENCODING 8066
SWIDTH 666 0
DWIDTH 6 0
BBX 5 10 0 -3
BITMAP
50
10
78
88
88
48
78
00
20
20
ENDCHAR
STARTCHAR 1F83
ENCODING 8067
SWIDTH 666 0
DWIDTH 6 0
BBX 5 10 0 -3
BITMAP
50
10
78
88
88
48
78
00
20
20
ENDCHAR
STARTCHAR 1F84
ENCODING 8068
SWIDTH 666 0
DWIDTH 6 0
BBX 5 10 0 -3
BITMAP
50
00
78
88
88
48
78
00
20
20
ENDCHAR
STARTCHAR 1F85
ENCODING 8069
SWIDTH 666 0
DWIDTH 6 0
BBX 5 10 0 -3
BITMAP
50
00
78
88
88
48
78
00
20
20
ENDCHAR
STARTCHAR 1F86
ENCODING 8070
SWIDTH 666 0
DWIDTH 6 0
BBX 5 11 0 -3
BITMAP
30
20
00
78
88
88
48
78
00
20
20
ENDCHAR
STARTCHAR 1F87
ENCODING 8071
SWIDTH 666 0
DWIDTH 6 0
BBX 5 11 0 -3
BITMAP
30
20
00
78
88
88
48
78
00
20
20
ENDCHAR
STARTCHAR 1F88
ENCODING 8072
SWIDTH 1000 0
DWIDTH 9 0
BBX 9 6 0 0
BITMAP
9000
3100
2900
7900
4500
8580
ENDCHAR
STARTCHAR 1F89
ENCODING 8073
SWIDTH 1000 0
DWIDTH 9 0
BBX 9 6 0 0
BITMAP
9000
3100
2900
7900
4500
8580
ENDCHAR
STARTCHAR 1F8A
ENCODING 8074
SWIDTH 1222 0
DWIDTH 11 0
BBX 9 6 1 0
BITMAP
C800
5880
2480
3C80
2480
4280
ENDCHAR
STARTCHAR 1F8B
ENCODING 8075
SWIDTH 1222 0
DWIDTH 11 0
BBX 10 6 1 0
BITMAP
C800
1880
1480
3C80
2280
42C0
ENDCHAR
STARTCHAR 1F8C
ENCODING 8076
SWIDTH 1222 0
DWIDTH 11 0
BBX 9 6 1 0
BITMAP
D800
1880
2480
3C80
2480
4280
ENDCHAR
STARTCHAR 1F8D
ENCODING 8077
SWIDTH 1222 0
DWIDTH 11 0
BBX 9 6 1 0
BITMAP
D800
1880
2480
3C80
2480
4280
ENDCHAR
STARTCHAR 1F8E
ENCODING 8078
SWIDTH 1222 0
DWIDTH 11 0
BBX 10 7 1 0
BITMAP
C000
0800
1480
1480
1C80
2280
22C0
ENDCHAR
STARTCHAR 1F8F
ENCODING 8079
SWIDTH 1222 0
DWIDTH 11 0
BBX 10 7 1 0
BITMAP
C000
0800
1480
1480
1C80
2280
22C0
ENDCHAR
STARTCHAR 1F90
ENCODING 8080
SWIDTH 666 0
DWIDTH 6 0
BBX 5 9 0 -2
BITMAP
20
20
B0
48
48
48
48
48
48
ENDCHAR
STARTCHAR 1F91
ENCODING 8081
SWIDTH 666 0
DWIDTH 6 0
BBX 5 9 0 -2
BITMAP
20
20
B0
48
48
48
48
48
48
ENDCHAR
STARTCHAR 1F92
ENCODING 8082
SWIDTH 666 0
DWIDTH 6 0
BBX 5 9 0 -2
BITMAP
60
50
B0
48
48
48
48
48
48
ENDCHAR
STARTCHAR 1F93
ENCODING 8083
SWIDTH 666 0
DWIDTH 6 0
BBX 5 9 0 -2
BITMAP
60
50
B0
48
48
48
48
48
48
ENDCHAR
STARTCHAR 1F94
ENCODING 8084
SWIDTH 666 0
DWIDTH 6 0
BBX 5 9 0 -2
BITMAP
50
60
B0
48
48
48
48
48
48
ENDCHAR
STARTCHAR 1F95
ENCODING 8085
SWIDTH 666 0
DWIDTH 6 0
BBX 5 9 0 -2
BITMAP
50
60
B0
48
48
48
48
48
48
ENDCHAR
STARTCHAR 1F96
ENCODING 8086
SWIDTH 666 0
DWIDTH 6 0
BBX 5 10 0 -2
BITMAP
70
20
20
B0
48
48
48
48
48
48
ENDCHAR
STARTCHAR 1F97
ENCODING 8087
SWIDTH 666 0
DWIDTH 6 0
BBX 5 10 0 -2
BITMAP
70
20
20
B0
48
48
48
48
48
48
ENDCHAR
STARTCHAR 1F98
ENCODING 8088
SWIDTH 1222 0
DWIDTH 11 0
BBX 9 6 1 0
BITMAP
C400
4480
7C80
4480
4480
4480
ENDCHAR
STARTCHAR 1F99
ENCODING 8089
SWIDTH 1222 0
DWIDTH 11 0
BBX 9 6 1 0
BITMAP
C400
4480
7C80
4480
4480
4480
ENDCHAR
STARTCHAR 1F9A
ENCODING 8090
SWIDTH 1444 0
DWIDTH 13 0
BBX 11 6 1 0
BITMAP
D100
5120
1F20
1120
1120
1120
ENDCHAR
STARTCHAR 1F9B
ENCODING 8091
SWIDTH 1444 0
DWIDTH 13 0
BBX 11 6 1 0
BITMAP
D100
1120
1F20
1120
1120
1120
ENDCHAR
STARTCHAR 1F9C
ENCODING 8092
SWIDTH 1333 0
DWIDTH 12 0
BBX 11 6 1 0
BITMAP
D100
1140
1F40
1140
1140
1120
ENDCHAR
STARTCHAR 1F9D
ENCODING 8093
SWIDTH 1333 0
DWIDTH 12 0
BBX 11 6 1 0
BITMAP
D100
1120
1F20
1120
1120
1120
ENDCHAR
STARTCHAR 1F9E
ENCODING 8094
SWIDTH 1444 0
DWIDTH 13 0
BBX 12 7 1 0
BITMAP
C000
1080
10A0
0FA0
10A0
10A0
10B0
ENDCHAR
STARTCHAR 1F9F
ENCODING 8095
SWIDTH 1444 0
DWIDTH 13 0
BBX 12 7 1 0
BITMAP
C000
1080
10A0
0FA0
10A0
10A0
10B0
ENDCHAR
STARTCHAR 1FA0
ENCODING 8096
SWIDTH 777 0
DWIDTH 7 0
BBX 6 10 0 -3
BITMAP
10
10
44
94
94
54
6C
00
20
20
ENDCHAR
STARTCHAR 1FA1
ENCODING 8097
SWIDTH 777 0
DWIDTH 7 0
BBX 6 10 0 -3
BITMAP
10
10
44
94
94
54
6C
00
20
20
ENDCHAR
STARTCHAR 1FA2
ENCODING 8098
SWIDTH 777 0
DWIDTH 7 0
BBX 6 10 0 -3
BITMAP
30
28
44
94
94
54
6C
00
20
20
ENDCHAR
STARTCHAR 1FA3
ENCODING 8099
SWIDTH 777 0
DWIDTH 7 0
BBX 6 10 0 -3
BITMAP
30
28
44
94
94
54
6C
00
20
20
ENDCHAR
STARTCHAR 1FA4
ENCODING 8100
SWIDTH 777 0
DWIDTH 7 0
BBX 6 10 0 -3
BITMAP
30
30
44
94
94
54
6C
00
20
20
ENDCHAR
STARTCHAR 1FA5
ENCODING 8101
SWIDTH 777 0
DWIDTH 7 0
BBX 6 10 0 -3
BITMAP
30
30
44
94
94
54
6C
00
20
20
ENDCHAR
STARTCHAR 1FA6
ENCODING 8102
SWIDTH 777 0
DWIDTH 7 0
BBX 6 11 0 -3
BITMAP
38
10
10
44
94
94
54
6C
00
20
20
ENDCHAR
STARTCHAR 1FA7
ENCODING 8103
SWIDTH 777 0
DWIDTH 7 0
BBX 6 11 0 -3
BITMAP
38
10
10
44
94
94
54
6C
00
20
20
ENDCHAR
STARTCHAR 1FA8
ENCODING 8104
SWIDTH 1222 0
DWIDTH 11 0
BBX 10 7 1 0
BITMAP
3C00
E200
4280
4280
4280
2480
76C0
ENDCHAR
STARTCHAR 1FA9
ENCODING 8105
SWIDTH 1222 0
DWIDTH 11 0
BBX 10 7 1 0
BITMAP
3C00
E200
4280
4280
4280
2480
76C0
ENDCHAR
STARTCHAR 1FAA
ENCODING 8106
SWIDTH 1444 0
DWIDTH 13 0
BBX 12 7 1 0
BITMAP
0F00
D980
50A0
10A0
10A0
0920
1DB0
ENDCHAR
STARTCHAR 1FAB
ENCODING 8107
SWIDTH 1444 0
DWIDTH 13 0
BBX 12 7 1 0
BITMAP
0F00
D880
10A0
10A0
10A0
0920
1DB0
ENDCHAR
STARTCHAR 1FAC
ENCODING 8108
SWIDTH 1444 0
DWIDTH 13 0
BBX 12 7 1 0
BITMAP
0F00
D180
10A0
10A0
10A0
0920
1BB0
ENDCHAR
STARTCHAR 1FAD
ENCODING 8109
SWIDTH 1444 0
DWIDTH 13 0
BBX 12 7 1 0
BITMAP
0F00
D980
10A0
10A0
10A0
0920
19B0
ENDCHAR
STARTCHAR 1FAE
ENCODING 8110
SWIDTH 1444 0
DWIDTH 13 0
BBX 12 7 1 0
BITMAP
C700
0880
10A0
10A0
10A0
08A0
1D90
ENDCHAR
STARTCHAR 1FAF
ENCODING 8111
SWIDTH 1444 0
DWIDTH 13 0
BBX 12 7 1 0
BITMAP
C700
0880
10A0
10A0
10A0
08A0
1D90
ENDCHAR
STARTCHAR 1FB0
ENCODING 8112
SWIDTH 666 0
DWIDTH 6 0
BBX 5 6 0 0
BITMAP
30
78
88
88
48
78
ENDCHAR
STARTCHAR 1FB1
ENCODING 8113
SWIDTH 666 0
DWIDTH 6 0
BBX 5 6 0 0
BITMAP
70
78
88
88
48
78
ENDCHAR
STARTCHAR 1FB2
ENCODING 8114
SWIDTH 666 0
DWIDTH 6 0
BBX 5 10 0 -3
BITMAP
20
20
78
88
88
48
78
00
20
20
ENDCHAR
STARTCHAR 1FB3
ENCODING 8115
SWIDTH 666 0
DWIDTH 6 0
BBX 5 8 0 -3
BITMAP
78
88
88
48
78
00
20
20
ENDCHAR
STARTCHAR 1FB4
ENCODING 8116
SWIDTH 666 0
DWIDTH 6 0
BBX 5 10 0 -3
BITMAP
20
20
78
88
88
48
78
00
20
20
ENDCHAR
STARTCHAR 1FB6
ENCODING 8118
SWIDTH 666 0
DWIDTH 6 0
BBX 5 6 0 0
BITMAP
30
78
88
88
48
78
ENDCHAR
STARTCHAR 1FB7
ENCODING 8119
SWIDTH 666 0
DWIDTH 6 0
BBX 5 9 0 -3
BITMAP
30
78
88
88
48
78
00
20
20
ENDCHAR
STARTCHAR 1FB8
ENCODING 8120
SWIDTH 666 0
DWIDTH 6 0
BBX 6 7 0 0
BITMAP
30
30
30
50
78
48
84
ENDCHAR
STARTCHAR 1FB9
ENCODING 8121
SWIDTH 666 0
DWIDTH 6 0
BBX 6 7 0 0
BITMAP
30
30
30
50
78
48
84
ENDCHAR
STARTCHAR 1FBA
ENCODING 8122
SWIDTH 777 0
DWIDTH 7 0
BBX 7 6 0 0
BITMAP
98
98
24
3C
24
42
ENDCHAR
STARTCHAR 1FBB
ENCODING 8123
SWIDTH 777 0
DWIDTH 7 0
BBX 7 6 0 0
BITMAP
98
98
24
3C
24
42
ENDCHAR
STARTCHAR 1FBC
ENCODING 8124
SWIDTH 1000 0
DWIDTH 9 0
BBX 8 6 0 0
BITMAP
30
31
51
79
49
85
ENDCHAR
STARTCHAR 1FBD
ENCODING 8125
SWIDTH 222 0
DWIDTH 2 0
BBX 1 1 0 4
BITMAP
80
ENDCHAR
STARTCHAR 1FBE
ENCODING 8126
SWIDTH 333 0
DWIDTH 3 0
BBX 1 2 1 -2
BITMAP
80
80
ENDCHAR
STARTCHAR 1FBF
ENCODING 8127
SWIDTH 222 0
DWIDTH 2 0
BBX 1 1 0 4
BITMAP
80
ENDCHAR
STARTCHAR 1FC0
ENCODING 8128
SWIDTH 222 0
DWIDTH 2 0
BBX 3 1 0 5
BITMAP
E0
ENDCHAR
STARTCHAR 1FC1
ENCODING 8129
SWIDTH 222 0
DWIDTH 2 0
BBX 2 3 0 5
BITMAP
C0
00
C0
ENDCHAR
STARTCHAR 1FC2
ENCODING 8130
SWIDTH 666 0
DWIDTH 6 0
BBX 5 9 0 -2
BITMAP
20
20
B0
48
48
48
48
48
48
ENDCHAR
STARTCHAR 1FC3
ENCODING 8131
SWIDTH 666 0
DWIDTH 6 0
BBX 5 7 0 -2
BITMAP
B0
48
48
48
48
48
48
ENDCHAR
STARTCHAR 1FC4
ENCODING 8132
SWIDTH 666 0
DWIDTH 6 0
BBX 5 9 0 -2
BITMAP
20
40
B0
48
48
48
48
48
48
ENDCHAR
STARTCHAR 1FC6
ENCODING 8134
SWIDTH 666 0
DWIDTH 6 0
BBX 5 8 0 -2
BITMAP
30
B0
48
48
48
48
08
08
ENDCHAR
STARTCHAR 1FC7
ENCODING 8135
SWIDTH 666 0
DWIDTH 6 0
BBX 5 8 0 -2
BITMAP
30
B0
48
48
48
48
48
48
ENDCHAR
STARTCHAR 1FC8
ENCODING 8136
SWIDTH 888 0
DWIDTH 8 0
BBX 7 6 0 0
BITMAP
BE
A0
3E
20
20
3E
ENDCHAR
STARTCHAR 1FC9
ENCODING 8137
SWIDTH 777 0
DWIDTH 7 0
BBX 7 6 0 0
BITMAP
BE
A0
3E
20
20
3E
ENDCHAR
STARTCHAR 1FCA
ENCODING 8138
SWIDTH 888 0
DWIDTH 8 0
BBX 7 6 0 0
BITMAP
A2
A2
3E
22
22
22
ENDCHAR
STARTCHAR 1FCB
ENCODING 8139
SWIDTH 888 0
DWIDTH 8 0
BBX 7 6 0 0
BITMAP
A2
A2
3E
22
22
22
ENDCHAR
STARTCHAR 1FCC
ENCODING 8140
SWIDTH 1000 0
DWIDTH 9 0
BBX 8 6 1 0
BITMAP
88
8A
FA
8A
8A
8B
ENDCHAR
STARTCHAR 1FCD
ENCODING 8141
SWIDTH 444 0
DWIDTH 4 0
BBX 2 2 1 4
BITMAP
C0
40
ENDCHAR
STARTCHAR 1FCE
ENCODING 8142
SWIDTH 333 0
DWIDTH 3 0
BBX 2 1 1 4
BITMAP
C0
ENDCHAR
STARTCHAR 1FCF
ENCODING 8143
SWIDTH 444 0
DWIDTH 4 0
BBX 2 1 1 4
BITMAP
C0
ENDCHAR
STARTCHAR 1FD0
ENCODING 8144
SWIDTH 333 0
DWIDTH 3 0
BBX 2 6 0 0
BITMAP
C0
40
40
40
40
40
ENDCHAR
STARTCHAR 1FD1
ENCODING 8145
SWIDTH 333 0
DWIDTH 3 0
BBX 3 6 0 0
BITMAP
E0
40
40
40
40
40
ENDCHAR
STARTCHAR 1FD2
ENCODING 8146
SWIDTH 333 0
DWIDTH 3 0
BBX 2 8 0 0
BITMAP
80
80
C0
40
40
40
40
40
ENDCHAR
STARTCHAR 1FD3
ENCODING 8147
SWIDTH 333 0
DWIDTH 3 0
BBX 3 8 0 0
BITMAP
40
40
A0
40
40
40
40
40
ENDCHAR
STARTCHAR 1FD6
ENCODING 8150
SWIDTH 333 0
DWIDTH 3 0
BBX 2 6 0 0
BITMAP
C0
40
40
40
40
40
ENDCHAR
STARTCHAR 1FD7
ENCODING 8151
SWIDTH 333 0
DWIDTH 3 0
BBX 2 8 0 0
BITMAP
C0
00
C0
40
40
40
40
40
ENDCHAR
STARTCHAR 1FD8
ENCODING 8152
SWIDTH 333 0
DWIDTH 3 0
BBX 2 7 0 0
BITMAP
C0
40
40
40
40
40
40
ENDCHAR
STARTCHAR 1FD9
ENCODING 8153
SWIDTH 333 0
DWIDTH 3 0
BBX 3 7 0 0
BITMAP
E0
40
40
40
40
40
40
ENDCHAR
STARTCHAR 1FDA
ENCODING 8154
SWIDTH 444 0
DWIDTH 4 0
BBX 3 6 0 0
BITMAP
A0
A0
20
20
20
20
ENDCHAR
STARTCHAR 1FDB
ENCODING 8155
SWIDTH 444 0
DWIDTH 4 0
BBX 3 6 0 0
BITMAP
A0
A0
20
20
20
20
ENDCHAR
STARTCHAR 1FDD
ENCODING 8157
SWIDTH 444 0
DWIDTH 4 0
BBX 2 1 1 4
BITMAP
C0
ENDCHAR
STARTCHAR 1FDE
ENCODING 8158
SWIDTH 333 0
DWIDTH 3 0
BBX 2 1 1 4
BITMAP
C0
ENDCHAR
STARTCHAR 1FDF
ENCODING 8159
SWIDTH 444 0
DWIDTH 4 0
BBX 2 1 1 4
BITMAP
C0
ENDCHAR
STARTCHAR 1FE0
ENCODING 8160
SWIDTH 666 0
DWIDTH 6 0
BBX 4 6 1 0
BITMAP
60
90
90
90
90
E0
ENDCHAR
STARTCHAR 1FE1
ENCODING 8161
SWIDTH 666 0
DWIDTH 6 0
BBX 4 6 1 0
BITMAP
E0
90
90
90
90
E0
ENDCHAR
STARTCHAR 1FE2
ENCODING 8162
SWIDTH 666 0
DWIDTH 6 0
BBX 4 8 1 0
BITMAP
40
40
A0
90
90
90
90
E0
ENDCHAR
STARTCHAR 1FE3
ENCODING 8163
SWIDTH 666 0
DWIDTH 6 0
BBX 4 8 1 0
BITMAP
20
40
A0
90
90
90
90
E0
ENDCHAR
STARTCHAR 1FE4
ENCODING 8164
SWIDTH 666 0
DWIDTH 6 0
BBX 4 9 1 -2
BITMAP
40
00
E0
90
90
90
E0
80
80
ENDCHAR
STARTCHAR 1FE5
ENCODING 8165
SWIDTH 666 0
DWIDTH 6 0
BBX 4 9 1 -2
BITMAP
40
00
E0
90
90
90
E0
80
80
ENDCHAR
STARTCHAR 1FE6
ENCODING 8166
SWIDTH 666 0
DWIDTH 6 0
BBX 4 6 1 0
BITMAP
60
90
90
90
90
E0
ENDCHAR
STARTCHAR 1FE7
ENCODING 8167
SWIDTH 666 0
DWIDTH 6 0
BBX 4 8 1 0
BITMAP
E0
00
A0
90
90
90
90
E0
ENDCHAR
STARTCHAR 1FE8
ENCODING 8168
SWIDTH 666 0
DWIDTH 6 0
BBX 4 7 1 0
BITMAP
60
90
90
60
20
20
20
ENDCHAR
STARTCHAR 1FE9
ENCODING 8169
SWIDTH 666 0
DWIDTH 6 0
BBX 4 7 1 0
BITMAP
60
90
90
60
20
20
20
ENDCHAR
STARTCHAR 1FEA
ENCODING 8170
SWIDTH 888 0
DWIDTH 8 0
BBX 7 6 0 0
BITMAP
A2
94
14
08
08
08
ENDCHAR
STARTCHAR 1FEB
ENCODING 8171
SWIDTH 888 0
DWIDTH 8 0
BBX 7 6 0 0
BITMAP
B2
92
0C
08
08
08
ENDCHAR
STARTCHAR 1FEC
ENCODING 8172
SWIDTH 888 0
DWIDTH 8 0
BBX 6 6 1 0
BITMAP
FC
44
7C
40
40
40
ENDCHAR
STARTCHAR 1FED
ENCODING 8173
SWIDTH 333 0
DWIDTH 3 0
BBX 3 3 0 5
BITMAP
80
40
A0
ENDCHAR
STARTCHAR 1FEE
ENCODING 8174
SWIDTH 333 0
DWIDTH 3 0
BBX 3 3 0 5
BITMAP
40
40
A0
ENDCHAR
STARTCHAR 1FEF
ENCODING 8175
SWIDTH 222 0
DWIDTH 2 0
BBX 1 2 0 4
BITMAP
80
80
ENDCHAR
STARTCHAR 1FF2
ENCODING 8178
SWIDTH 777 0
DWIDTH 7 0
BBX 6 10 0 -3
BITMAP
10
10
44
94
94
54
6C
00
20
20
ENDCHAR
STARTCHAR 1FF3
ENCODING 8179
SWIDTH 777 0
DWIDTH 7 0
BBX 6 8 0 -3
BITMAP
44
94
94
54
6C
00
20
20
ENDCHAR
STARTCHAR 1FF4
ENCODING 8180
SWIDTH 777 0
DWIDTH 7 0
BBX 6 10 0 -3
BITMAP
10
20
44
94
94
54
6C
00
20
20
ENDCHAR
STARTCHAR 1FF6
ENCODING 8182
SWIDTH 777 0
DWIDTH 7 0
BBX 6 6 0 0
BITMAP
38
44
94
94
54
6C
ENDCHAR
STARTCHAR 1FF7
ENCODING 8183
SWIDTH 777 0
DWIDTH 7 0
BBX 6 9 0 -3
BITMAP
38
44
94
94
54
6C
00
20
20
ENDCHAR
STARTCHAR 1FF8
ENCODING 8184
SWIDTH 888 0
DWIDTH 8 0
BBX 8 7 0 0
BITMAP
1E
B3
A1
21
21
33
1E
ENDCHAR
STARTCHAR 1FF9
ENCODING 8185
SWIDTH 888 0
DWIDTH 8 0
BBX 8 7 0 0
BITMAP
1E
B3
A1
21
21
33
1E
ENDCHAR
STARTCHAR 1FFA
ENCODING 8186
SWIDTH 1000 0
DWIDTH 9 0
BBX 8 7 0 0
BITMAP
1E
B3
A1
21
21
12
3B
ENDCHAR
STARTCHAR 1FFB
ENCODING 8187
SWIDTH 1000 0
DWIDTH 9 0
BBX 8 7 0 0
BITMAP
1E
B3
A1
21
21
12
3B
ENDCHAR
STARTCHAR 1FFC
ENCODING 8188
SWIDTH 1111 0
DWIDTH 10 0
BBX 9 7 0 0
BITMAP
3800
4400
8300
8300
4500
4500
EE80
ENDCHAR
STARTCHAR 1FFD
ENCODING 8189
SWIDTH 222 0
DWIDTH 2 0
BBX 1 2 0 4
BITMAP
80
80
ENDCHAR
STARTCHAR 1FFE
ENCODING 8190
SWIDTH 222 0
DWIDTH 2 0
BBX 1 1 0 4
BITMAP
80
ENDCHAR
STARTCHAR 2000
ENCODING 8192
SWIDTH 333 0
DWIDTH 3 0
BBX 0 0 0 0
BITMAP
ENDCHAR
STARTCHAR 2001
ENCODING 8193
SWIDTH 333 0
DWIDTH 3 0
BBX 0 0 0 0
BITMAP
ENDCHAR
STARTCHAR 2002
ENCODING 8194
SWIDTH 333 0
DWIDTH 3 0
BBX 0 0 0 0
BITMAP
ENDCHAR
STARTCHAR 2003
ENCODING 8195
SWIDTH 333 0
DWIDTH 3 0
BBX 0 0 0 0
BITMAP
ENDCHAR
STARTCHAR 2004
ENCODING 8196
SWIDTH 333 0
DWIDTH 3 0
BBX 0 0 0 0
BITMAP
ENDCHAR
STARTCHAR 2005
ENCODING 8197
SWIDTH 333 0
DWIDTH 3 0
BBX 0 0 0 0
BITMAP
ENDCHAR
STARTCHAR 2006
ENCODING 8198
SWIDTH 333 0
DWIDTH 3 0
BBX 0 0 0 0
BITMAP
ENDCHAR
STARTCHAR 2007
ENCODING 8199
SWIDTH 333 0
DWIDTH 3 0
BBX 0 0 0 0
BITMAP
ENDCHAR
STARTCHAR 2008
ENCODING 8200
SWIDTH 333 0
DWIDTH 3 0
BBX 0 0 0 0
BITMAP
ENDCHAR
STARTCHAR 2009
ENCODING 8201
SWIDTH 111 0
DWIDTH 1 0
BBX 0 0 0 0
BITMAP
ENDCHAR
STARTCHAR 200A
ENCODING 8202
SWIDTH 111 0
DWIDTH 1 0
BBX 0 0 0 0
BITMAP
ENDCHAR
STARTCHAR 200B
ENCODING 8203
SWIDTH 0 0
DWIDTH 0 0
BBX 0 0 0 0
BITMAP
ENDCHAR
STARTCHAR 200C
ENCODING 8204
SWIDTH 0 0
DWIDTH 0 0
BBX 0 0 0 0
BITMAP
ENDCHAR
STARTCHAR 200D
ENCODING 8205
SWIDTH 0 0
DWIDTH 0 0
BBX 0 0 0 0
BITMAP
ENDCHAR
STARTCHAR 200E
ENCODING 8206
SWIDTH 0 0
DWIDTH 0 0
BBX 0 0 0 0
BITMAP
ENDCHAR
STARTCHAR 200F
ENCODING 8207
SWIDTH 0 0
DWIDTH 0 0
BBX 0 0 0 0
BITMAP
ENDCHAR
STARTCHAR 2010
ENCODING 8208
SWIDTH 333 0
DWIDTH 3 0
BBX 3 1 0 2
BITMAP
E0
ENDCHAR
STARTCHAR 2011
ENCODING 8209
SWIDTH 333 0
DWIDTH 3 0
BBX 3 1 0 2
BITMAP
E0
ENDCHAR
STARTCHAR 2012
ENCODING 8210
SWIDTH 333 0
DWIDTH 3 0
BBX 3 1 0 2
BITMAP
E0
ENDCHAR
STARTCHAR 2013
ENCODING 8211
SWIDTH 555 0
DWIDTH 5 0
BBX 5 1 0 2
BITMAP
F8
ENDCHAR
STARTCHAR 2014
ENCODING 8212
SWIDTH 1000 0
DWIDTH 9 0
BBX 7 1 1 2
BITMAP
FE
ENDCHAR
STARTCHAR 2015
ENCODING 8213
SWIDTH 1000 0
DWIDTH 9 0
BBX 7 1 1 2
BITMAP
FE
ENDCHAR
STARTCHAR 2016
ENCODING 8214
SWIDTH 444 0
DWIDTH 4 0
BBX 2 7 1 0
BITMAP
C0
C0
C0
C0
C0
C0
C0
ENDCHAR
STARTCHAR 2017
ENCODING 8215
SWIDTH 333 0
DWIDTH 3 0
BBX 3 2 0 -3
BITMAP
E0
E0
ENDCHAR
STARTCHAR 2018
ENCODING 8216
SWIDTH 222 0
DWIDTH 2 0
BBX 1 2 1 5
BITMAP
80
80
ENDCHAR
STARTCHAR 2019
ENCODING 8217
SWIDTH 222 0
DWIDTH 2 0
BBX 1 2 1 5
BITMAP
80
80
ENDCHAR
STARTCHAR 201A
ENCODING 8218
SWIDTH 222 0
DWIDTH 2 0
BBX 1 2 1 -1
BITMAP
80
80
ENDCHAR
STARTCHAR 201B
ENCODING 8219
SWIDTH 222 0
DWIDTH 2 0
BBX 1 1 1 4
BITMAP
80
ENDCHAR
STARTCHAR 201C
ENCODING 8220
SWIDTH 333 0
DWIDTH 3 0
BBX 3 2 0 5
BITMAP
A0
A0
ENDCHAR
STARTCHAR 201D
ENCODING 8221
SWIDTH 333 0
DWIDTH 3 0
BBX 3 2 0 5
BITMAP
A0
A0
ENDCHAR
STARTCHAR 201E
ENCODING 8222
SWIDTH 333 0
DWIDTH 3 0
BBX 3 2 0 -1
BITMAP
A0
20
ENDCHAR
STARTCHAR 201F
ENCODING 8223
SWIDTH 333 0
DWIDTH 3 0
BBX 3 1 0 4
BITMAP
A0
ENDCHAR
STARTCHAR 2020
ENCODING 8224
SWIDTH 555 0
DWIDTH 5 0
BBX 5 8 0 -1
BITMAP
20
20
F8
20
20
20
20
20
ENDCHAR
STARTCHAR 2021
ENCODING 8225
SWIDTH 555 0
DWIDTH 5 0
BBX 5 8 0 -1
BITMAP
20
F8
20
20
20
20
F8
20
ENDCHAR
STARTCHAR 2022
ENCODING 8226
SWIDTH 333 0
DWIDTH 3 0
BBX 1 2 1 2
BITMAP
80
80
ENDCHAR
STARTCHAR 2023
ENCODING 8227
SWIDTH 333 0
DWIDTH 3 0
BBX 1 2 1 2
BITMAP
80
80
ENDCHAR
STARTCHAR 2024
ENCODING 8228
SWIDTH 333 0
DWIDTH 3 0
BBX 1 1 1 0
BITMAP
80
ENDCHAR
STARTCHAR 2025
ENCODING 8229
SWIDTH 666 0
DWIDTH 6 0
BBX 4 1 1 0
BITMAP
90
ENDCHAR
STARTCHAR 2026
ENCODING 8230
SWIDTH 1000 0
DWIDTH 9 0
BBX 7 1 1 0
BITMAP
92
ENDCHAR
STARTCHAR 2027
ENCODING 8231
SWIDTH 333 0
DWIDTH 3 0
BBX 1 1 1 3
BITMAP
80
ENDCHAR
STARTCHAR 2028
ENCODING 8232
SWIDTH 0 0
DWIDTH 0 0
BBX 0 0 0 0
BITMAP
ENDCHAR
STARTCHAR 2029
ENCODING 8233
SWIDTH 0 0
DWIDTH 0 0
BBX 0 0 0 0
BITMAP
ENDCHAR
STARTCHAR 202A
ENCODING 8234
SWIDTH 0 0
DWIDTH 0 0
BBX 0 0 0 0
BITMAP
ENDCHAR
STARTCHAR 202B
ENCODING 8235
SWIDTH 0 0
DWIDTH 0 0
BBX 0 0 0 0
BITMAP
ENDCHAR
STARTCHAR 202C
ENCODING 8236
SWIDTH 0 0
DWIDTH 0 0
BBX 0 0 0 0
BITMAP
ENDCHAR
STARTCHAR 202D
ENCODING 8237
SWIDTH 0 0
DWIDTH 0 0
BBX 0 0 0 0
BITMAP
ENDCHAR
STARTCHAR 202E
ENCODING 8238
SWIDTH 0 0
DWIDTH 0 0
BBX 0 0 0 0
BITMAP
ENDCHAR
STARTCHAR 202F
ENCODING 8239
SWIDTH 111 0
DWIDTH 1 0
BBX 0 0 0 0
BITMAP
ENDCHAR
STARTCHAR 2030
ENCODING 8240
SWIDTH 1000 0
DWIDTH 9 0
BBX 9 7 0 0
BITMAP
E800
B000
F000
2000
3B80
6680
1B80
ENDCHAR
STARTCHAR 2031
ENCODING 8241
SWIDTH 1333 0
DWIDTH 12 0
BBX 12 7 0 0
BITMAP
4800
B000
B000
6000
3BB0
66D0
1BB0
ENDCHAR
STARTCHAR 2032
ENCODING 8242
SWIDTH 333 0
DWIDTH 3 0
BBX 1 3 1 4
BITMAP
80
80
80
ENDCHAR
STARTCHAR 2033
ENCODING 8243
SWIDTH 555 0
DWIDTH 5 0
BBX 3 3 1 4
BITMAP
A0
A0
C0
ENDCHAR
STARTCHAR 2034
ENCODING 8244
SWIDTH 666 0
DWIDTH 6 0
BBX 5 3 1 4
BITMAP
A8
B0
D0
ENDCHAR
STARTCHAR 2035
ENCODING 8245
SWIDTH 333 0
DWIDTH 3 0
BBX 1 3 1 4
BITMAP
80
80
80
ENDCHAR
STARTCHAR 2036
ENCODING 8246
SWIDTH 555 0
DWIDTH 5 0
BBX 3 3 1 4
BITMAP
C0
A0
A0
ENDCHAR
STARTCHAR 2037
ENCODING 8247
SWIDTH 666 0
DWIDTH 6 0
BBX 5 3 1 4
BITMAP
D0
B0
A8
ENDCHAR
STARTCHAR 2038
ENCODING 8248
SWIDTH 333 0
DWIDTH 3 0
BBX 3 2 0 -2
BITMAP
40
A0
ENDCHAR
STARTCHAR 2039
ENCODING 8249
SWIDTH 333 0
DWIDTH 3 0
BBX 1 2 1 1
BITMAP
80
80
ENDCHAR
STARTCHAR 203A
ENCODING 8250
SWIDTH 333 0
DWIDTH 3 0
BBX 1 2 1 1
BITMAP
80
80
ENDCHAR
STARTCHAR 203B
ENCODING 8251
SWIDTH 555 0
DWIDTH 5 0
BBX 5 5 0 0
BITMAP
20
50
A8
50
28
ENDCHAR
STARTCHAR 203C
ENCODING 8252
SWIDTH 555 0
DWIDTH 5 0
BBX 3 7 1 0
BITMAP
A0
A0
A0
A0
A0
00
A0
ENDCHAR
STARTCHAR 203D
ENCODING 8253
SWIDTH 555 0
DWIDTH 5 0
BBX 4 7 1 0
BITMAP
E0
D0
60
60
40
00
40
ENDCHAR
STARTCHAR 203E
ENCODING 8254
SWIDTH 333 0
DWIDTH 3 0
BBX 3 1 0 5
BITMAP
E0
ENDCHAR
STARTCHAR 203F
ENCODING 8255
SWIDTH 1000 0
DWIDTH 9 0
BBX 9 2 0 -1
BITMAP
8180
7E00
ENDCHAR
STARTCHAR 2040
ENCODING 8256
SWIDTH 1000 0
DWIDTH 9 0
BBX 9 2 0 5
BITMAP
3E00
C180
ENDCHAR
STARTCHAR 2041
ENCODING 8257
SWIDTH 666 0
DWIDTH 6 0
BBX 4 6 1 -1
BITMAP
10
20
20
40
40
A0
ENDCHAR
STARTCHAR 2042
ENCODING 8258
SWIDTH 777 0
DWIDTH 7 0
BBX 7 6 0 0
BITMAP
10
18
00
00
EE
CC
ENDCHAR
STARTCHAR 2043
ENCODING 8259
SWIDTH 333 0
DWIDTH 3 0
BBX 3 1 0 2
BITMAP
E0
ENDCHAR
STARTCHAR 2044
ENCODING 8260
SWIDTH 222 0
DWIDTH 2 0
BBX 5 7 -2 0
BITMAP
08
10
10
20
40
40
80
ENDCHAR
STARTCHAR 2045
ENCODING 8261
SWIDTH 333 0
DWIDTH 3 0
BBX 1 9 1 -2
BITMAP
80
80
80
80
80
80
80
80
80
ENDCHAR
STARTCHAR 2046
ENCODING 8262
SWIDTH 333 0
DWIDTH 3 0
BBX 1 9 1 -2
BITMAP
80
80
80
80
80
80
80
80
80
ENDCHAR
STARTCHAR 2047
ENCODING 8263
SWIDTH 1111 0
DWIDTH 10 0
BBX 9 7 1 0
BITMAP
E700
9480
2100
2100
4200
0000
4200
ENDCHAR
STARTCHAR 2048
ENCODING 8264
SWIDTH 888 0
DWIDTH 8 0
BBX 6 7 1 0
BITMAP
E4
94
24
24
44
00
44
ENDCHAR
STARTCHAR 2049
ENCODING 8265
SWIDTH 888 0
DWIDTH 8 0
BBX 6 7 1 0
BITMAP
9C
A4
84
88
90
00
88
ENDCHAR
STARTCHAR 204A
ENCODING 8266
SWIDTH 666 0
DWIDTH 6 0
BBX 4 7 1 -2
BITMAP
F0
10
10
20
20
20
20
ENDCHAR
STARTCHAR 204B
ENCODING 8267
SWIDTH 555 0
DWIDTH 5 0
BBX 5 9 0 -2
BITMAP
F0
B8
B8
B0
B0
A0
A0
A0
A0
ENDCHAR
STARTCHAR 204C
ENCODING 8268
SWIDTH 555 0
DWIDTH 5 0
BBX 4 5 1 1
BITMAP
F0
D0
D0
D0
F0
ENDCHAR
STARTCHAR 204D
ENCODING 8269
SWIDTH 555 0
DWIDTH 5 0
BBX 5 5 0 1
BITMAP
F0
B8
B8
B8
F0
ENDCHAR
STARTCHAR 204E
ENCODING 8270
SWIDTH 444 0
DWIDTH 4 0
BBX 3 3 0 0
BITMAP
40
60
A0
ENDCHAR
STARTCHAR 204F
ENCODING 8271
SWIDTH 333 0
DWIDTH 3 0
BBX 1 6 1 -1
BITMAP
80
00
00
00
80
80
ENDCHAR
STARTCHAR 2050
ENCODING 8272
SWIDTH 1000 0
DWIDTH 9 0
BBX 8 8 0 -1
BITMAP
3E
C1
00
00
00
00
C1
3E
ENDCHAR
STARTCHAR 2051
ENCODING 8273
SWIDTH 444 0
DWIDTH 4 0
BBX 3 6 0 0
BITMAP
40
60
00
00
E0
60
ENDCHAR
STARTCHAR 2052
ENCODING 8274
SWIDTH 888 0
DWIDTH 8 0
BBX 6 6 1 0
BITMAP
C8
D0
10
2C
4C
40
ENDCHAR
STARTCHAR 2053
ENCODING 8275
SWIDTH 888 0
DWIDTH 8 0
BBX 8 2 0 1
BITMAP
71
8E
ENDCHAR
STARTCHAR 2054
ENCODING 8276
SWIDTH 1000 0
DWIDTH 9 0
BBX 9 2 0 -1
BITMAP
3E00
C180
ENDCHAR
STARTCHAR 2055
ENCODING 8277
SWIDTH 666 0
DWIDTH 6 0
BBX 6 5 0 0
BITMAP
60
28
FC
28
60
ENDCHAR
STARTCHAR 2056
ENCODING 8278
SWIDTH 555 0
DWIDTH 5 0
BBX 3 5 1 1
BITMAP
20
00
80
00
20
ENDCHAR
STARTCHAR 2057
ENCODING 8279
SWIDTH 888 0
DWIDTH 8 0
BBX 6 3 1 4
BITMAP
AC
B4
D8
ENDCHAR
STARTCHAR 2058
ENCODING 8280
SWIDTH 555 0
DWIDTH 5 0
BBX 5 5 0 0
BITMAP
20
00
88
00
20
ENDCHAR
STARTCHAR 2059
ENCODING 8281
SWIDTH 555 0
DWIDTH 5 0
BBX 4 5 1 0
BITMAP
90
00
40
00
90
ENDCHAR
STARTCHAR 205A
ENCODING 8282
SWIDTH 333 0
DWIDTH 3 0
BBX 1 6 1 0
BITMAP
80
00
00
00
00
80
ENDCHAR
STARTCHAR 205B
ENCODING 8283
SWIDTH 555 0
DWIDTH 5 0
BBX 5 6 0 0
BITMAP
20
00
88
00
00
20
ENDCHAR
STARTCHAR 205C
ENCODING 8284
SWIDTH 666 0
DWIDTH 6 0
BBX 6 5 0 0
BITMAP
10
58
FC
10
58
ENDCHAR
STARTCHAR 205D
ENCODING 8285
SWIDTH 333 0
DWIDTH 3 0
BBX 1 5 1 0
BITMAP
80
00
80
00
80
ENDCHAR
STARTCHAR 205E
ENCODING 8286
SWIDTH 333 0
DWIDTH 3 0
BBX 1 7 1 0
BITMAP
80
00
80
00
80
00
80
ENDCHAR
STARTCHAR 205F
ENCODING 8287
SWIDTH 333 0
DWIDTH 3 0
BBX 0 0 0 0
BITMAP
ENDCHAR
STARTCHAR 2060
ENCODING 8288
SWIDTH 0 0
DWIDTH 0 0
BBX 0 0 0 0
BITMAP
ENDCHAR
STARTCHAR 2061
ENCODING 8289
SWIDTH 0 0
DWIDTH 0 0
BBX 0 0 0 0
BITMAP
ENDCHAR
STARTCHAR 2062
ENCODING 8290
SWIDTH 0 0
DWIDTH 0 0
BBX 0 0 0 0
BITMAP
ENDCHAR
STARTCHAR 2063
ENCODING 8291
SWIDTH 0 0
DWIDTH 0 0
BBX 0 0 0 0
BITMAP
ENDCHAR
STARTCHAR 206A
ENCODING 8298
SWIDTH 0 0
DWIDTH 0 0
BBX 0 0 0 0
BITMAP
ENDCHAR
STARTCHAR 206B
ENCODING 8299
SWIDTH 0 0
DWIDTH 0 0
BBX 0 0 0 0
BITMAP
ENDCHAR
STARTCHAR 206C
ENCODING 8300
SWIDTH 0 0
DWIDTH 0 0
BBX 0 0 0 0
BITMAP
ENDCHAR
STARTCHAR 206D
ENCODING 8301
SWIDTH 0 0
DWIDTH 0 0
BBX 0 0 0 0
BITMAP
ENDCHAR
STARTCHAR 206E
ENCODING 8302
SWIDTH 0 0
DWIDTH 0 0
BBX 0 0 0 0
BITMAP
ENDCHAR
STARTCHAR 206F
ENCODING 8303
SWIDTH 0 0
DWIDTH 0 0
BBX 0 0 0 0
BITMAP
ENDCHAR
STARTCHAR 2070
ENCODING 8304
SWIDTH 333 0
DWIDTH 3 0
BBX 2 4 0 3
BITMAP
C0
C0
C0
C0
ENDCHAR
STARTCHAR 2071
ENCODING 8305
SWIDTH 111 0
DWIDTH 1 0
BBX 1 2 0 5
BITMAP
80
80
ENDCHAR
STARTCHAR 2074
ENCODING 8308
SWIDTH 333 0
DWIDTH 3 0
BBX 2 3 0 4
BITMAP
40
40
C0
ENDCHAR
STARTCHAR 2075
ENCODING 8309
SWIDTH 333 0
DWIDTH 3 0
BBX 2 4 0 3
BITMAP
C0
C0
C0
40
ENDCHAR
STARTCHAR 2076
ENCODING 8310
SWIDTH 333 0
DWIDTH 3 0
BBX 2 4 0 3
BITMAP
40
C0
C0
C0
ENDCHAR
STARTCHAR 2077
ENCODING 8311
SWIDTH 333 0
DWIDTH 3 0
BBX 2 2 0 4
BITMAP
C0
40
ENDCHAR
STARTCHAR 2078
ENCODING 8312
SWIDTH 333 0
DWIDTH 3 0
BBX 2 4 0 3
BITMAP
C0
40
C0
C0
ENDCHAR
STARTCHAR 2079
ENCODING 8313
SWIDTH 333 0
DWIDTH 3 0
BBX 2 4 0 3
BITMAP
C0
C0
C0
C0
ENDCHAR
STARTCHAR 207A
ENCODING 8314
SWIDTH 333 0
DWIDTH 3 0
BBX 2 2 0 4
BITMAP
40
C0
ENDCHAR
STARTCHAR 207B
ENCODING 8315
SWIDTH 222 0
DWIDTH 2 0
BBX 1 1 0 4
BITMAP
80
ENDCHAR
STARTCHAR 207C
ENCODING 8316
SWIDTH 333 0
DWIDTH 3 0
BBX 2 2 0 4
BITMAP
C0
C0
ENDCHAR
STARTCHAR 207D
ENCODING 8317
SWIDTH 222 0
DWIDTH 2 0
BBX 1 2 0 4
BITMAP
80
80
ENDCHAR
STARTCHAR 207E
ENCODING 8318
SWIDTH 222 0
DWIDTH 2 0
BBX 1 4 0 3
BITMAP
80
80
80
80
ENDCHAR
STARTCHAR 207F
ENCODING 8319
SWIDTH 333 0
DWIDTH 3 0
BBX 2 2 0 4
BITMAP
C0
80
ENDCHAR
STARTCHAR 2080
ENCODING 8320
SWIDTH 333 0
DWIDTH 3 0
BBX 2 3 0 -3
BITMAP
C0
C0
C0
ENDCHAR
STARTCHAR 2081
ENCODING 8321
SWIDTH 333 0
DWIDTH 3 0
BBX 1 3 1 -3
BITMAP
80
80
80
ENDCHAR
STARTCHAR 2082
ENCODING 8322
SWIDTH 333 0
DWIDTH 3 0
BBX 2 3 0 -3
BITMAP
40
C0
C0
ENDCHAR
STARTCHAR 2083
ENCODING 8323
SWIDTH 333 0
DWIDTH 3 0
BBX 2 3 0 -3
BITMAP
40
C0
C0
ENDCHAR
STARTCHAR 2084
ENCODING 8324
SWIDTH 333 0
DWIDTH 3 0
BBX 2 3 0 -3
BITMAP
40
40
C0
ENDCHAR
STARTCHAR 2085
ENCODING 8325
SWIDTH 333 0
DWIDTH 3 0
BBX 2 3 0 -3
BITMAP
C0
C0
40
ENDCHAR
STARTCHAR 2086
ENCODING 8326
SWIDTH 333 0
DWIDTH 3 0
BBX 2 3 0 -3
BITMAP
C0
C0
C0
ENDCHAR
STARTCHAR 2087
ENCODING 8327
SWIDTH 333 0
DWIDTH 3 0
BBX 2 2 0 -3
BITMAP
C0
40
ENDCHAR
STARTCHAR 2088
ENCODING 8328
SWIDTH 333 0
DWIDTH 3 0
BBX 2 3 0 -3
BITMAP
C0
40
C0
ENDCHAR
STARTCHAR 2089
ENCODING 8329
SWIDTH 333 0
DWIDTH 3 0
BBX 2 3 0 -3
BITMAP
C0
C0
C0
ENDCHAR
STARTCHAR 208A
ENCODING 8330
SWIDTH 333 0
DWIDTH 3 0
BBX 2 2 0 -3
BITMAP
C0
40
ENDCHAR
STARTCHAR 208B
ENCODING 8331
SWIDTH 222 0
DWIDTH 2 0
BBX 1 1 0 -2
BITMAP
80
ENDCHAR
STARTCHAR 208C
ENCODING 8332
SWIDTH 333 0
DWIDTH 3 0
BBX 2 2 0 -3
BITMAP
C0
C0
ENDCHAR
STARTCHAR 208D
ENCODING 8333
SWIDTH 222 0
DWIDTH 2 0
BBX 1 2 0 -3
BITMAP
80
80
ENDCHAR
STARTCHAR 208E
ENCODING 8334
SWIDTH 222 0
DWIDTH 2 0
BBX 1 4 0 -4
BITMAP
80
80
80
80
ENDCHAR
STARTCHAR 2090
ENCODING 8336
SWIDTH 333 0
DWIDTH 3 0
BBX 2 3 0 -3
BITMAP
40
40
C0
ENDCHAR
STARTCHAR 2091
ENCODING 8337
SWIDTH 333 0
DWIDTH 3 0
BBX 2 3 0 -3
BITMAP
C0
C0
C0
ENDCHAR
STARTCHAR 2092
ENCODING 8338
SWIDTH 333 0
DWIDTH 3 0
BBX 2 3 0 -3
BITMAP
C0
C0
C0
ENDCHAR
STARTCHAR 2093
ENCODING 8339
SWIDTH 222 0
DWIDTH 2 0
BBX 2 2 0 -3
BITMAP
C0
C0
ENDCHAR
STARTCHAR 2094
ENCODING 8340
SWIDTH 333 0
DWIDTH 3 0
BBX 2 3 0 -3
BITMAP
40
C0
C0
ENDCHAR
STARTCHAR 20A0
ENCODING 8352
SWIDTH 555 0
DWIDTH 5 0
BBX 5 6 0 0
BITMAP
60
80
B8
58
20
18
ENDCHAR
STARTCHAR 20A1
ENCODING 8353
SWIDTH 777 0
DWIDTH 7 0
BBX 6 8 0 -1
BITMAP
14
6C
6C
B0
D4
54
78
A0
ENDCHAR
STARTCHAR 20A2
ENCODING 8354
SWIDTH 777 0
DWIDTH 7 0
BBX 6 7 0 0
BITMAP
38
44
80
98
90
54
38
ENDCHAR
STARTCHAR 20A3
ENCODING 8355
SWIDTH 555 0
DWIDTH 5 0
BBX 5 7 0 0
BITMAP
78
40
40
70
40
E0
40
ENDCHAR
STARTCHAR 20A4
ENCODING 8356
SWIDTH 555 0
DWIDTH 5 0
BBX 5 7 0 0
BITMAP
30
48
40
F0
F0
40
78
ENDCHAR
STARTCHAR 20A5
ENCODING 8357
SWIDTH 888 0
DWIDTH 8 0
BBX 6 7 1 -1
BITMAP
04
FC
B4
A4
A4
64
80
ENDCHAR
STARTCHAR 20A6
ENCODING 8358
SWIDTH 777 0
DWIDTH 7 0
BBX 7 6 0 0
BITMAP
44
64
FE
FE
4C
44
ENDCHAR
STARTCHAR 20A7
ENCODING 8359
SWIDTH 666 0
DWIDTH 6 0
BBX 6 7 0 0
BITMAP
C0
B0
B4
D8
94
9C
94
ENDCHAR
STARTCHAR 20A8
ENCODING 8360
SWIDTH 555 0
DWIDTH 5 0
BBX 5 7 0 0
BITMAP
E0
A0
A8
F0
A8
B8
A8
ENDCHAR
STARTCHAR 20A9
ENCODING 8361
SWIDTH 1000 0
DWIDTH 9 0
BBX 9 6 0 0
BITMAP
4900
FF80
5500
FF80
3500
2200
ENDCHAR
STARTCHAR 20AB
ENCODING 8363
SWIDTH 555 0
DWIDTH 5 0
BBX 5 9 0 -2
BITMAP
38
70
90
90
90
90
70
00
70
ENDCHAR
STARTCHAR 20AC
ENCODING 8364
SWIDTH 777 0
DWIDTH 7 0
BBX 5 7 1 0
BITMAP
30
48
80
F0
F0
48
70
ENDCHAR
STARTCHAR 20AD
ENCODING 8365
SWIDTH 777 0
DWIDTH 7 0
BBX 6 6 0 0
BITMAP
48
50
FC
50
48
44
ENDCHAR
STARTCHAR 20AE
ENCODING 8366
SWIDTH 666 0
DWIDTH 6 0
BBX 5 7 0 0
BITMAP
F8
20
38
68
30
60
20
ENDCHAR
STARTCHAR 20B1
ENCODING 8369
SWIDTH 666 0
DWIDTH 6 0
BBX 6 7 0 0
BITMAP
78
FC
FC
78
40
40
40
ENDCHAR
STARTCHAR 20B2
ENCODING 8370
SWIDTH 777 0
DWIDTH 7 0
BBX 6 9 0 -1
BITMAP
10
38
54
50
9C
94
54
38
10
ENDCHAR
STARTCHAR 20B3
ENCODING 8371
SWIDTH 666 0
DWIDTH 6 0
BBX 6 6 0 0
BITMAP
30
30
FC
FC
48
84
ENDCHAR
STARTCHAR 20B4
ENCODING 8372
SWIDTH 666 0
DWIDTH 6 0
BBX 4 7 1 0
BITMAP
C0
30
20
F0
F0
80
F0
ENDCHAR
STARTCHAR 20B5
ENCODING 8373
SWIDTH 777 0
DWIDTH 7 0
BBX 6 9 0 -1
BITMAP
10
38
54
90
90
94
54
38
10
ENDCHAR
STARTCHAR 20B8
ENCODING 8376
SWIDTH 555 0
DWIDTH 5 0
BBX 5 6 0 0
BITMAP
F8
F8
20
20
20
20
ENDCHAR
STARTCHAR 20B9
ENCODING 8377
SWIDTH 555 0
DWIDTH 5 0
BBX 3 7 1 0
BITMAP
E0
40
E0
40
80
80
40
ENDCHAR
STARTCHAR 20BA
ENCODING 8378
SWIDTH 555 0
DWIDTH 5 0
BBX 5 6 0 0
BITMAP
40
60
60
C8
50
60
ENDCHAR
STARTCHAR 20BE
ENCODING 8382
SWIDTH 777 0
DWIDTH 7 0
BBX 6 7 0 0
BITMAP
20
78
74
84
80
40
7C
ENDCHAR
STARTCHAR 2100
ENCODING 8448
SWIDTH 888 0
DWIDTH 8 0
BBX 7 7 0 0
BITMAP
64
A8
E8
F0
16
28
26
ENDCHAR
STARTCHAR 2101
ENCODING 8449
SWIDTH 888 0
DWIDTH 8 0
BBX 7 7 0 0
BITMAP
60
A8
E8
F0
1C
2E
26
ENDCHAR
STARTCHAR 2102
ENCODING 8450
SWIDTH 777 0
DWIDTH 7 0
BBX 6 7 0 0
BITMAP
38
64
A0
A0
A4
64
38
ENDCHAR
STARTCHAR 2103
ENCODING 8451
SWIDTH 1111 0
DWIDTH 10 0
BBX 10 7 0 0
BITMAP
6780
AC40
6800
0800
0840
0C80
0700
ENDCHAR
STARTCHAR 2104
ENCODING 8452
SWIDTH 666 0
DWIDTH 6 0
BBX 6 6 0 0
BITMAP
40
60
C0
E0
40
7C
ENDCHAR
STARTCHAR 2105
ENCODING 8453
SWIDTH 888 0
DWIDTH 8 0
BBX 7 7 0 0
BITMAP
40
A8
A8
50
16
2A
26
ENDCHAR
STARTCHAR 2106
ENCODING 8454
SWIDTH 888 0
DWIDTH 8 0
BBX 7 7 0 0
BITMAP
44
A8
A8
50
1A
2A
24
ENDCHAR
STARTCHAR 2109
ENCODING 8457
SWIDTH 1000 0
DWIDTH 9 0
BBX 9 7 0 0
BITMAP
6F80
A800
6800
0F00
0800
0800
0800
ENDCHAR
STARTCHAR 210D
ENCODING 8461
SWIDTH 777 0
DWIDTH 7 0
BBX 5 6 1 0
BITMAP
C8
C8
F8
C8
C8
C8
ENDCHAR
STARTCHAR 2116
ENCODING 8470
SWIDTH 888 0
DWIDTH 8 0
BBX 7 7 1 0
BITMAP
90
90
D4
DA
BA
B4
9E
ENDCHAR
STARTCHAR 2117
ENCODING 8471
SWIDTH 777 0
DWIDTH 7 0
BBX 7 7 0 0
BITMAP
38
44
BC
BA
A4
44
38
ENDCHAR
STARTCHAR 2119
ENCODING 8473
SWIDTH 666 0
DWIDTH 6 0
BBX 5 7 1 0
BITMAP
F0
C8
C8
F0
C0
C0
C0
ENDCHAR
STARTCHAR 211A
ENCODING 8474
SWIDTH 777 0
DWIDTH 7 0
BBX 7 8 0 -1
BITMAP
38
64
A2
A2
A2
6C
3C
02
ENDCHAR
STARTCHAR 2120
ENCODING 8480
SWIDTH 777 0
DWIDTH 7 0
BBX 6 4 0 3
BITMAP
D4
B4
FC
78
ENDCHAR
STARTCHAR 2121
ENCODING 8481
SWIDTH 888 0
DWIDTH 8 0
BBX 8 4 0 3
BITMAP
FA
5A
52
5F
ENDCHAR
STARTCHAR 2122
ENCODING 8482
SWIDTH 1000 0
DWIDTH 9 0
BBX 7 3 1 4
BITMAP
F2
5E
5A
ENDCHAR
STARTCHAR 2126
ENCODING 8486
SWIDTH 777 0
DWIDTH 7 0
BBX 7 7 0 0
BITMAP
38
44
82
82
44
44
EE
ENDCHAR
STARTCHAR 2127
ENCODING 8487
SWIDTH 777 0
DWIDTH 7 0
BBX 7 7 0 0
BITMAP
EE
44
44
82
82
44
38
ENDCHAR
STARTCHAR 2129
ENCODING 8489
SWIDTH 222 0
DWIDTH 2 0
BBX 2 5 0 0
BITMAP
C0
40
40
40
40
ENDCHAR
STARTCHAR 212A
ENCODING 8490
SWIDTH 666 0
DWIDTH 6 0
BBX 5 7 1 0
BITMAP
90
A0
E0
E0
A0
90
88
ENDCHAR
STARTCHAR 212B
ENCODING 8491
SWIDTH 666 0
DWIDTH 6 0
BBX 6 8 0 0
BITMAP
30
10
30
30
48
78
48
84
ENDCHAR
STARTCHAR 2132
ENCODING 8498
SWIDTH 666 0
DWIDTH 6 0
BBX 4 6 1 0
BITMAP
10
10
F0
10
10
F0
ENDCHAR
STARTCHAR 213A
ENCODING 8506
SWIDTH 777 0
DWIDTH 7 0
BBX 7 6 0 0
BITMAP
7A
84
82
82
84
78
ENDCHAR
STARTCHAR 213B
ENCODING 8507
SWIDTH 1000 0
DWIDTH 9 0
BBX 8 3 0 4
BITMAP
EA
D9
9E
ENDCHAR
STARTCHAR 2141
ENCODING 8513
SWIDTH 777 0
DWIDTH 7 0
BBX 6 7 0 0
BITMAP
B8
C4
84
E4
04
44
38
ENDCHAR
STARTCHAR 2142
ENCODING 8514
SWIDTH 555 0
DWIDTH 5 0
BBX 4 7 1 0
BITMAP
F0
10
10
10
10
10
10
ENDCHAR
STARTCHAR 2143
ENCODING 8515
SWIDTH 555 0
DWIDTH 5 0
BBX 4 6 1 0
BITMAP
10
10
10
10
10
F0
ENDCHAR
STARTCHAR 2144
ENCODING 8516
SWIDTH 666 0
DWIDTH 6 0
BBX 5 6 1 0
BITMAP
20
20
20
60
90
88
ENDCHAR
STARTCHAR 214B
ENCODING 8523
SWIDTH 666 0
DWIDTH 6 0
BBX 5 7 1 0
BITMAP
B0
C8
C8
30
50
50
70
ENDCHAR
STARTCHAR 214D
ENCODING 8525
SWIDTH 777 0
DWIDTH 7 0
BBX 7 6 0 0
BITMAP
C4
68
0E
18
26
26
ENDCHAR
STARTCHAR 214E
ENCODING 8526
SWIDTH 444 0
DWIDTH 4 0
BBX 3 5 1 0
BITMAP
20
20
E0
20
E0
ENDCHAR
STARTCHAR 215F
ENCODING 8543
SWIDTH 888 0
DWIDTH 8 0
BBX 4 6 1 0
BITMAP
90
90
A0
C0
40
80
ENDCHAR
STARTCHAR 2160
ENCODING 8544
SWIDTH 333 0
DWIDTH 3 0
BBX 1 6 1 0
BITMAP
80
80
80
80
80
80
ENDCHAR
STARTCHAR 2161
ENCODING 8545
SWIDTH 555 0
DWIDTH 5 0
BBX 3 6 1 0
BITMAP
A0
A0
A0
A0
A0
A0
ENDCHAR
STARTCHAR 2162
ENCODING 8546
SWIDTH 888 0
DWIDTH 8 0
BBX 6 6 1 0
BITMAP
A4
A4
A4
A4
A4
A4
ENDCHAR
STARTCHAR 2163
ENCODING 8547
SWIDTH 1000 0
DWIDTH 9 0
BBX 7 7 1 0
BITMAP
22
A2
92
94
94
8C
88
ENDCHAR
STARTCHAR 2164
ENCODING 8548
SWIDTH 666 0
DWIDTH 6 0
BBX 6 7 0 0
BITMAP
84
48
48
48
30
30
30
ENDCHAR
STARTCHAR 2165
ENCODING 8549
SWIDTH 1000 0
DWIDTH 9 0
BBX 8 7 0 0
BITMAP
84
49
49
49
31
31
31
ENDCHAR
STARTCHAR 2166
ENCODING 8550
SWIDTH 1222 0
DWIDTH 11 0
BBX 10 7 0 0
BITMAP
8400
4940
4940
4940
3140
3140
3140
ENDCHAR
STARTCHAR 2167
ENCODING 8551
SWIDTH 1555 0
DWIDTH 14 0
BBX 13 7 0 0
BITMAP
8400
4948
4948
4948
3148
3148
3148
ENDCHAR
STARTCHAR 2168
ENCODING 8552
SWIDTH 1000 0
DWIDTH 9 0
BBX 7 7 1 0
BITMAP
22
94
94
88
94
94
A2
ENDCHAR
STARTCHAR 2169
ENCODING 8553
SWIDTH 666 0
DWIDTH 6 0
BBX 5 7 1 0
BITMAP
90
90
60
60
60
90
98
ENDCHAR
STARTCHAR 216A
ENCODING 8554
SWIDTH 1000 0
DWIDTH 9 0
BBX 7 7 1 0
BITMAP
90
92
62
62
62
92
9A
ENDCHAR
STARTCHAR 216B
ENCODING 8555
SWIDTH 1222 0
DWIDTH 11 0
BBX 9 7 1 0
BITMAP
9000
9280
6280
6280
6280
9280
9A80
ENDCHAR
STARTCHAR 216C
ENCODING 8556
SWIDTH 555 0
DWIDTH 5 0
BBX 4 7 1 0
BITMAP
80
80
80
80
80
80
F0
ENDCHAR
STARTCHAR 216D
ENCODING 8557
SWIDTH 777 0
DWIDTH 7 0
BBX 6 7 0 0
BITMAP
38
44
80
80
84
44
38
ENDCHAR
STARTCHAR 216E
ENCODING 8558
SWIDTH 777 0
DWIDTH 7 0
BBX 5 7 1 0
BITMAP
F0
88
88
88
88
88
F0
ENDCHAR
STARTCHAR 216F
ENCODING 8559
SWIDTH 888 0
DWIDTH 8 0
BBX 6 7 1 0
BITMAP
8C
8C
CC
D4
D4
B4
A4
ENDCHAR
STARTCHAR 2170
ENCODING 8560
SWIDTH 222 0
DWIDTH 2 0
BBX 1 7 0 0
BITMAP
80
80
80
80
80
80
80
ENDCHAR
STARTCHAR 2171
ENCODING 8561
SWIDTH 444 0
DWIDTH 4 0
BBX 2 7 1 0
BITMAP
C0
C0
C0
C0
C0
C0
C0
ENDCHAR
STARTCHAR 2172
ENCODING 8562
SWIDTH 666 0
DWIDTH 6 0
BBX 4 7 1 0
BITMAP
D0
D0
D0
D0
D0
D0
D0
ENDCHAR
STARTCHAR 2173
ENCODING 8563
SWIDTH 777 0
DWIDTH 7 0
BBX 5 7 1 0
BITMAP
80
C8
C8
A8
B0
B0
90
ENDCHAR
STARTCHAR 2174
ENCODING 8564
SWIDTH 555 0
DWIDTH 5 0
BBX 4 6 0 0
BITMAP
90
90
50
60
60
20
ENDCHAR
STARTCHAR 2175
ENCODING 8565
SWIDTH 777 0
DWIDTH 7 0
BBX 6 7 0 0
BITMAP
04
94
94
54
64
64
24
ENDCHAR
STARTCHAR 2176
ENCODING 8566
SWIDTH 1000 0
DWIDTH 9 0
BBX 8 7 0 0
BITMAP
05
95
95
55
65
65
25
ENDCHAR
STARTCHAR 2177
ENCODING 8567
SWIDTH 1222 0
DWIDTH 11 0
BBX 10 7 0 0
BITMAP
0540
9540
9540
5540
6540
6540
2540
ENDCHAR
STARTCHAR 2178
ENCODING 8568
SWIDTH 777 0
DWIDTH 7 0
BBX 5 7 1 0
BITMAP
80
C8
B0
B0
B0
A8
C8
ENDCHAR
STARTCHAR 2179
ENCODING 8569
SWIDTH 555 0
DWIDTH 5 0
BBX 4 6 0 0
BITMAP
90
60
60
60
50
90
ENDCHAR
STARTCHAR 217A
ENCODING 8570
SWIDTH 777 0
DWIDTH 7 0
BBX 6 7 0 0
BITMAP
04
94
64
64
64
54
94
ENDCHAR
STARTCHAR 217B
ENCODING 8571
SWIDTH 1000 0
DWIDTH 9 0
BBX 8 7 0 0
BITMAP
05
95
65
65
65
55
95
ENDCHAR
STARTCHAR 217C
ENCODING 8572
SWIDTH 222 0
DWIDTH 2 0
BBX 1 7 1 0
BITMAP
80
80
80
80
80
80
80
ENDCHAR
STARTCHAR 217D
ENCODING 8573
SWIDTH 555 0
DWIDTH 5 0
BBX 4 6 0 0
BITMAP
70
90
80
80
90
70
ENDCHAR
STARTCHAR 217E
ENCODING 8574
SWIDTH 555 0
DWIDTH 5 0
BBX 4 7 0 0
BITMAP
10
70
90
90
90
90
70
ENDCHAR
STARTCHAR 217F
ENCODING 8575
SWIDTH 888 0
DWIDTH 8 0
BBX 6 6 1 0
BITMAP
FC
A4
A4
A4
A4
A4
ENDCHAR
STARTCHAR 2183
ENCODING 8579
SWIDTH 777 0
DWIDTH 7 0
BBX 6 7 0 0
BITMAP
78
44
04
04
84
44
38
ENDCHAR
STARTCHAR 2184
ENCODING 8580
SWIDTH 555 0
DWIDTH 5 0
BBX 4 5 0 0
BITMAP
60
90
10
90
70
ENDCHAR
STARTCHAR 2202
ENCODING 8706
SWIDTH 444 0
DWIDTH 4 0
BBX 4 7 0 0
BITMAP
20
10
10
70
90
90
60
ENDCHAR
STARTCHAR 2206
ENCODING 8710
SWIDTH 666 0
DWIDTH 6 0
BBX 5 7 1 0
BITMAP
20
60
50
90
90
88
F8
ENDCHAR
STARTCHAR 2207
ENCODING 8711
SWIDTH 666 0
DWIDTH 6 0
BBX 5 7 1 0
BITMAP
F8
88
90
90
50
60
20
ENDCHAR
STARTCHAR 220F
ENCODING 8719
SWIDTH 777 0
DWIDTH 7 0
BBX 6 8 0 -1
BITMAP
FC
44
44
44
44
44
44
44
ENDCHAR
STARTCHAR 2210
ENCODING 8720
SWIDTH 777 0
DWIDTH 7 0
BBX 6 7 0 -1
BITMAP
44
44
44
44
44
44
FC
ENDCHAR
STARTCHAR 2211
ENCODING 8721
SWIDTH 666 0
DWIDTH 6 0
BBX 5 8 0 -1
BITMAP
F8
40
20
10
10
20
40
F8
ENDCHAR
STARTCHAR 2212
ENCODING 8722
SWIDTH 555 0
DWIDTH 5 0
BBX 5 1 0 2
BITMAP
F8
ENDCHAR
STARTCHAR 221A
ENCODING 8730
SWIDTH 555 0
DWIDTH 5 0
BBX 6 8 0 0
BITMAP
04
08
08
48
D0
50
20
20
ENDCHAR
STARTCHAR 221E
ENCODING 8734
SWIDTH 666 0
DWIDTH 6 0
BBX 6 3 0 3
BITMAP
6C
94
6C
ENDCHAR
STARTCHAR 222B
ENCODING 8747
SWIDTH 222 0
DWIDTH 2 0
BBX 4 9 -2 -2
BITMAP
30
20
20
20
20
20
40
40
C0
ENDCHAR
STARTCHAR 2248
ENCODING 8776
SWIDTH 555 0
DWIDTH 5 0
BBX 5 4 0 1
BITMAP
E8
B8
E8
B8
ENDCHAR
STARTCHAR 2260
ENCODING 8800
SWIDTH 555 0
DWIDTH 5 0
BBX 5 5 0 0
BITMAP
10
F8
20
F8
40
ENDCHAR
STARTCHAR 2264
ENCODING 8804
SWIDTH 555 0
DWIDTH 5 0
BBX 5 6 0 0
BITMAP
08
70
80
70
08
F8
ENDCHAR
STARTCHAR 2265
ENCODING 8805
SWIDTH 555 0
DWIDTH 5 0
BBX 5 6 0 0
BITMAP
80
70
08
70
80
F8
ENDCHAR
STARTCHAR 23CE
ENCODING 9166
SWIDTH 1111 0
DWIDTH 10 0
BBX 10 7 0 0
BITMAP
00C0
00C0
08C0
38C0
FF80
3800
0800
ENDCHAR
STARTCHAR 2423
ENCODING 9251
SWIDTH 888 0
DWIDTH 8 0
BBX 8 1 0 -1
BITMAP
FF
ENDCHAR
STARTCHAR 2500
ENCODING 9472
SWIDTH 1000 0
DWIDTH 9 0
BBX 9 1 0 3
BITMAP
FF80
ENDCHAR
STARTCHAR 2501
ENCODING 9473
SWIDTH 1000 0
DWIDTH 9 0
BBX 9 1 0 3
BITMAP
FF80
ENDCHAR
STARTCHAR 2502
ENCODING 9474
SWIDTH 1000 0
DWIDTH 9 0
BBX 1 9 4 -2
BITMAP
80
80
80
80
80
80
80
80
80
ENDCHAR
STARTCHAR 2503
ENCODING 9475
SWIDTH 1000 0
DWIDTH 9 0
BBX 1 9 4 -2
BITMAP
80
80
80
80
80
80
80
80
80
ENDCHAR
STARTCHAR 250C
ENCODING 9484
SWIDTH 1000 0
DWIDTH 9 0
BBX 5 6 4 -2
BITMAP
F8
80
80
80
80
80
ENDCHAR
STARTCHAR 250F
ENCODING 9487
SWIDTH 1000 0
DWIDTH 9 0
BBX 5 6 4 -2
BITMAP
F8
80
80
80
80
80
ENDCHAR
STARTCHAR 2510
ENCODING 9488
SWIDTH 1000 0
DWIDTH 9 0
BBX 5 6 0 -2
BITMAP
F8
08
08
08
08
08
ENDCHAR
STARTCHAR 2513
ENCODING 9491
SWIDTH 1000 0
DWIDTH 9 0
BBX 5 6 0 -2
BITMAP
F8
08
08
08
08
08
ENDCHAR
STARTCHAR 2514
ENCODING 9492
SWIDTH 1000 0
DWIDTH 9 0
BBX 5 6 4 3
BITMAP
80
80
80
80
80
F8
ENDCHAR
STARTCHAR 2517
ENCODING 9495
SWIDTH 1000 0
DWIDTH 9 0
BBX 5 6 4 3
BITMAP
80
80
80
80
80
F8
ENDCHAR
STARTCHAR 2518
ENCODING 9496
SWIDTH 1000 0
DWIDTH 9 0
BBX 5 6 0 3
BITMAP
08
08
08
08
08
F8
ENDCHAR
STARTCHAR 251B
ENCODING 9499
SWIDTH 1000 0
DWIDTH 9 0
BBX 5 6 0 3
BITMAP
08
08
08
08
08
F8
ENDCHAR
STARTCHAR 2588
ENCODING 9608
SWIDTH 1000 0
DWIDTH 9 0
BBX 9 11 0 -3
BITMAP
FF80
FF80
FF80
FF80
FF80
FF80
FF80
FF80
FF80
FF80
FF80
ENDCHAR
STARTCHAR 25CA
ENCODING 9674
SWIDTH 444 0
DWIDTH 4 0
BBX 4 7 0 0
BITMAP
20
60
50
90
50
60
20
ENDCHAR
STARTCHAR 25CF
ENCODING 9679
SWIDTH 555 0
DWIDTH 5 0
BBX 4 3 1 1
BITMAP
E0
F0
E0
ENDCHAR
STARTCHAR 2639
ENCODING 9785
SWIDTH 777 0
DWIDTH 7 0
BBX 7 7 0 0
BITMAP
38
44
AC
BA
CC
44
38
ENDCHAR
STARTCHAR 263A
ENCODING 9786
SWIDTH 777 0
DWIDTH 7 0
BBX 7 7 0 0
BITMAP
38
44
AC
AA
CC
74
38
ENDCHAR
STARTCHAR 263B
ENCODING 9787
SWIDTH 777 0
DWIDTH 7 0
BBX 7 7 0 0
BITMAP
38
7C
D4
FE
B4
7C
38
ENDCHAR
STARTCHAR 266A
ENCODING 9834
SWIDTH 555 0
DWIDTH 5 0
BBX 4 6 0 0
BITMAP
20
30
20
20
20
E0
ENDCHAR
STARTCHAR 2C60
ENCODING 11360
SWIDTH 555 0
DWIDTH 5 0
BBX 5 6 0 0
BITMAP
40
E0
E0
40
40
78
ENDCHAR
STARTCHAR 2C61
ENCODING 11361
SWIDTH 333 0
DWIDTH 3 0
BBX 3 6 0 0
BITMAP
40
E0
E0
40
40
40
ENDCHAR
STARTCHAR 2C62
ENCODING 11362
SWIDTH 777 0
DWIDTH 7 0
BBX 6 6 0 0
BITMAP
20
60
B8
20
20
3C
ENDCHAR
STARTCHAR 2C63
ENCODING 11363
SWIDTH 666 0
DWIDTH 6 0
BBX 6 7 0 0
BITMAP
78
44
E4
78
40
40
40
ENDCHAR
STARTCHAR 2C64
ENCODING 11364
SWIDTH 777 0
DWIDTH 7 0
BBX 5 9 1 -2
BITMAP
F0
88
88
F0
88
88
88
80
80
ENDCHAR
STARTCHAR 2C65
ENCODING 11365
SWIDTH 555 0
DWIDTH 5 0
BBX 5 7 0 -1
BITMAP
10
70
30
30
D0
E8
40
ENDCHAR
STARTCHAR 2C66
ENCODING 11366
SWIDTH 444 0
DWIDTH 4 0
BBX 3 6 0 0
BITMAP
60
60
40
40
40
E0
ENDCHAR
STARTCHAR 2C67
ENCODING 11367
SWIDTH 777 0
DWIDTH 7 0
BBX 5 7 1 -1
BITMAP
88
88
F8
88
88
88
08
ENDCHAR
STARTCHAR 2C68
ENCODING 11368
SWIDTH 555 0
DWIDTH 5 0
BBX 4 8 1 -2
BITMAP
80
E0
A0
A0
A0
A0
10
10
ENDCHAR
STARTCHAR 2C69
ENCODING 11369
SWIDTH 666 0
DWIDTH 6 0
BBX 5 8 1 -2
BITMAP
90
A0
C0
A0
B0
90
08
08
ENDCHAR
STARTCHAR 2C6A
ENCODING 11370
SWIDTH 555 0
DWIDTH 5 0
BBX 3 8 1 -2
BITMAP
80
80
A0
C0
C0
A0
20
20
ENDCHAR
STARTCHAR 2C6B
ENCODING 11371
SWIDTH 666 0
DWIDTH 6 0
BBX 5 9 0 -2
BITMAP
F8
08
10
20
40
40
F8
08
08
ENDCHAR
STARTCHAR 2C6C
ENCODING 11372
SWIDTH 555 0
DWIDTH 5 0
BBX 4 6 0 -1
BITMAP
F0
20
20
40
F0
10
ENDCHAR
STARTCHAR 2C75
ENCODING 11381
SWIDTH 555 0
DWIDTH 5 0
BBX 4 6 1 0
BITMAP
80
80
F0
80
80
80
ENDCHAR
STARTCHAR 2C76
ENCODING 11382
SWIDTH 444 0
DWIDTH 4 0
BBX 3 5 1 0
BITMAP
80
80
E0
80
80
ENDCHAR
STARTCHAR 2E00
ENCODING 11776
SWIDTH 222 0
DWIDTH 2 0
BBX 2 3 0 4
BITMAP
C0
80
80
ENDCHAR
STARTCHAR 2E01
ENCODING 11777
SWIDTH 222 0
DWIDTH 2 0
BBX 2 3 0 4
BITMAP
C0
C0
80
ENDCHAR
STARTCHAR 2E02
ENCODING 11778
SWIDTH 222 0
DWIDTH 2 0
BBX 1 2 0 4
BITMAP
80
80
ENDCHAR
STARTCHAR 2E03
ENCODING 11779
SWIDTH 222 0
DWIDTH 2 0
BBX 1 1 0 4
BITMAP
80
ENDCHAR
STARTCHAR 2E04
ENCODING 11780
SWIDTH 222 0
DWIDTH 2 0
BBX 2 2 0 4
BITMAP
80
C0
ENDCHAR
STARTCHAR 2E05
ENCODING 11781
SWIDTH 222 0
DWIDTH 2 0
BBX 2 2 0 4
BITMAP
80
C0
ENDCHAR
STARTCHAR 2E06
ENCODING 11782
SWIDTH 333 0
DWIDTH 3 0
BBX 3 3 0 4
BITMAP
E0
40
40
ENDCHAR
STARTCHAR 2E07
ENCODING 11783
SWIDTH 333 0
DWIDTH 3 0
BBX 3 3 0 4
BITMAP
E0
60
40
ENDCHAR
STARTCHAR 2E08
ENCODING 11784
SWIDTH 333 0
DWIDTH 3 0
BBX 3 3 0 4
BITMAP
E0
40
80
ENDCHAR
STARTCHAR 2E09
ENCODING 11785
SWIDTH 333 0
DWIDTH 3 0
BBX 2 3 0 4
BITMAP
C0
40
80
ENDCHAR
STARTCHAR 2E0A
ENCODING 11786
SWIDTH 333 0
DWIDTH 3 0
BBX 2 3 0 4
BITMAP
40
80
40
ENDCHAR
STARTCHAR 2E0B
ENCODING 11787
SWIDTH 333 0
DWIDTH 3 0
BBX 3 3 0 4
BITMAP
E0
A0
E0
ENDCHAR
STARTCHAR 2E0C
ENCODING 11788
SWIDTH 222 0
DWIDTH 2 0
BBX 2 2 0 4
BITMAP
80
40
ENDCHAR
STARTCHAR 2E0D
ENCODING 11789
SWIDTH 222 0
DWIDTH 2 0
BBX 2 2 0 4
BITMAP
40
80
ENDCHAR
STARTCHAR 2E0E
ENCODING 11790
SWIDTH 1000 0
DWIDTH 9 0
BBX 9 7 0 0
BITMAP
7F80
4000
4000
2000
4000
4000
8000
ENDCHAR
STARTCHAR 2E0F
ENCODING 11791
SWIDTH 1222 0
DWIDTH 11 0
BBX 10 1 0 -1
BITMAP
FFC0
ENDCHAR
STARTCHAR 2E10
ENCODING 11792
SWIDTH 1111 0
DWIDTH 10 0
BBX 10 3 0 -3
BITMAP
FFC0
4000
8000
ENDCHAR
STARTCHAR 2E11
ENCODING 11793
SWIDTH 1111 0
DWIDTH 10 0
BBX 10 3 0 -3
BITMAP
FFC0
0080
0040
ENDCHAR
STARTCHAR 2E12
ENCODING 11794
SWIDTH 111 0
DWIDTH 1 0
BBX 0 0 0 0
BITMAP
ENDCHAR
STARTCHAR 2E13
ENCODING 11795
SWIDTH 555 0
DWIDTH 5 0
BBX 5 3 0 2
BITMAP
20
00
F8
ENDCHAR
STARTCHAR 2E14
ENCODING 11796
SWIDTH 666 0
DWIDTH 6 0
BBX 6 6 0 0
BITMAP
04
08
10
20
C0
40
ENDCHAR
STARTCHAR 2E15
ENCODING 11797
SWIDTH 666 0
DWIDTH 6 0
BBX 6 6 0 0
BITMAP
80
40
20
10
0C
08
ENDCHAR
STARTCHAR 2E16
ENCODING 11798
SWIDTH 555 0
DWIDTH 5 0
BBX 5 6 0 -1
BITMAP
10
C0
38
18
E0
10
ENDCHAR
STARTCHAR 2E17
ENCODING 11799
SWIDTH 555 0
DWIDTH 5 0
BBX 5 4 0 0
BITMAP
18
E0
30
C0
ENDCHAR
STARTCHAR 2E1C
ENCODING 11804
SWIDTH 222 0
DWIDTH 2 0
BBX 2 2 0 0
BITMAP
80
40
ENDCHAR
ENDFONT
